TwilioSansMono-SemiBold.ufo
<glyph name="numbersign" format="2">
	<unicode hex="0023"/>
	<advance width="600"/>
	<outline>
		<contour>
			<point x="28" y="256" type="line"/>
			<point x="28" y="161" type="line"/>
			<point x="124" y="161" type="line"/>
			<point x="109" y="0" type="line"/>
			<point x="207" y="0" type="line"/>
			<point x="222" y="161" type="line"/>
			<point x="344" y="161" type="line"/>
			<point x="329" y="0" type="line"/>
			<point x="426" y="0" type="line"/>
			<point x="442" y="161" type="line"/>
			<point x="549" y="161" type="line"/>
			<point x="549" y="256" type="line"/>
			<point x="451" y="256" type="line"/>
			<point x="468" y="437" type="line"/>
			<point x="572" y="437" type="line"/>
			<point x="572" y="533" type="line"/>
			<point x="477" y="533" type="line"/>
			<point x="492" y="684" type="line"/>
			<point x="394" y="684" type="line"/>
			<point x="380" y="533" type="line"/>
			<point x="257" y="533" type="line"/>
			<point x="271" y="684" type="line"/>
			<point x="174" y="684" type="line"/>
			<point x="160" y="533" type="line"/>
			<point x="52" y="533" type="line"/>
			<point x="52" y="437" type="line"/>
			<point x="151" y="437" type="line"/>
			<point x="133" y="256" type="line"/>
		</contour>
		<contour>
			<point x="231" y="256" type="line"/>
			<point x="248" y="437" type="line"/>
			<point x="371" y="437" type="line"/>
			<point x="353" y="256" type="line"/>
		</contour>
	</outline>
</glyph>
<glyph name="dollar" format="2">
	<unicode hex="0024"/>
	<advance width="600"/>
	<outline>
		<contour>
			<point x="181" y="-93" type="line"/>
			<point x="276" y="-93" type="line"/>
			<point x="289" y="-11" type="line"/>
			<point x="311" y="-11" type="line" smooth="yes"/>
			<point x="456" y="-11"/>
			<point x="554" y="64"/>
			<point x="554" y="211" type="curve" smooth="yes"/>
			<point x="554" y="337"/>
			<point x="463" y="373"/>
			<point x="353" y="394" type="curve"/>
			<point x="384" y="587" type="line"/>
			<point x="439" y="576"/>
			<point x="493" y="555"/>
			<point x="535" y="524" type="curve"/>
			<point x="535" y="634" type="line"/>
			<point x="504" y="655"/>
			<point x="459" y="673"/>
			<point x="405" y="684" type="curve"/>
			<point x="419" y="774" type="line"/>
			<point x="324" y="774" type="line"/>
			<point x="311" y="695" type="line"/>
			<point x="300" y="695" type="line" smooth="yes"/>
			<point x="150" y="695"/>
			<point x="48" y="621"/>
			<point x="48" y="481" type="curve" smooth="yes"/>
			<point x="48" y="349"/>
			<point x="133" y="312"/>
			<point x="247" y="291" type="curve"/>
			<point x="216" y="103" type="line"/>
			<point x="160" y="117"/>
			<point x="106" y="143"/>
			<point x="58" y="180" type="curve"/>
			<point x="58" y="64" type="line"/>
			<point x="97" y="36"/>
			<point x="141" y="15"/>
			<point x="195" y="2" type="curve"/>
		</contour>
		<contour>
			<point x="171" y="495" type="curve" smooth="yes"/>
			<point x="171" y="564"/>
			<point x="224" y="596"/>
			<point x="296" y="596" type="curve" smooth="yes"/>
			<point x="297" y="596" type="line"/>
			<point x="267" y="409" type="line"/>
			<point x="208" y="421"/>
			<point x="171" y="440"/>
		</contour>
		<contour>
			<point x="430" y="192" type="curve" smooth="yes"/>
			<point x="430" y="123"/>
			<point x="383" y="91"/>
			<point x="311" y="91" type="curve" smooth="yes"/>
			<point x="303" y="91" type="line"/>
			<point x="333" y="277" type="line"/>
			<point x="393" y="265"/>
			<point x="430" y="246"/>
		</contour>
	</outline>
</glyph>
<glyph name="ampersand" format="2">
	<unicode hex="0026"/>
	<advance width="600"/>
	<outline>
		<contour>
			<point x="223" y="-14" type="curve" smooth="yes"/>
			<point x="298" y="-14"/>
			<point x="360" y="11"/>
			<point x="410" y="54" type="curve"/>
			<point x="456" y="0" type="line"/>
			<point x="611" y="0" type="line"/>
			<point x="487" y="146" type="line"/>
			<point x="529" y="216"/>
			<point x="557" y="304"/>
			<point x="571" y="398" type="curve"/>
			<point x="455" y="398" type="line"/>
			<point x="446" y="338"/>
			<point x="432" y="282"/>
			<point x="412" y="235" type="curve"/>
			<point x="282" y="389" type="line" smooth="yes"/>
			<point x="247" y="431"/>
			<point x="220" y="462"/>
			<point x="220" y="509" type="curve" smooth="yes"/>
			<point x="220" y="563"/>
			<point x="255" y="595"/>
			<point x="318" y="596" type="curve" smooth="yes"/>
			<point x="380" y="596"/>
			<point x="435" y="574"/>
			<point x="486" y="542" type="curve"/>
			<point x="486" y="652" type="line"/>
			<point x="439" y="679"/>
			<point x="380" y="698"/>
			<point x="310" y="698" type="curve" smooth="yes"/>
			<point x="172" y="698"/>
			<point x="99" y="610"/>
			<point x="99" y="506" type="curve" smooth="yes"/>
			<point x="99" y="462"/>
			<point x="110" y="429"/>
			<point x="128" y="398" type="curve"/>
			<point x="59" y="355"/>
			<point x="11" y="283"/>
			<point x="11" y="186" type="curve" smooth="yes"/>
			<point x="11" y="61"/>
			<point x="93" y="-14"/>
		</contour>
		<contour>
			<point x="131" y="203" type="curve" smooth="yes"/>
			<point x="131" y="257"/>
			<point x="154" y="294"/>
			<point x="187" y="318" type="curve"/>
			<point x="345" y="131" type="line"/>
			<point x="316" y="104"/>
			<point x="282" y="88"/>
			<point x="242" y="88" type="curve" smooth="yes"/>
			<point x="171" y="88"/>
			<point x="131" y="133"/>
		</contour>
	</outline>
</glyph>
<glyph name="parenright" format="2">
	<unicode hex="0029"/>
	<advance width="600"/>
	<outline>
		<contour>
			<point x="94" y="-67" type="curve"/>
			<point x="132" y="-168" type="line"/>
			<point x="365" y="-85"/>
			<point x="448" y="70"/>
			<point x="448" y="316" type="curve" smooth="yes"/>
			<point x="448" y="559"/>
			<point x="360" y="715"/>
			<point x="132" y="798" type="curve"/>
			<point x="94" y="696" type="line"/>
			<point x="276" y="636"/>
			<point x="332" y="501"/>
			<point x="332" y="314" type="curve" smooth="yes"/>
			<point x="332" y="128"/>
			<point x="277" y="0"/>
		</contour>
	</outline>
</glyph>
<glyph name="plus" format="2">
	<unicode hex="002B"/>
	<advance width="600"/>
	<outline>
		<contour>
			<point x="245" y="529" type="line"/>
			<point x="245" y="350" type="line"/>
			<point x="69" y="350" type="line"/>
			<point x="69" y="244" type="line"/>
			<point x="245" y="244" type="line"/>
			<point x="245" y="65" type="line"/>
			<point x="355" y="65" type="line"/>
			<point x="355" y="244" type="line"/>
			<point x="531" y="244" type="line"/>
			<point x="531" y="350" type="line"/>
			<point x="355" y="350" type="line"/>
			<point x="355" y="529" type="line"/>
		</contour>
	</outline>
</glyph>
<glyph name="comma" format="2">
	<unicode hex="002C"/>
	<advance width="600"/>
	<outline>
		<contour>
			<point x="244" y="151" type="line"/>
			<point x="193" y="-175" type="line"/>
			<point x="282" y="-175" type="line"/>
			<point x="410" y="151" type="line"/>
		</contour>
	</outline>
</glyph>
<glyph name="hyphen" format="2">
	<unicode hex="002D"/>
	<advance width="600"/>
	<outline>
		<contour>
			<point x="478" y="353" type="line"/>
			<point x="122" y="353" type="line"/>
			<point x="122" y="241" type="line"/>
			<point x="478" y="241" type="line"/>
		</contour>
	</outline>
</glyph>
<glyph name="two" format="2">
	<unicode hex="0032"/>
	<advance width="600"/>
	<outline>
		<contour>
			<point x="65" y="0" type="line"/>
			<point x="532" y="0" type="line"/>
			<point x="532" y="112" type="line"/>
			<point x="247" y="112" type="line"/>
			<point x="318" y="164" type="line" smooth="yes"/>
			<point x="431" y="246"/>
			<point x="519" y="332"/>
			<point x="519" y="475" type="curve" smooth="yes"/>
			<point x="519" y="603"/>
			<point x="453" y="698"/>
			<point x="290" y="698" type="curve" smooth="yes"/>
			<point x="193" y="698"/>
			<point x="115" y="662"/>
			<point x="67" y="623" type="curve"/>
			<point x="67" y="505" type="line"/>
			<point x="127" y="558"/>
			<point x="193" y="590"/>
			<point x="264" y="590" type="curve" smooth="yes"/>
			<point x="353" y="590"/>
			<point x="389" y="540"/>
			<point x="389" y="463" type="curve" smooth="yes"/>
			<point x="389" y="352"/>
			<point x="306" y="285"/>
			<point x="200" y="203" type="curve" smooth="yes"/>
			<point x="65" y="97" type="line"/>
		</contour>
	</outline>
</glyph>
<glyph name="three" format="2">
	<unicode hex="0033"/>
	<advance width="600"/>
	<outline>
		<contour>
			<point x="283" y="-14" type="curve" smooth="yes"/>
			<point x="441" y="-14"/>
			<point x="534" y="80"/>
			<point x="534" y="220" type="curve" smooth="yes"/>
			<point x="534" y="344"/>
			<point x="466" y="412"/>
			<point x="330" y="415" type="curve"/>
			<point x="523" y="580" type="line"/>
			<point x="523" y="684" type="line"/>
			<point x="65" y="684" type="line"/>
			<point x="65" y="580" type="line"/>
			<point x="367" y="580" type="line"/>
			<point x="149" y="384" type="line"/>
			<point x="149" y="302" type="line"/>
			<point x="179" y="314"/>
			<point x="217" y="322"/>
			<point x="267" y="322" type="curve" smooth="yes"/>
			<point x="359" y="322"/>
			<point x="406" y="290"/>
			<point x="406" y="215" type="curve" smooth="yes"/>
			<point x="406" y="144"/>
			<point x="363" y="91"/>
			<point x="272" y="91" type="curve" smooth="yes"/>
			<point x="206" y="91"/>
			<point x="133" y="115"/>
			<point x="63" y="166" type="curve"/>
			<point x="63" y="52" type="line"/>
			<point x="109" y="20"/>
			<point x="179" y="-14"/>
		</contour>
	</outline>
</glyph>
<glyph name="four" format="2">
	<unicode hex="0034"/>
	<advance width="600"/>
	<outline>
		<contour>
			<point x="358" y="0" type="line"/>
			<point x="483" y="0" type="line"/>
			<point x="483" y="139" type="line"/>
			<point x="554" y="139" type="line"/>
			<point x="554" y="241" type="line"/>
			<point x="483" y="241" type="line"/>
			<point x="483" y="686" type="line"/>
			<point x="297" y="686" type="line"/>
			<point x="31" y="243" type="line"/>
			<point x="31" y="140" type="line"/>
			<point x="358" y="140" type="line"/>
		</contour>
		<contour>
			<point x="150" y="241" type="line"/>
			<point x="358" y="593" type="line"/>
			<point x="358" y="241" type="line"/>
		</contour>
	</outline>
</glyph>
<glyph name="five" format="2">
	<unicode hex="0035"/>
	<advance width="600"/>
	<outline>
		<contour>
			<point x="290" y="-14" type="curve" smooth="yes"/>
			<point x="438" y="-14"/>
			<point x="534" y="78"/>
			<point x="534" y="223" type="curve" smooth="yes"/>
			<point x="534" y="356"/>
			<point x="461" y="423"/>
			<point x="318" y="423" type="curve" smooth="yes"/>
			<point x="275" y="423"/>
			<point x="240" y="419"/>
			<point x="207" y="411" type="curve"/>
			<point x="208" y="580" type="line"/>
			<point x="519" y="580" type="line"/>
			<point x="519" y="684" type="line"/>
			<point x="92" y="684" type="line"/>
			<point x="92" y="294" type="line"/>
			<point x="143" y="313"/>
			<point x="198" y="326"/>
			<point x="264" y="326" type="curve" smooth="yes"/>
			<point x="367" y="326"/>
			<point x="406" y="285"/>
			<point x="406" y="215" type="curve" smooth="yes"/>
			<point x="406" y="139"/>
			<point x="362" y="91"/>
			<point x="278" y="91" type="curve" smooth="yes"/>
			<point x="217" y="91"/>
			<point x="141" y="112"/>
			<point x="67" y="168" type="curve"/>
			<point x="67" y="55" type="line"/>
			<point x="117" y="16"/>
			<point x="187" y="-14"/>
		</contour>
	</outline>
</glyph>
<glyph name="six" format="2">
	<unicode hex="0036"/>
	<advance width="600"/>
	<outline>
		<contour>
			<point x="303" y="-14" type="curve" smooth="yes"/>
			<point x="466" y="-14"/>
			<point x="552" y="94"/>
			<point x="552" y="242" type="curve" smooth="yes"/>
			<point x="552" y="365"/>
			<point x="494" y="450"/>
			<point x="359" y="450" type="curve" smooth="yes"/>
			<point x="281" y="450"/>
			<point x="219" y="415"/>
			<point x="180" y="336" type="curve"/>
			<point x="185" y="506"/>
			<point x="217" y="595"/>
			<point x="359" y="595" type="curve" smooth="yes"/>
			<point x="421" y="595"/>
			<point x="499" y="572"/>
			<point x="537" y="541" type="curve"/>
			<point x="537" y="649" type="line"/>
			<point x="499" y="676"/>
			<point x="418" y="698"/>
			<point x="345" y="698" type="curve" smooth="yes"/>
			<point x="109" y="698"/>
			<point x="45" y="523"/>
			<point x="45" y="323" type="curve" smooth="yes"/>
			<point x="45" y="309" type="line" smooth="yes"/>
			<point x="45" y="119"/>
			<point x="101" y="-14"/>
		</contour>
		<contour>
			<point x="303" y="87" type="curve" smooth="yes"/>
			<point x="225" y="87"/>
			<point x="178" y="139"/>
			<point x="178" y="229" type="curve" smooth="yes"/>
			<point x="178" y="310"/>
			<point x="227" y="358"/>
			<point x="305" y="358" type="curve" smooth="yes"/>
			<point x="383" y="358"/>
			<point x="423" y="317"/>
			<point x="423" y="229" type="curve" smooth="yes"/>
			<point x="423" y="133"/>
			<point x="376" y="87"/>
		</contour>
	</outline>
</glyph>
<glyph name="nine" format="2">
	<unicode hex="0039"/>
	<advance width="600"/>
	<outline>
		<contour>
			<point x="260" y="-14" type="curve" smooth="yes"/>
			<point x="492" y="-14"/>
			<point x="555" y="163"/>
			<point x="555" y="365" type="curve" smooth="yes"/>
			<point x="555" y="376" type="line" smooth="yes"/>
			<point x="555" y="568"/>
			<point x="499" y="698"/>
			<point x="299" y="698" type="curve" smooth="yes"/>
			<point x="137" y="698"/>
			<point x="48" y="591"/>
			<point x="48" y="448" type="curve" smooth="yes"/>
			<point x="48" y="320"/>
			<point x="109" y="230"/>
			<point x="248" y="230" type="curve" smooth="yes"/>
			<point x="324" y="230"/>
			<point x="384" y="267"/>
			<point x="420" y="346" type="curve"/>
			<point x="417" y="174"/>
			<point x="381" y="90"/>
			<point x="245" y="90" type="curve" smooth="yes"/>
			<point x="182" y="90"/>
			<point x="104" y="119"/>
			<point x="63" y="154" type="curve"/>
			<point x="63" y="41" type="line"/>
			<point x="104" y="12"/>
			<point x="183" y="-14"/>
		</contour>
		<contour>
			<point x="295" y="326" type="curve" smooth="yes"/>
			<point x="218" y="326"/>
			<point x="177" y="368"/>
			<point x="177" y="456" type="curve" smooth="yes"/>
			<point x="177" y="551"/>
			<point x="224" y="597"/>
			<point x="300" y="597" type="curve" smooth="yes"/>
			<point x="380" y="597"/>
			<point x="422" y="542"/>
			<point x="422" y="455" type="curve" smooth="yes"/>
			<point x="421" y="375"/>
			<point x="374" y="326"/>
		</contour>
	</outline>
</glyph>
<glyph name="question" format="2">
	<unicode hex="003F"/>
	<advance width="600"/>
	<outline>
		<contour>
			<point x="212" y="219" type="curve"/>
			<point x="322" y="219" type="line"/>
			<point x="322" y="253" type="line" smooth="yes"/>
			<point x="325" y="356"/>
			<point x="507" y="375"/>
			<point x="507" y="536" type="curve" smooth="yes"/>
			<point x="507" y="629"/>
			<point x="439" y="698"/>
			<point x="297" y="698" type="curve" smooth="yes"/>
			<point x="201" y="698"/>
			<point x="132" y="666"/>
			<point x="95" y="643" type="curve"/>
			<point x="95" y="532" type="line"/>
			<point x="137" y="562"/>
			<point x="199" y="590"/>
			<point x="271" y="590" type="curve" smooth="yes"/>
			<point x="348" y="590"/>
			<point x="381" y="558"/>
			<point x="381" y="514" type="curve" smooth="yes"/>
			<point x="381" y="414"/>
			<point x="207" y="403"/>
			<point x="207" y="257" type="curve" smooth="yes"/>
			<point x="207" y="243"/>
			<point x="208" y="233"/>
		</contour>
		<contour>
			<point x="267" y="-12" type="curve" smooth="yes"/>
			<point x="323" y="-12"/>
			<point x="352" y="9"/>
			<point x="352" y="64" type="curve" smooth="yes"/>
			<point x="352" y="118"/>
			<point x="324" y="140"/>
			<point x="267" y="140" type="curve" smooth="yes"/>
			<point x="210" y="140"/>
			<point x="182" y="118"/>
			<point x="182" y="64" type="curve" smooth="yes"/>
			<point x="182" y="9"/>
			<point x="211" y="-12"/>
		</contour>
	</outline>
</glyph>
<glyph name="at" format="2">
	<unicode hex="0040"/>
	<advance width="600"/>
	<outline>
		<contour>
			<point x="375" y="-135" type="curve" smooth="yes"/>
			<point x="452" y="-135"/>
			<point x="512" y="-114"/>
			<point x="551" y="-90" type="curve"/>
			<point x="551" y="3" type="line"/>
			<point x="506" y="-22"/>
			<point x="453" y="-37"/>
			<point x="377" y="-37" type="curve" smooth="yes"/>
			<point x="202" y="-37"/>
			<point x="143" y="89"/>
			<point x="143" y="281" type="curve" smooth="yes"/>
			<point x="143" y="288" type="line" smooth="yes"/>
			<point x="143" y="496"/>
			<point x="197" y="601"/>
			<point x="318" y="601" type="curve" smooth="yes"/>
			<point x="415" y="601"/>
			<point x="446" y="551"/>
			<point x="446" y="454" type="curve" smooth="yes"/>
			<point x="446" y="401" type="line"/>
			<point x="429" y="455"/>
			<point x="392" y="491"/>
			<point x="340" y="491" type="curve" smooth="yes"/>
			<point x="257" y="491"/>
			<point x="197" y="415"/>
			<point x="197" y="275" type="curve" smooth="yes"/>
			<point x="197" y="143"/>
			<point x="247" y="62"/>
			<point x="336" y="62" type="curve" smooth="yes"/>
			<point x="394" y="62"/>
			<point x="429" y="100"/>
			<point x="446" y="158" type="curve"/>
			<point x="446" y="66" type="line"/>
			<point x="551" y="66" type="line"/>
			<point x="551" y="461" type="line" smooth="yes"/>
			<point x="551" y="619"/>
			<point x="486" y="698"/>
			<point x="322" y="698" type="curve" smooth="yes"/>
			<point x="129" y="698"/>
			<point x="35" y="548"/>
			<point x="35" y="292" type="curve" smooth="yes"/>
			<point x="35" y="278" type="line" smooth="yes"/>
			<point x="35" y="-1"/>
			<point x="150" y="-135"/>
		</contour>
		<contour>
			<point x="375" y="147" type="curve" smooth="yes"/>
			<point x="326" y="147"/>
			<point x="301" y="190"/>
			<point x="301" y="277" type="curve" smooth="yes"/>
			<point x="301" y="363"/>
			<point x="326" y="407"/>
			<point x="375" y="407" type="curve" smooth="yes"/>
			<point x="419" y="407"/>
			<point x="449" y="359"/>
			<point x="449" y="274" type="curve" smooth="yes"/>
			<point x="449" y="185"/>
			<point x="421" y="147"/>
		</contour>
	</outline>
</glyph>
<glyph name="A" format="2">
	<unicode hex="0041"/>
	<advance width="600"/>
	<outline>
		<contour>
			<point x="15" y="0" type="line"/>
			<point x="145" y="0" type="line"/>
			<point x="184" y="153" type="line"/>
			<point x="414" y="153" type="line"/>
			<point x="454" y="0" type="line"/>
			<point x="585" y="0" type="line"/>
			<point x="388" y="686" type="line"/>
			<point x="211" y="686" type="line"/>
		</contour>
		<contour>
			<point x="211" y="257" type="line"/>
			<point x="298" y="595" type="line"/>
			<point x="387" y="257" type="line"/>
		</contour>
	</outline>
	<anchor name="ogonek" x="585" y="0"/>
	<anchor name="bottom" x="331" y="0"/>
	<anchor name="top" x="300" y="684"/>
</glyph>
<glyph name="B" format="2">
	<unicode hex="0042"/>
	<advance width="600"/>
	<outline>
		<contour>
			<point x="348" y="686" type="curve" smooth="yes"/>
			<point x="67" y="686" type="line"/>
			<point x="67" y="0" type="line"/>
			<point x="345" y="0" type="line" smooth="yes"/>
			<point x="484" y="0"/>
			<point x="559" y="82"/>
			<point x="559" y="188" type="curve" smooth="yes"/>
			<point x="559" y="283"/>
			<point x="507" y="338"/>
			<point x="405" y="352" type="curve"/>
			<point x="493" y="370"/>
			<point x="548" y="427"/>
			<point x="548" y="514" type="curve" smooth="yes"/>
			<point x="548" y="621"/>
			<point x="482" y="686"/>
		</contour>
		<contour>
			<point x="318" y="586" type="line" smooth="yes"/>
			<point x="390" y="586"/>
			<point x="419" y="549"/>
			<point x="419" y="493" type="curve" smooth="yes"/>
			<point x="419" y="437"/>
			<point x="385" y="395"/>
			<point x="318" y="395" type="curve" smooth="yes"/>
			<point x="193" y="395" type="line"/>
			<point x="193" y="586" type="line"/>
		</contour>
		<contour>
			<point x="316" y="296" type="line" smooth="yes"/>
			<point x="395" y="296"/>
			<point x="426" y="255"/>
			<point x="426" y="201" type="curve" smooth="yes"/>
			<point x="426" y="147"/>
			<point x="402" y="102"/>
			<point x="317" y="102" type="curve" smooth="yes"/>
			<point x="193" y="102" type="line"/>
			<point x="193" y="296" type="line"/>
		</contour>
	</outline>
	<anchor name="top" x="303" y="684"/>
	<anchor name="bottom" x="318" y="0"/>
</glyph>
<glyph name="C" format="2">
	<unicode hex="0043"/>
	<advance width="600"/>
	<outline>
		<contour>
			<point x="379" y="-12" type="curve" smooth="yes"/>
			<point x="448" y="-12"/>
			<point x="499" y="0"/>
			<point x="543" y="28" type="curve"/>
			<point x="543" y="131" type="line"/>
			<point x="496" y="103"/>
			<point x="439" y="95"/>
			<point x="395" y="95" type="curve" smooth="yes"/>
			<point x="266" y="95"/>
			<point x="185" y="172"/>
			<point x="185" y="339" type="curve" smooth="yes"/>
			<point x="185" y="346" type="line" smooth="yes"/>
			<point x="185" y="512"/>
			<point x="265" y="590"/>
			<point x="401" y="590" type="curve" smooth="yes"/>
			<point x="452" y="590"/>
			<point x="498" y="580"/>
			<point x="541" y="557" type="curve"/>
			<point x="541" y="666" type="line"/>
			<point x="501" y="684"/>
			<point x="449" y="696"/>
			<point x="381" y="696" type="curve" smooth="yes"/>
			<point x="189" y="696"/>
			<point x="53" y="572"/>
			<point x="53" y="350" type="curve" smooth="yes"/>
			<point x="53" y="336" type="line" smooth="yes"/>
			<point x="53" y="109"/>
			<point x="175" y="-12"/>
		</contour>
	</outline>
	<anchor name="top" x="372" y="684"/>
	<anchor name="bottom" x="360" y="0"/>
</glyph>
<glyph name="F" format="2">
	<unicode hex="0046"/>
	<advance width="600"/>
	<outline>
		<contour>
			<point x="86" y="0" type="line"/>
			<point x="213" y="0" type="line"/>
			<point x="213" y="281" type="line"/>
			<point x="507" y="281" type="line"/>
			<point x="507" y="385" type="line"/>
			<point x="213" y="385" type="line"/>
			<point x="213" y="580" type="line"/>
			<point x="546" y="580" type="line"/>
			<point x="546" y="684" type="line"/>
			<point x="86" y="684" type="line"/>
		</contour>
	</outline>
	<anchor name="ogonek" x="569" y="0"/>
	<anchor name="bottom" x="330" y="0"/>
	<anchor name="top" x="321" y="684"/>
</glyph>
<glyph name="I" format="2">
	<unicode hex="0049"/>
	<advance width="600"/>
	<outline>
		<contour>
			<point x="75" y="0" type="line"/>
			<point x="525" y="0" type="line"/>
			<point x="525" y="101" type="line"/>
			<point x="364" y="101" type="line"/>
			<point x="364" y="584" type="line"/>
			<point x="525" y="584" type="line"/>
			<point x="525" y="684" type="line"/>
			<point x="75" y="684" type="line"/>
			<point x="75" y="584" type="line"/>
			<point x="236" y="584" type="line"/>
			<point x="236" y="101" type="line"/>
			<point x="75" y="101" type="line"/>
		</contour>
	</outline>
	<anchor name="ogonek" x="525" y="0"/>
	<anchor name="bottom" x="301" y="0"/>
	<anchor name="top" x="300" y="684"/>
</glyph>
<glyph name="J" format="2">
	<unicode hex="004A"/>
	<advance width="600"/>
	<outline>
		<contour>
			<point x="254" y="-12" type="curve" smooth="yes"/>
			<point x="405" y="-12"/>
			<point x="513" y="53"/>
			<point x="513" y="225" type="curve" smooth="yes"/>
			<point x="513" y="684" type="line"/>
			<point x="79" y="684" type="line"/>
			<point x="79" y="575" type="line"/>
			<point x="386" y="575" type="line"/>
			<point x="386" y="241" type="line" smooth="yes"/>
			<point x="386" y="138"/>
			<point x="333" y="94"/>
			<point x="233" y="94" type="curve" smooth="yes"/>
			<point x="179" y="94"/>
			<point x="123" y="107"/>
			<point x="79" y="128" type="curve"/>
			<point x="78" y="21" type="line"/>
			<point x="125" y="0"/>
			<point x="179" y="-12"/>
		</contour>
	</outline>
	<anchor name="top" x="303" y="684"/>
	<anchor name="bottom" x="84" y="0"/>
</glyph>
<glyph name="L" format="2">
	<unicode hex="004C"/>
	<advance width="600"/>
	<outline>
		<contour>
			<point x="89" y="0" type="line"/>
			<point x="548" y="0" type="line"/>
			<point x="548" y="116" type="line"/>
			<point x="217" y="116" type="line"/>
			<point x="217" y="684" type="line"/>
			<point x="89" y="684" type="line"/>
		</contour>
	</outline>
	<anchor name="bottom" x="323" y="0"/>
	<anchor name="caron" x="336" y="684"/>
	<anchor name="top" x="153" y="684"/>
	<anchor name="center" x="154" y="334"/>
</glyph>
<glyph name="M" format="2">
	<unicode hex="004D"/>
	<advance width="600"/>
	<outline>
		<contour>
			<point x="45" y="0" type="line"/>
			<point x="160" y="0" type="line"/>
			<point x="160" y="251" type="line" smooth="yes"/>
			<point x="160" y="345"/>
			<point x="157" y="451"/>
			<point x="147" y="540" type="curve"/>
			<point x="155" y="540" type="line"/>
			<point x="243" y="164" type="line"/>
			<point x="357" y="164" type="line"/>
			<point x="443" y="540" type="line"/>
			<point x="454" y="540" type="line"/>
			<point x="441" y="449"/>
			<point x="440" y="352"/>
			<point x="440" y="252" type="curve" smooth="yes"/>
			<point x="440" y="0" type="line"/>
			<point x="555" y="0" type="line"/>
			<point x="555" y="684" type="line"/>
			<point x="379" y="684" type="line"/>
			<point x="303" y="307" type="line"/>
			<point x="298" y="307" type="line"/>
			<point x="220" y="684" type="line"/>
			<point x="45" y="684" type="line"/>
		</contour>
	</outline>
</glyph>
<glyph name="U" format="2">
	<unicode hex="0055"/>
	<advance width="600"/>
	<outline>
		<contour>
			<point x="295" y="-14" type="curve" smooth="yes"/>
			<point x="458" y="-14"/>
			<point x="538" y="75"/>
			<point x="538" y="241" type="curve" smooth="yes"/>
			<point x="538" y="684" type="line"/>
			<point x="412" y="684" type="line"/>
			<point x="412" y="241" type="line" smooth="yes"/>
			<point x="412" y="149"/>
			<point x="377" y="93"/>
			<point x="300" y="93" type="curve" smooth="yes"/>
			<point x="223" y="93"/>
			<point x="188" y="149"/>
			<point x="188" y="241" type="curve" smooth="yes"/>
			<point x="188" y="684" type="line"/>
			<point x="62" y="684" type="line"/>
			<point x="62" y="241" type="line" smooth="yes"/>
			<point x="62" y="74"/>
			<point x="135" y="-14"/>
		</contour>
	</outline>
	<anchor name="ogonek" x="395" y="0"/>
	<anchor name="bottom" x="287" y="0"/>
	<anchor name="top" x="300" y="684"/>
</glyph>
<glyph name="V" format="2">
	<unicode hex="0056"/>
	<advance width="600"/>
	<outline>
		<contour>
			<point x="209" y="-1" type="line"/>
			<point x="391" y="-1" type="line"/>
			<point x="580" y="684" type="line"/>
			<point x="448" y="684" type="line"/>
			<point x="300" y="110" type="line"/>
			<point x="152" y="684" type="line"/>
			<point x="20" y="684" type="line"/>
		</contour>
	</outline>
	<anchor name="overlap" x="310" y="684"/>
	<anchor name="ogonek" x="605" y="0"/>
	<anchor name="top" x="312" y="684"/>
	<anchor name="bottom" x="316" y="0"/>
</glyph>
<glyph name="X" format="2">
	<unicode hex="0058"/>
	<advance width="600"/>
	<outline>
		<contour>
			<point x="20" y="0" type="line"/>
			<point x="163" y="0" type="line"/>
			<point x="298" y="268" type="line"/>
			<point x="437" y="0" type="line"/>
			<point x="580" y="0" type="line"/>
			<point x="384" y="359" type="line"/>
			<point x="566" y="684" type="line"/>
			<point x="423" y="684" type="line"/>
			<point x="300" y="451" type="line"/>
			<point x="175" y="684" type="line"/>
			<point x="34" y="684" type="line"/>
			<point x="217" y="361" type="line"/>
		</contour>
	</outline>
	<anchor name="top" x="314" y="684"/>
	<anchor name="bottom" x="320" y="0"/>
</glyph>
<glyph name="bracketleft" format="2">
	<unicode hex="005B"/>
	<advance width="600"/>
	<outline>
		<contour>
			<point x="495" y="-72" type="line"/>
			<point x="295" y="-72" type="line"/>
			<point x="295" y="701" type="line"/>
			<point x="495" y="701" type="line"/>
			<point x="495" y="792" type="line"/>
			<point x="178" y="792" type="line"/>
			<point x="178" y="-163" type="line"/>
			<point x="495" y="-163" type="line"/>
		</contour>
	</outline>
</glyph>
<glyph name="bracketright" format="2">
	<unicode hex="005D"/>
	<advance width="600"/>
	<outline>
		<contour>
			<point x="105" y="-163" type="line"/>
			<point x="422" y="-163" type="line"/>
			<point x="422" y="792" type="line"/>
			<point x="105" y="792" type="line"/>
			<point x="105" y="701" type="line"/>
			<point x="305" y="701" type="line"/>
			<point x="305" y="-72" type="line"/>
			<point x="105" y="-72" type="line"/>
		</contour>
	</outline>
</glyph>
<glyph name="asciicircum" format="2">
	<unicode hex="005E"/>
	<advance width="600"/>
	<outline>
		<contour>
			<point x="65" y="233" type="line"/>
			<point x="177" y="233" type="line"/>
			<point x="300" y="485" type="line"/>
			<point x="423" y="233" type="line"/>
			<point x="535" y="233" type="line"/>
			<point x="356" y="581" type="line"/>
			<point x="241" y="581" type="line"/>
		</contour>
	</outline>
</glyph>
<glyph name="f" format="2">
	<unicode hex="0066"/>
	<advance width="600"/>
	<outline>
		<contour>
			<point x="52" y="0" type="line"/>
			<point x="526" y="0" type="line"/>
			<point x="526" y="99" type="line"/>
			<point x="335" y="99" type="line"/>
			<point x="335" y="424" type="line"/>
			<point x="530" y="424" type="line"/>
			<point x="530" y="523" type="line"/>
			<point x="335" y="523" type="line"/>
			<point x="335" y="590" type="line" smooth="yes"/>
			<point x="335" y="644"/>
			<point x="369" y="665"/>
			<point x="426" y="665" type="curve" smooth="yes"/>
			<point x="462" y="665"/>
			<point x="504" y="658"/>
			<point x="525" y="647" type="curve"/>
			<point x="525" y="738" type="line"/>
			<point x="500" y="750"/>
			<point x="455" y="760"/>
			<point x="398" y="760" type="curve" smooth="yes"/>
			<point x="289" y="760"/>
			<point x="210" y="714"/>
			<point x="210" y="600" type="curve" smooth="yes"/>
			<point x="210" y="523" type="line"/>
			<point x="55" y="523" type="line"/>
			<point x="55" y="424" type="line"/>
			<point x="210" y="424" type="line"/>
			<point x="210" y="99" type="line"/>
			<point x="52" y="99" type="line"/>
		</contour>
	</outline>
</glyph>
<glyph name="i" format="2">
	<unicode hex="0069"/>
	<advance width="600"/>
	<outline>
		<contour>
			<point x="319" y="616" type="curve" smooth="yes"/>
			<point x="378" y="616"/>
			<point x="400" y="637"/>
			<point x="400" y="683" type="curve" smooth="yes"/>
			<point x="400" y="727"/>
			<point x="376" y="749"/>
			<point x="319" y="749" type="curve" smooth="yes"/>
			<point x="264" y="749"/>
			<point x="239" y="728"/>
			<point x="239" y="683" type="curve" smooth="yes"/>
			<point x="239" y="637"/>
			<point x="261" y="616"/>
		</contour>
		<contour>
			<point x="78" y="0" type="line"/>
			<point x="552" y="0" type="line"/>
			<point x="552" y="99" type="line"/>
			<point x="383" y="99" type="line"/>
			<point x="383" y="523" type="line"/>
			<point x="79" y="523" type="line"/>
			<point x="79" y="424" type="line"/>
			<point x="258" y="424" type="line"/>
			<point x="258" y="99" type="line"/>
			<point x="78" y="99" type="line"/>
		</contour>
	</outline>
	<anchor name="ogonek" x="549" y="0"/>
</glyph>
<glyph name="j" format="2">
	<unicode hex="006A"/>
	<advance width="600"/>
	<outline>
		<contour>
			<point x="407" y="616" type="curve" smooth="yes"/>
			<point x="466" y="616"/>
			<point x="487" y="637"/>
			<point x="487" y="683" type="curve" smooth="yes"/>
			<point x="487" y="727"/>
			<point x="464" y="749"/>
			<point x="407" y="749" type="curve" smooth="yes"/>
			<point x="352" y="749"/>
			<point x="327" y="728"/>
			<point x="327" y="683" type="curve" smooth="yes"/>
			<point x="327" y="637"/>
			<point x="349" y="616"/>
		</contour>
		<contour>
			<point x="221" y="-204" type="curve" smooth="yes"/>
			<point x="357" y="-204"/>
			<point x="471" y="-159"/>
			<point x="471" y="11" type="curve" smooth="yes"/>
			<point x="471" y="523" type="line"/>
			<point x="79" y="523" type="line"/>
			<point x="79" y="424" type="line"/>
			<point x="346" y="424" type="line"/>
			<point x="346" y="24" type="line" smooth="yes"/>
			<point x="346" y="-71"/>
			<point x="303" y="-102"/>
			<point x="201" y="-102" type="curve" smooth="yes"/>
			<point x="151" y="-102"/>
			<point x="107" y="-93"/>
			<point x="79" y="-83" type="curve"/>
			<point x="79" y="-181" type="line"/>
			<point x="110" y="-195"/>
			<point x="168" y="-204"/>
		</contour>
	</outline>
</glyph>
<glyph name="k" format="2">
	<unicode hex="006B"/>
	<advance width="600"/>
	<outline>
		<contour>
			<point x="89" y="0" type="line"/>
			<point x="213" y="0" type="line"/>
			<point x="213" y="129" type="line"/>
			<point x="293" y="230" type="line"/>
			<point x="421" y="0" type="line"/>
			<point x="561" y="0" type="line"/>
			<point x="389" y="307" type="line"/>
			<point x="552" y="524" type="line"/>
			<point x="413" y="524" type="line"/>
			<point x="213" y="254" type="line"/>
			<point x="213" y="750" type="line"/>
			<point x="89" y="750" type="line"/>
		</contour>
	</outline>
	<anchor name="top" x="211" y="523"/>
	<anchor name="bottom" x="312" y="0"/>
</glyph>
<glyph name="l" format="2">
	<unicode hex="006C"/>
	<advance width="600"/>
	<outline>
		<contour>
			<point x="68" y="0" type="line"/>
			<point x="542" y="0" type="line"/>
			<point x="542" y="99" type="line"/>
			<point x="373" y="99" type="line"/>
			<point x="373" y="750" type="line"/>
			<point x="69" y="750" type="line"/>
			<point x="69" y="651" type="line"/>
			<point x="247" y="651" type="line"/>
			<point x="247" y="99" type="line"/>
			<point x="68" y="99" type="line"/>
		</contour>
	</outline>
	<anchor name="bottom" x="310" y="0"/>
	<anchor name="caron" x="473" y="750"/>
	<anchor name="top" x="310" y="731"/>
	<anchor name="center" x="308" y="372"/>
</glyph>
<glyph name="m" format="2">
	<unicode hex="006D"/>
	<advance width="600"/>
	<outline>
		<contour>
			<point x="45" y="0" type="line"/>
			<point x="156" y="0" type="line"/>
			<point x="156" y="363" type="line" smooth="yes"/>
			<point x="156" y="386"/>
			<point x="161" y="406"/>
			<point x="171" y="420" type="curve" smooth="yes"/>
			<point x="179" y="431"/>
			<point x="191" y="438"/>
			<point x="207" y="438" type="curve" smooth="yes"/>
			<point x="235" y="438"/>
			<point x="248" y="415"/>
			<point x="248" y="378" type="curve" smooth="yes"/>
			<point x="248" y="0" type="line"/>
			<point x="353" y="0" type="line"/>
			<point x="353" y="362" type="line"/>
			<point x="353" y="385"/>
			<point x="357" y="406"/>
			<point x="368" y="421" type="curve" smooth="yes"/>
			<point x="376" y="431"/>
			<point x="387" y="438"/>
			<point x="402" y="438" type="curve" smooth="yes"/>
			<point x="435" y="438"/>
			<point x="445" y="415"/>
			<point x="445" y="368" type="curve" smooth="yes"/>
			<point x="445" y="0" type="line"/>
			<point x="556" y="0" type="line"/>
			<point x="556" y="384" type="line" smooth="yes"/>
			<point x="556" y="465"/>
			<point x="538" y="537"/>
			<point x="457" y="537" type="curve" smooth="yes"/>
			<point x="408" y="537"/>
			<point x="373" y="505"/>
			<point x="352" y="442" type="curve"/>
			<point x="345" y="498"/>
			<point x="310" y="536"/>
			<point x="257" y="536" type="curve" smooth="yes"/>
			<point x="200" y="536"/>
			<point x="173" y="498"/>
			<point x="153" y="439" type="curve"/>
			<point x="153" y="523" type="line"/>
			<point x="45" y="523" type="line"/>
		</contour>
	</outline>
	<anchor name="top" x="334" y="523"/>
	<anchor name="bottom" x="292" y="0"/>
</glyph>
<glyph name="u" format="2">
	<unicode hex="0075"/>
	<advance width="600"/>
	<outline>
		<contour>
			<point x="522" y="523" type="line"/>
			<point x="397" y="523" type="line"/>
			<point x="397" y="213" type="line" smooth="yes"/>
			<point x="397" y="187"/>
			<point x="394" y="161"/>
			<point x="382" y="142" type="curve" smooth="yes"/>
			<point x="365" y="110"/>
			<point x="335" y="87"/>
			<point x="290" y="87" type="curve" smooth="yes"/>
			<point x="229" y="87"/>
			<point x="198" y="128"/>
			<point x="198" y="202" type="curve" smooth="yes"/>
			<point x="198" y="523" type="line"/>
			<point x="73" y="523" type="line"/>
			<point x="73" y="176" type="line" smooth="yes"/>
			<point x="73" y="48"/>
			<point x="129" y="-14"/>
			<point x="229" y="-14" type="curve" smooth="yes"/>
			<point x="309" y="-14"/>
			<point x="365" y="34"/>
			<point x="403" y="107" type="curve"/>
			<point x="403" y="0" type="line"/>
			<point x="522" y="0" type="line"/>
		</contour>
	</outline>
	<anchor name="ogonek" x="522" y="0"/>
	<anchor name="bottom" x="308" y="0"/>
	<anchor name="top" x="297" y="523"/>
</glyph>
<glyph name="v" format="2">
	<unicode hex="0076"/>
	<advance width="600"/>
	<outline>
		<contour>
			<point x="47" y="523" type="line"/>
			<point x="214" y="0" type="line"/>
			<point x="385" y="0" type="line"/>
			<point x="553" y="523" type="line"/>
			<point x="423" y="523" type="line"/>
			<point x="303" y="100" type="line"/>
			<point x="179" y="523" type="line"/>
		</contour>
	</outline>
</glyph>
<glyph name="x" format="2">
	<unicode hex="0078"/>
	<advance width="600"/>
	<outline>
		<contour>
			<point x="45" y="0" type="line"/>
			<point x="183" y="0" type="line"/>
			<point x="297" y="191" type="line"/>
			<point x="416" y="0" type="line"/>
			<point x="555" y="0" type="line"/>
			<point x="380" y="276" type="line"/>
			<point x="546" y="523" type="line"/>
			<point x="409" y="523" type="line"/>
			<point x="302" y="355" type="line"/>
			<point x="195" y="523" type="line"/>
			<point x="56" y="523" type="line"/>
			<point x="223" y="272" type="line"/>
		</contour>
	</outline>
	<anchor name="top" x="330" y="523"/>
	<anchor name="bottom" x="334" y="0"/>
</glyph>
<glyph name="z" format="2">
	<unicode hex="007A"/>
	<advance width="600"/>
	<outline>
		<contour>
			<point x="83" y="0" type="line"/>
			<point x="517" y="0" type="line"/>
			<point x="517" y="99" type="line"/>
			<point x="237" y="99" type="line"/>
			<point x="516" y="426" type="line"/>
			<point x="516" y="523" type="line"/>
			<point x="89" y="523" type="line"/>
			<point x="89" y="424" type="line"/>
			<point x="369" y="424" type="line"/>
			<point x="83" y="96" type="line"/>
		</contour>
	</outline>
	<anchor name="top" x="303" y="523"/>
	<anchor name="bottom" x="303" y="0"/>
</glyph>
<glyph name="cent" format="2">
	<unicode hex="00A2"/>
	<advance width="600"/>
	<outline>
		<contour>
			<point x="303" y="-93" type="line"/>
			<point x="397" y="-93" type="line"/>
			<point x="403" y="-10" type="line"/>
			<point x="451" y="-6"/>
			<point x="488" y="7"/>
			<point x="513" y="23" type="curve"/>
			<point x="513" y="119" type="line"/>
			<point x="487" y="105"/>
			<point x="449" y="92"/>
			<point x="407" y="89" type="curve"/>
			<point x="430" y="432" type="line"/>
			<point x="460" y="428"/>
			<point x="490" y="419"/>
			<point x="513" y="405" type="curve"/>
			<point x="513" y="504" type="line"/>
			<point x="494" y="514"/>
			<point x="468" y="523"/>
			<point x="438" y="529" type="curve"/>
			<point x="443" y="615" type="line"/>
			<point x="348" y="615" type="line"/>
			<point x="343" y="534" type="line"/>
			<point x="186" y="524"/>
			<point x="85" y="421"/>
			<point x="85" y="268" type="curve" smooth="yes"/>
			<point x="85" y="255" type="line" smooth="yes"/>
			<point x="85" y="108"/>
			<point x="165" y="11"/>
			<point x="308" y="-8" type="curve"/>
		</contour>
		<contour>
			<point x="213" y="259" type="curve" smooth="yes"/>
			<point x="213" y="266" type="line" smooth="yes"/>
			<point x="213" y="359"/>
			<point x="258" y="415"/>
			<point x="339" y="431" type="curve"/>
			<point x="317" y="98" type="line"/>
			<point x="252" y="119"/>
			<point x="213" y="173"/>
		</contour>
	</outline>
</glyph>
<glyph name="sterling" format="2">
	<unicode hex="00A3"/>
	<advance width="600"/>
	<outline>
		<contour>
			<point x="67" y="101" type="curve"/>
			<point x="67" y="-1" type="line"/>
			<point x="543" y="-1" type="line"/>
			<point x="543" y="105" type="line"/>
			<point x="207" y="105" type="line"/>
			<point x="238" y="129"/>
			<point x="280" y="181"/>
			<point x="271" y="281" type="curve"/>
			<point x="449" y="281" type="line"/>
			<point x="449" y="376" type="line"/>
			<point x="257" y="376" type="line"/>
			<point x="248" y="409"/>
			<point x="234" y="443"/>
			<point x="234" y="479" type="curve" smooth="yes"/>
			<point x="233" y="551"/>
			<point x="273" y="591"/>
			<point x="354" y="591" type="curve" smooth="yes"/>
			<point x="417" y="591"/>
			<point x="486" y="567"/>
			<point x="543" y="530" type="curve"/>
			<point x="543" y="644" type="line"/>
			<point x="494" y="674"/>
			<point x="428" y="698"/>
			<point x="337" y="698" type="curve" smooth="yes"/>
			<point x="197" y="698"/>
			<point x="108" y="619"/>
			<point x="108" y="498" type="curve" smooth="yes"/>
			<point x="108" y="456"/>
			<point x="121" y="411"/>
			<point x="135" y="376" type="curve"/>
			<point x="56" y="376" type="line"/>
			<point x="56" y="281" type="line"/>
			<point x="146" y="281" type="line"/>
			<point x="155" y="189"/>
			<point x="110" y="131"/>
		</contour>
	</outline>
</glyph>
<glyph name="currency" format="2">
	<unicode hex="00A4"/>
	<advance width="600"/>
	<outline>
		<contour>
			<point x="103" y="47" type="line"/>
			<point x="186" y="138" type="line"/>
			<point x="218" y="118"/>
			<point x="257" y="108"/>
			<point x="300" y="108" type="curve" smooth="yes"/>
			<point x="344" y="108"/>
			<point x="384" y="119"/>
			<point x="416" y="140" type="curve"/>
			<point x="501" y="47" type="line"/>
			<point x="569" y="117" type="line"/>
			<point x="481" y="210" type="line"/>
			<point x="500" y="246"/>
			<point x="511" y="289"/>
			<point x="511" y="340" type="curve" smooth="yes"/>
			<point x="511" y="392"/>
			<point x="500" y="436"/>
			<point x="480" y="472" type="curve"/>
			<point x="568" y="567" type="line"/>
			<point x="497" y="633" type="line"/>
			<point x="413" y="542" type="line"/>
			<point x="381" y="562"/>
			<point x="342" y="572"/>
			<point x="300" y="572" type="curve" smooth="yes"/>
			<point x="257" y="572"/>
			<point x="219" y="562"/>
			<point x="186" y="542" type="curve"/>
			<point x="100" y="632" type="line"/>
			<point x="33" y="563" type="line"/>
			<point x="119" y="472" type="line"/>
			<point x="99" y="436"/>
			<point x="88" y="392"/>
			<point x="88" y="340" type="curve" smooth="yes"/>
			<point x="88" y="288"/>
			<point x="99" y="244"/>
			<point x="119" y="209" type="curve"/>
			<point x="31" y="114" type="line"/>
		</contour>
		<contour>
			<point x="300" y="204" type="curve" smooth="yes"/>
			<point x="228" y="204"/>
			<point x="188" y="254"/>
			<point x="188" y="340" type="curve" smooth="yes"/>
			<point x="188" y="426"/>
			<point x="228" y="476"/>
			<point x="300" y="476" type="curve" smooth="yes"/>
			<point x="371" y="476"/>
			<point x="410" y="426"/>
			<point x="410" y="340" type="curve" smooth="yes"/>
			<point x="410" y="254"/>
			<point x="371" y="204"/>
		</contour>
	</outline>
</glyph>
<glyph name="dieresis" format="2">
	<unicode hex="00A8"/>
	<advance width="600"/>
	<outline>
		<contour>
			<point x="404" y="616" type="curve" smooth="yes"/>
			<point x="457" y="616"/>
			<point x="475" y="636"/>
			<point x="475" y="678" type="curve" smooth="yes"/>
			<point x="475" y="719"/>
			<point x="457" y="741"/>
			<point x="404" y="741" type="curve" smooth="yes"/>
			<point x="352" y="741"/>
			<point x="334" y="719"/>
			<point x="334" y="678" type="curve" smooth="yes"/>
			<point x="334" y="636"/>
			<point x="352" y="616"/>
		</contour>
		<contour>
			<point x="196" y="616" type="curve" smooth="yes"/>
			<point x="249" y="616"/>
			<point x="266" y="636"/>
			<point x="266" y="678" type="curve" smooth="yes"/>
			<point x="266" y="719"/>
			<point x="249" y="741"/>
			<point x="196" y="741" type="curve" smooth="yes"/>
			<point x="143" y="741"/>
			<point x="125" y="719"/>
			<point x="125" y="678" type="curve" smooth="yes"/>
			<point x="125" y="636"/>
			<point x="143" y="616"/>
		</contour>
	</outline>
	<anchor name="_top" x="300" y="523"/>
</glyph>
<glyph name="copyright" format="2">
	<unicode hex="00A9"/>
	<advance width="600"/>
	<outline>
		<contour>
			<point x="300" y="104" type="curve" smooth="yes"/>
			<point x="446" y="104"/>
			<point x="561" y="198"/>
			<point x="561" y="374" type="curve" smooth="yes"/>
			<point x="561" y="387" type="line" smooth="yes"/>
			<point x="561" y="561"/>
			<point x="444" y="657"/>
			<point x="300" y="657" type="curve" smooth="yes"/>
			<point x="156" y="657"/>
			<point x="39" y="561"/>
			<point x="39" y="386" type="curve" smooth="yes"/>
			<point x="39" y="372" type="line" smooth="yes"/>
			<point x="39" y="197"/>
			<point x="154" y="104"/>
		</contour>
		<contour>
			<point x="300" y="161" type="curve" smooth="yes"/>
			<point x="174" y="161"/>
			<point x="98" y="241"/>
			<point x="98" y="376" type="curve" smooth="yes"/>
			<point x="98" y="383" type="line" smooth="yes"/>
			<point x="98" y="521"/>
			<point x="176" y="599"/>
			<point x="300" y="599" type="curve" smooth="yes"/>
			<point x="424" y="599"/>
			<point x="502" y="520"/>
			<point x="502" y="384" type="curve" smooth="yes"/>
			<point x="502" y="376" type="line" smooth="yes"/>
			<point x="502" y="240"/>
			<point x="426" y="161"/>
		</contour>
		<contour>
			<point x="318" y="244" type="curve" smooth="yes"/>
			<point x="345" y="244"/>
			<point x="364" y="248"/>
			<point x="378" y="256" type="curve"/>
			<point x="378" y="303" type="line"/>
			<point x="365" y="298"/>
			<point x="346" y="294"/>
			<point x="327" y="294" type="curve" smooth="yes"/>
			<point x="283" y="294"/>
			<point x="251" y="324"/>
			<point x="251" y="381" type="curve" smooth="yes"/>
			<point x="251" y="439"/>
			<point x="284" y="467"/>
			<point x="328" y="467" type="curve" smooth="yes"/>
			<point x="348" y="467"/>
			<point x="367" y="463"/>
			<point x="378" y="459" type="curve"/>
			<point x="378" y="507" type="line"/>
			<point x="366" y="512"/>
			<point x="345" y="517"/>
			<point x="318" y="517" type="curve" smooth="yes"/>
			<point x="243" y="517"/>
			<point x="188" y="467"/>
			<point x="188" y="381" type="curve" smooth="yes"/>
			<point x="188" y="296"/>
			<point x="238" y="244"/>
		</contour>
	</outline>
</glyph>
<glyph name="registered" format="2">
	<unicode hex="00AE"/>
	<advance width="600"/>
	<outline>
		<contour>
			<point x="300" y="104" type="curve" smooth="yes"/>
			<point x="446" y="104"/>
			<point x="561" y="198"/>
			<point x="561" y="373" type="curve" smooth="yes"/>
			<point x="561" y="387" type="line" smooth="yes"/>
			<point x="561" y="561"/>
			<point x="444" y="657"/>
			<point x="300" y="657" type="curve" smooth="yes"/>
			<point x="156" y="657"/>
			<point x="39" y="561"/>
			<point x="39" y="387" type="curve" smooth="yes"/>
			<point x="39" y="373" type="line" smooth="yes"/>
			<point x="39" y="198"/>
			<point x="154" y="104"/>
		</contour>
		<contour>
			<point x="300" y="161" type="curve" smooth="yes"/>
			<point x="174" y="161"/>
			<point x="98" y="241"/>
			<point x="98" y="376" type="curve" smooth="yes"/>
			<point x="98" y="383" type="line" smooth="yes"/>
			<point x="98" y="521"/>
			<point x="176" y="599"/>
			<point x="300" y="599" type="curve" smooth="yes"/>
			<point x="424" y="599"/>
			<point x="502" y="520"/>
			<point x="502" y="384" type="curve" smooth="yes"/>
			<point x="502" y="376" type="line" smooth="yes"/>
			<point x="502" y="240"/>
			<point x="426" y="161"/>
		</contour>
		<contour>
			<point x="203" y="250" type="line"/>
			<point x="261" y="250" type="line"/>
			<point x="261" y="342" type="line"/>
			<point x="296" y="342" type="line" smooth="yes"/>
			<point x="318" y="342"/>
			<point x="325" y="333"/>
			<point x="331" y="315" type="curve" smooth="yes"/>
			<point x="353" y="250" type="line"/>
			<point x="416" y="250" type="line"/>
			<point x="390" y="324" type="line" smooth="yes"/>
			<point x="381" y="352"/>
			<point x="370" y="362"/>
			<point x="349" y="365" type="curve"/>
			<point x="387" y="373"/>
			<point x="409" y="398"/>
			<point x="409" y="437" type="curve" smooth="yes"/>
			<point x="409" y="482"/>
			<point x="382" y="512"/>
			<point x="315" y="512" type="curve" smooth="yes"/>
			<point x="202" y="512" type="line"/>
		</contour>
		<contour>
			<point x="307" y="467" type="line" smooth="yes"/>
			<point x="335" y="467"/>
			<point x="350" y="453"/>
			<point x="350" y="428" type="curve" smooth="yes"/>
			<point x="350" y="404"/>
			<point x="336" y="386"/>
			<point x="306" y="386" type="curve" smooth="yes"/>
			<point x="261" y="386" type="line"/>
			<point x="261" y="467" type="line"/>
		</contour>
	</outline>
</glyph>
<glyph name="degree" format="2">
	<unicode hex="00B0"/>
	<advance width="600"/>
	<outline>
		<contour>
			<point x="303" y="294" type="curve" smooth="yes"/>
			<point x="417" y="294"/>
			<point x="496" y="382"/>
			<point x="496" y="496" type="curve" smooth="yes"/>
			<point x="496" y="612"/>
			<point x="417" y="697"/>
			<point x="303" y="697" type="curve" smooth="yes"/>
			<point x="182" y="697"/>
			<point x="104" y="612"/>
			<point x="104" y="496" type="curve" smooth="yes"/>
			<point x="104" y="382"/>
			<point x="182" y="294"/>
		</contour>
		<contour>
			<point x="300" y="377" type="curve" smooth="yes"/>
			<point x="234" y="377"/>
			<point x="189" y="428"/>
			<point x="189" y="496" type="curve" smooth="yes"/>
			<point x="189" y="564"/>
			<point x="235" y="612"/>
			<point x="300" y="612" type="curve" smooth="yes"/>
			<point x="368" y="612"/>
			<point x="411" y="564"/>
			<point x="411" y="496" type="curve" smooth="yes"/>
			<point x="411" y="428"/>
			<point x="368" y="377"/>
		</contour>
	</outline>
</glyph>
<glyph name="acute" format="2">
	<unicode hex="00B4"/>
	<advance width="600"/>
	<outline>
		<contour>
			<point x="417" y="750" type="line"/>
			<point x="278" y="750" type="line"/>
			<point x="214" y="602" type="line"/>
			<point x="312" y="602" type="line"/>
		</contour>
	</outline>
	<anchor name="_top" x="264" y="523"/>
</glyph>
<glyph name="cedilla" format="2">
	<unicode hex="00B8"/>
	<advance width="600"/>
	<outline>
		<contour>
			<point x="279" y="-226" type="curve" smooth="yes"/>
			<point x="356" y="-226"/>
			<point x="402" y="-190"/>
			<point x="402" y="-125" type="curve" smooth="yes"/>
			<point x="402" y="-78"/>
			<point x="371" y="-47"/>
			<point x="312" y="-45" type="curve"/>
			<point x="334" y="0" type="line"/>
			<point x="267" y="0" type="line"/>
			<point x="226" y="-93" type="line"/>
			<point x="233" y="-91"/>
			<point x="247" y="-90"/>
			<point x="261" y="-90" type="curve" smooth="yes"/>
			<point x="296" y="-90"/>
			<point x="319" y="-98"/>
			<point x="319" y="-125" type="curve" smooth="yes"/>
			<point x="319" y="-152"/>
			<point x="299" y="-163"/>
			<point x="261" y="-163" type="curve" smooth="yes"/>
			<point x="242" y="-163"/>
			<point x="218" y="-158"/>
			<point x="193" y="-147" type="curve"/>
			<point x="193" y="-208" type="line"/>
			<point x="212" y="-218"/>
			<point x="247" y="-226"/>
		</contour>
	</outline>
	<anchor name="_bottom" x="301" y="0"/>
</glyph>
<glyph name="guillemetright" format="2">
	<unicode hex="00BB"/>
	<advance width="600"/>
	<outline>
		<contour>
			<point x="270" y="77" type="line"/>
			<point x="400" y="77" type="line"/>
			<point x="554" y="287" type="line"/>
			<point x="400" y="497" type="line"/>
			<point x="270" y="497" type="line"/>
			<point x="425" y="288" type="line"/>
		</contour>
		<contour>
			<point x="49" y="77" type="line"/>
			<point x="178" y="77" type="line"/>
			<point x="333" y="287" type="line"/>
			<point x="178" y="497" type="line"/>
			<point x="49" y="497" type="line"/>
			<point x="204" y="288" type="line"/>
		</contour>
	</outline>
</glyph>
<glyph name="questiondown" format="2">
	<unicode hex="00BF"/>
	<advance width="600"/>
	<outline>
		<contour>
			<point x="333" y="535" type="curve" smooth="yes"/>
			<point x="277" y="535"/>
			<point x="248" y="514"/>
			<point x="248" y="459" type="curve" smooth="yes"/>
			<point x="248" y="405"/>
			<point x="276" y="383"/>
			<point x="333" y="383" type="curve" smooth="yes"/>
			<point x="390" y="383"/>
			<point x="418" y="405"/>
			<point x="418" y="459" type="curve" smooth="yes"/>
			<point x="418" y="514"/>
			<point x="389" y="535"/>
		</contour>
		<contour>
			<point x="388" y="304" type="curve"/>
			<point x="278" y="304" type="line"/>
			<point x="278" y="270" type="line" smooth="yes"/>
			<point x="275" y="167"/>
			<point x="93" y="148"/>
			<point x="93" y="-13" type="curve" smooth="yes"/>
			<point x="93" y="-106"/>
			<point x="161" y="-175"/>
			<point x="303" y="-175" type="curve" smooth="yes"/>
			<point x="399" y="-175"/>
			<point x="468" y="-143"/>
			<point x="505" y="-120" type="curve"/>
			<point x="505" y="-9" type="line"/>
			<point x="463" y="-39"/>
			<point x="401" y="-67"/>
			<point x="329" y="-67" type="curve" smooth="yes"/>
			<point x="252" y="-67"/>
			<point x="219" y="-35"/>
			<point x="219" y="9" type="curve" smooth="yes"/>
			<point x="219" y="109"/>
			<point x="393" y="120"/>
			<point x="393" y="266" type="curve" smooth="yes"/>
			<point x="393" y="280"/>
			<point x="392" y="290"/>
		</contour>
	</outline>
</glyph>
<glyph name="Ccedilla" format="2">
	<unicode hex="00C7"/>
	<advance width="600"/>
	<outline>
		<contour>
			<point x="338" y="-226" type="curve" smooth="yes"/>
			<point x="415" y="-226"/>
			<point x="461" y="-190"/>
			<point x="461" y="-125" type="curve" smooth="yes"/>
			<point x="461" y="-78"/>
			<point x="430" y="-47"/>
			<point x="371" y="-45" type="curve"/>
			<point x="387" y="-12" type="line"/>
			<point x="452" y="-11"/>
			<point x="501" y="1"/>
			<point x="543" y="28" type="curve"/>
			<point x="543" y="131" type="line"/>
			<point x="496" y="103"/>
			<point x="439" y="95"/>
			<point x="395" y="95" type="curve" smooth="yes"/>
			<point x="266" y="95"/>
			<point x="185" y="172"/>
			<point x="185" y="339" type="curve" smooth="yes"/>
			<point x="185" y="346" type="line" smooth="yes"/>
			<point x="185" y="512"/>
			<point x="265" y="590"/>
			<point x="401" y="590" type="curve" smooth="yes"/>
			<point x="452" y="590"/>
			<point x="498" y="580"/>
			<point x="541" y="557" type="curve"/>
			<point x="541" y="666" type="line"/>
			<point x="501" y="684"/>
			<point x="449" y="696"/>
			<point x="381" y="696" type="curve" smooth="yes"/>
			<point x="189" y="696"/>
			<point x="53" y="572"/>
			<point x="53" y="350" type="curve" smooth="yes"/>
			<point x="53" y="336" type="line" smooth="yes"/>
			<point x="53" y="131"/>
			<point x="153" y="12"/>
			<point x="322" y="-9" type="curve"/>
			<point x="285" y="-93" type="line"/>
			<point x="292" y="-91"/>
			<point x="306" y="-90"/>
			<point x="320" y="-90" type="curve" smooth="yes"/>
			<point x="355" y="-90"/>
			<point x="378" y="-98"/>
			<point x="378" y="-125" type="curve" smooth="yes"/>
			<point x="378" y="-152"/>
			<point x="358" y="-163"/>
			<point x="320" y="-163" type="curve" smooth="yes"/>
			<point x="301" y="-163"/>
			<point x="277" y="-158"/>
			<point x="252" y="-147" type="curve"/>
			<point x="252" y="-208" type="line"/>
			<point x="271" y="-218"/>
			<point x="306" y="-226"/>
		</contour>
	</outline>
</glyph>
<glyph name="Eth" format="2">
	<unicode hex="00D0"/>
	<advance width="600"/>
	<outline>
		<contour>
			<point x="61" y="0" type="line"/>
			<point x="292" y="0" type="line" smooth="yes"/>
			<point x="463" y="0"/>
			<point x="562" y="105"/>
			<point x="562" y="335" type="curve" smooth="yes"/>
			<point x="562" y="349" type="line" smooth="yes"/>
			<point x="562" y="580"/>
			<point x="459" y="684"/>
			<point x="288" y="684" type="curve" smooth="yes"/>
			<point x="61" y="684" type="line"/>
			<point x="61" y="382" type="line"/>
			<point x="1" y="382" type="line"/>
			<point x="1" y="299" type="line"/>
			<point x="61" y="299" type="line"/>
		</contour>
		<contour>
			<point x="270" y="580" type="line" smooth="yes"/>
			<point x="376" y="580"/>
			<point x="430" y="512"/>
			<point x="430" y="349" type="curve" smooth="yes"/>
			<point x="430" y="336" type="line" smooth="yes"/>
			<point x="430" y="173"/>
			<point x="382" y="105"/>
			<point x="273" y="105" type="curve" smooth="yes"/>
			<point x="188" y="105" type="line"/>
			<point x="188" y="299" type="line"/>
			<point x="316" y="299" type="line"/>
			<point x="316" y="382" type="line"/>
			<point x="188" y="382" type="line"/>
			<point x="188" y="580" type="line"/>
		</contour>
	</outline>
</glyph>
<glyph name="multiply" format="2">
	<unicode hex="00D7"/>
	<advance width="600"/>
	<outline>
		<contour>
			<point x="151" y="78" type="line"/>
			<point x="300" y="228" type="line"/>
			<point x="448" y="78" type="line"/>
			<point x="522" y="154" type="line"/>
			<point x="374" y="304" type="line"/>
			<point x="524" y="455" type="line"/>
			<point x="449" y="530" type="line"/>
			<point x="300" y="379" type="line"/>
			<point x="152" y="529" type="line"/>
			<point x="78" y="453" type="line"/>
			<point x="225" y="304" type="line"/>
			<point x="76" y="153" type="line"/>
		</contour>
	</outline>
</glyph>
<glyph name="Oslash" format="2">
	<unicode hex="00D8"/>
	<advance width="600"/>
	<outline>
		<contour>
			<point x="300" y="-14" type="curve" smooth="yes"/>
			<point x="460" y="-14"/>
			<point x="553" y="104"/>
			<point x="553" y="335" type="curve" smooth="yes"/>
			<point x="553" y="349" type="line" smooth="yes"/>
			<point x="553" y="450"/>
			<point x="535" y="530"/>
			<point x="501" y="588" type="curve"/>
			<point x="575" y="708" type="line"/>
			<point x="474" y="708" type="line"/>
			<point x="442" y="655" type="line"/>
			<point x="403" y="684"/>
			<point x="356" y="698"/>
			<point x="300" y="698" type="curve" smooth="yes"/>
			<point x="140" y="698"/>
			<point x="47" y="580"/>
			<point x="47" y="349" type="curve" smooth="yes"/>
			<point x="47" y="335" type="line" smooth="yes"/>
			<point x="47" y="233"/>
			<point x="65" y="154"/>
			<point x="99" y="96" type="curve"/>
			<point x="25" y="-24" type="line"/>
			<point x="126" y="-24" type="line"/>
			<point x="158" y="29" type="line"/>
			<point x="196" y="0"/>
			<point x="244" y="-14"/>
		</contour>
		<contour>
			<point x="178" y="338" type="curve" smooth="yes"/>
			<point x="178" y="345" type="line" smooth="yes"/>
			<point x="178" y="527"/>
			<point x="223" y="594"/>
			<point x="300" y="594" type="curve" smooth="yes"/>
			<point x="334" y="594"/>
			<point x="361" y="581"/>
			<point x="382" y="551" type="curve"/>
			<point x="185" y="231" type="line"/>
			<point x="180" y="261"/>
			<point x="178" y="297"/>
		</contour>
		<contour>
			<point x="300" y="90" type="curve" smooth="yes"/>
			<point x="266" y="90"/>
			<point x="238" y="103"/>
			<point x="218" y="134" type="curve"/>
			<point x="415" y="454" type="line"/>
			<point x="420" y="423"/>
			<point x="422" y="387"/>
			<point x="422" y="345" type="curve" smooth="yes"/>
			<point x="422" y="338" type="line" smooth="yes"/>
			<point x="422" y="158"/>
			<point x="377" y="90"/>
		</contour>
	</outline>
</glyph>
<glyph name="germandbls" format="2">
	<unicode hex="00DF"/>
	<advance width="600"/>
	<outline>
		<contour>
			<point x="344" y="-9" type="curve" smooth="yes"/>
			<point x="468" y="-9"/>
			<point x="561" y="67"/>
			<point x="561" y="195" type="curve" smooth="yes"/>
			<point x="561" y="303"/>
			<point x="500" y="364"/>
			<point x="392" y="379" type="curve"/>
			<point x="481" y="399"/>
			<point x="537" y="472"/>
			<point x="536" y="565" type="curve" smooth="yes"/>
			<point x="534" y="683"/>
			<point x="460" y="760"/>
			<point x="308" y="760" type="curve" smooth="yes"/>
			<point x="130" y="760"/>
			<point x="57" y="650"/>
			<point x="57" y="522" type="curve" smooth="yes"/>
			<point x="57" y="0" type="line"/>
			<point x="182" y="0" type="line"/>
			<point x="182" y="526" type="line" smooth="yes"/>
			<point x="182" y="601"/>
			<point x="217" y="661"/>
			<point x="299" y="661" type="curve" smooth="yes"/>
			<point x="373" y="661"/>
			<point x="411" y="619"/>
			<point x="411" y="548" type="curve" smooth="yes"/>
			<point x="411" y="481"/>
			<point x="377" y="423"/>
			<point x="296" y="423" type="curve" smooth="yes"/>
			<point x="234" y="423" type="line"/>
			<point x="234" y="321" type="line"/>
			<point x="296" y="321" type="line" smooth="yes"/>
			<point x="383" y="321"/>
			<point x="431" y="288"/>
			<point x="431" y="200" type="curve" smooth="yes"/>
			<point x="431" y="127"/>
			<point x="388" y="84"/>
			<point x="318" y="84" type="curve" smooth="yes"/>
			<point x="285" y="84"/>
			<point x="259" y="92"/>
			<point x="238" y="104" type="curve"/>
			<point x="238" y="13" type="line"/>
			<point x="259" y="2"/>
			<point x="296" y="-9"/>
		</contour>
	</outline>
</glyph>
<glyph name="Hbar" format="2">
	<unicode hex="0126"/>
	<advance width="600"/>
	<outline>
		<contour>
			<point x="64" y="0" type="line"/>
			<point x="190" y="0" type="line"/>
			<point x="190" y="280" type="line"/>
			<point x="410" y="280" type="line"/>
			<point x="410" y="0" type="line"/>
			<point x="536" y="0" type="line"/>
			<point x="536" y="488" type="line"/>
			<point x="600" y="488" type="line"/>
			<point x="600" y="565" type="line"/>
			<point x="536" y="565" type="line"/>
			<point x="536" y="684" type="line"/>
			<point x="410" y="684" type="line"/>
			<point x="410" y="565" type="line"/>
			<point x="190" y="565" type="line"/>
			<point x="190" y="684" type="line"/>
			<point x="64" y="684" type="line"/>
			<point x="64" y="565" type="line"/>
			<point x="0" y="565" type="line"/>
			<point x="0" y="488" type="line"/>
			<point x="64" y="488" type="line"/>
		</contour>
		<contour>
			<point x="190" y="385" type="line"/>
			<point x="190" y="488" type="line"/>
			<point x="410" y="488" type="line"/>
			<point x="410" y="385" type="line"/>
		</contour>
	</outline>
	<anchor name="center" x="300" y="531"/>
	<anchor name="bottom" x="292" y="0"/>
	<anchor name="top" x="300" y="684"/>
</glyph>
<glyph name="hbar" format="2">
	<unicode hex="0127"/>
	<advance width="600"/>
	<outline>
		<contour>
			<point x="15" y="592" type="line"/>
			<point x="78" y="592" type="line"/>
			<point x="78" y="0" type="line"/>
			<point x="203" y="0" type="line"/>
			<point x="203" y="307" type="line" smooth="yes"/>
			<point x="203" y="334"/>
			<point x="208" y="358"/>
			<point x="219" y="376" type="curve" smooth="yes"/>
			<point x="237" y="409"/>
			<point x="265" y="434"/>
			<point x="311" y="434" type="curve" smooth="yes"/>
			<point x="371" y="434"/>
			<point x="402" y="393"/>
			<point x="402" y="319" type="curve" smooth="yes"/>
			<point x="402" y="0" type="line"/>
			<point x="527" y="0" type="line"/>
			<point x="527" y="347" type="line" smooth="yes"/>
			<point x="527" y="475"/>
			<point x="470" y="537"/>
			<point x="372" y="537" type="curve" smooth="yes"/>
			<point x="295" y="537"/>
			<point x="241" y="491"/>
			<point x="203" y="421" type="curve"/>
			<point x="203" y="592" type="line"/>
			<point x="352" y="592" type="line"/>
			<point x="352" y="664" type="line"/>
			<point x="203" y="664" type="line"/>
			<point x="203" y="750" type="line"/>
			<point x="78" y="750" type="line"/>
			<point x="78" y="664" type="line"/>
			<point x="15" y="664" type="line"/>
		</contour>
	</outline>
</glyph>
<glyph name="IJ" format="2">
	<unicode hex="0132"/>
	<advance width="600"/>
	<outline>
		<contour>
			<point x="262" y="-12" type="curve" smooth="yes"/>
			<point x="409" y="-12"/>
			<point x="516" y="55"/>
			<point x="516" y="226" type="curve" smooth="yes"/>
			<point x="516" y="684" type="line"/>
			<point x="391" y="684" type="line"/>
			<point x="391" y="243" type="line" smooth="yes"/>
			<point x="391" y="139"/>
			<point x="341" y="94"/>
			<point x="245" y="94" type="curve" smooth="yes"/>
			<point x="186" y="94"/>
			<point x="126" y="109"/>
			<point x="82" y="130" type="curve"/>
			<point x="82" y="23" type="line"/>
			<point x="127" y="1"/>
			<point x="181" y="-12"/>
		</contour>
		<contour>
			<point x="83" y="216" type="line"/>
			<point x="206" y="216" type="line"/>
			<point x="206" y="684" type="line"/>
			<point x="83" y="684" type="line"/>
		</contour>
	</outline>
</glyph>
<glyph name="Ldot" format="2">
	<unicode hex="013F"/>
	<advance width="600"/>
	<outline>
		<contour>
			<point x="89" y="0" type="line"/>
			<point x="548" y="0" type="line"/>
			<point x="548" y="116" type="line"/>
			<point x="217" y="116" type="line"/>
			<point x="217" y="684" type="line"/>
			<point x="89" y="684" type="line"/>
		</contour>
		<contour>
			<point x="452" y="325" type="curve" smooth="yes"/>
			<point x="506" y="325"/>
			<point x="537" y="350"/>
			<point x="537" y="417" type="curve" smooth="yes"/>
			<point x="537" y="484"/>
			<point x="506" y="508"/>
			<point x="452" y="508" type="curve" smooth="yes"/>
			<point x="398" y="508"/>
			<point x="368" y="484"/>
			<point x="368" y="417" type="curve" smooth="yes"/>
			<point x="368" y="350"/>
			<point x="398" y="325"/>
		</contour>
	</outline>
</glyph>
<glyph name="ldot" format="2">
	<unicode hex="0140"/>
	<advance width="600"/>
	<outline>
		<contour>
			<point x="68" y="0" type="line"/>
			<point x="542" y="0" type="line"/>
			<point x="542" y="99" type="line"/>
			<point x="373" y="99" type="line"/>
			<point x="373" y="750" type="line"/>
			<point x="69" y="750" type="line"/>
			<point x="69" y="651" type="line"/>
			<point x="247" y="651" type="line"/>
			<point x="247" y="99" type="line"/>
			<point x="68" y="99" type="line"/>
		</contour>
		<contour>
			<point x="599" y="288" type="curve" smooth="yes"/>
			<point x="652" y="288"/>
			<point x="680" y="311"/>
			<point x="680" y="378" type="curve" smooth="yes"/>
			<point x="680" y="443"/>
			<point x="652" y="465"/>
			<point x="599" y="465" type="curve" smooth="yes"/>
			<point x="546" y="465"/>
			<point x="518" y="443"/>
			<point x="518" y="378" type="curve" smooth="yes"/>
			<point x="518" y="311"/>
			<point x="546" y="288"/>
		</contour>
	</outline>
</glyph>
<glyph name="Lslash" format="2">
	<unicode hex="0141"/>
	<advance width="600"/>
	<outline>
		<contour>
			<point x="89" y="0" type="line"/>
			<point x="548" y="0" type="line"/>
			<point x="548" y="116" type="line"/>
			<point x="217" y="116" type="line"/>
			<point x="217" y="319" type="line"/>
			<point x="390" y="386" type="line"/>
			<point x="390" y="476" type="line"/>
			<point x="217" y="409" type="line"/>
			<point x="217" y="684" type="line"/>
			<point x="89" y="684" type="line"/>
			<point x="89" y="359" type="line"/>
			<point x="12" y="329" type="line"/>
			<point x="12" y="239" type="line"/>
			<point x="89" y="269" type="line"/>
		</contour>
	</outline>
</glyph>
<glyph name="lslash" format="2">
	<unicode hex="0142"/>
	<advance width="600"/>
	<outline>
		<contour>
			<point x="68" y="0" type="line"/>
			<point x="542" y="0" type="line"/>
			<point x="542" y="99" type="line"/>
			<point x="373" y="99" type="line"/>
			<point x="373" y="355" type="line"/>
			<point x="526" y="413" type="line"/>
			<point x="526" y="502" type="line"/>
			<point x="373" y="444" type="line"/>
			<point x="373" y="750" type="line"/>
			<point x="69" y="750" type="line"/>
			<point x="69" y="651" type="line"/>
			<point x="247" y="651" type="line"/>
			<point x="247" y="396" type="line"/>
			<point x="93" y="337" type="line"/>
			<point x="93" y="249" type="line"/>
			<point x="247" y="307" type="line"/>
			<point x="247" y="99" type="line"/>
			<point x="68" y="99" type="line"/>
		</contour>
	</outline>
</glyph>
<glyph name="Eng" format="2">
	<unicode hex="014A"/>
	<advance width="600"/>
	<outline>
		<contour>
			<point x="334" y="-209" type="curve" smooth="yes"/>
			<point x="450" y="-209"/>
			<point x="537" y="-150"/>
			<point x="537" y="-13" type="curve" smooth="yes"/>
			<point x="537" y="684" type="line"/>
			<point x="428" y="684" type="line"/>
			<point x="428" y="395" type="line" smooth="yes"/>
			<point x="428" y="294"/>
			<point x="433" y="233"/>
			<point x="444" y="148" type="curve"/>
			<point x="436" y="148" type="line"/>
			<point x="213" y="684" type="line"/>
			<point x="63" y="684" type="line"/>
			<point x="63" y="0" type="line"/>
			<point x="172" y="0" type="line"/>
			<point x="172" y="290" type="line" smooth="yes"/>
			<point x="172" y="380"/>
			<point x="165" y="451"/>
			<point x="157" y="536" type="curve"/>
			<point x="165" y="536" type="line"/>
			<point x="387" y="0" type="line"/>
			<point x="422" y="0" type="line"/>
			<point x="422" y="-6" type="line" smooth="yes"/>
			<point x="422" y="-78"/>
			<point x="385" y="-116"/>
			<point x="310" y="-116" type="curve" smooth="yes"/>
			<point x="276" y="-116"/>
			<point x="246" y="-110"/>
			<point x="224" y="-103" type="curve"/>
			<point x="224" y="-195" type="line"/>
			<point x="250" y="-202"/>
			<point x="284" y="-209"/>
		</contour>
	</outline>
	<anchor name="top" x="343" y="720"/>
	<anchor name="bottom" x="300" y="0"/>
</glyph>
<glyph name="OE" format="2">
	<unicode hex="0152"/>
	<advance width="600"/>
	<outline>
		<contour>
			<point x="182" y="-13" type="curve" smooth="yes"/>
			<point x="234" y="-13"/>
			<point x="269" y="19"/>
			<point x="294" y="89" type="curve"/>
			<point x="294" y="0" type="line"/>
			<point x="573" y="0" type="line"/>
			<point x="573" y="103" type="line"/>
			<point x="409" y="103" type="line"/>
			<point x="409" y="291" type="line"/>
			<point x="544" y="291" type="line"/>
			<point x="544" y="393" type="line"/>
			<point x="409" y="393" type="line"/>
			<point x="409" y="582" type="line"/>
			<point x="570" y="582" type="line"/>
			<point x="570" y="684" type="line"/>
			<point x="260" y="684" type="line" smooth="yes"/>
			<point x="94" y="684"/>
			<point x="30" y="549"/>
			<point x="30" y="321" type="curve" smooth="yes"/>
			<point x="30" y="307" type="line" smooth="yes"/>
			<point x="30" y="93"/>
			<point x="76" y="-13"/>
		</contour>
		<contour>
			<point x="226" y="92" type="curve" smooth="yes"/>
			<point x="167" y="92"/>
			<point x="149" y="154"/>
			<point x="149" y="311" type="curve" smooth="yes"/>
			<point x="149" y="318" type="line" smooth="yes"/>
			<point x="149" y="482"/>
			<point x="167" y="582"/>
			<point x="264" y="582" type="curve" smooth="yes"/>
			<point x="291" y="582" type="line"/>
			<point x="291" y="207" type="line" smooth="yes"/>
			<point x="291" y="134"/>
			<point x="271" y="92"/>
		</contour>
	</outline>
</glyph>
<glyph name="Uogonek" format="2">
	<unicode hex="0172"/>
	<advance width="600"/>
	<outline>
		<contour>
			<point x="332" y="-203" type="curve" smooth="yes"/>
			<point x="363" y="-203"/>
			<point x="389" y="-198"/>
			<point x="404" y="-192" type="curve"/>
			<point x="404" y="-114" type="line"/>
			<point x="397" y="-117"/>
			<point x="382" y="-118"/>
			<point x="366" y="-118" type="curve" smooth="yes"/>
			<point x="336" y="-118"/>
			<point x="313" y="-107"/>
			<point x="313" y="-76" type="curve" smooth="yes"/>
			<point x="313" y="-47"/>
			<point x="335" y="-19"/>
			<point x="395" y="0" type="curve"/>
			<point x="394" y="0" type="line"/>
			<point x="491" y="31"/>
			<point x="538" y="113"/>
			<point x="538" y="241" type="curve" smooth="yes"/>
			<point x="538" y="684" type="line"/>
			<point x="412" y="684" type="line"/>
			<point x="412" y="241" type="line" smooth="yes"/>
			<point x="412" y="149"/>
			<point x="377" y="93"/>
			<point x="300" y="93" type="curve" smooth="yes"/>
			<point x="223" y="93"/>
			<point x="188" y="149"/>
			<point x="188" y="241" type="curve" smooth="yes"/>
			<point x="188" y="684" type="line"/>
			<point x="62" y="684" type="line"/>
			<point x="62" y="241" type="line" smooth="yes"/>
			<point x="62" y="79"/>
			<point x="131" y="-8"/>
			<point x="280" y="-14" type="curve"/>
			<point x="237" y="-38"/>
			<point x="213" y="-74"/>
			<point x="213" y="-113" type="curve" smooth="yes"/>
			<point x="213" y="-173"/>
			<point x="253" y="-203"/>
		</contour>
	</outline>
</glyph>
<glyph name="circumflex" format="2">
	<unicode hex="02C6"/>
	<advance width="600"/>
	<outline>
		<contour>
			<point x="120" y="602" type="line"/>
			<point x="230" y="602" type="line"/>
			<point x="300" y="696" type="line"/>
			<point x="367" y="602" type="line"/>
			<point x="480" y="602" type="line"/>
			<point x="367" y="750" type="line"/>
			<point x="233" y="750" type="line"/>
		</contour>
	</outline>
	<anchor name="_top" x="300" y="523"/>
</glyph>
<glyph name="caron" format="2">
	<unicode hex="02C7"/>
	<advance width="600"/>
	<outline>
		<contour>
			<point x="480" y="750" type="line"/>
			<point x="369" y="750" type="line"/>
			<point x="301" y="655" type="line"/>
			<point x="232" y="750" type="line"/>
			<point x="120" y="750" type="line"/>
			<point x="234" y="602" type="line"/>
			<point x="367" y="602" type="line"/>
		</contour>
	</outline>
	<anchor name="_top" x="302" y="523"/>
</glyph>
<glyph name="breve" format="2">
	<unicode hex="02D8"/>
	<advance width="600"/>
	<outline>
		<contour>
			<point x="297" y="592" type="curve" smooth="yes"/>
			<point x="410" y="592"/>
			<point x="459" y="636"/>
			<point x="459" y="750" type="curve"/>
			<point x="367" y="750" type="line"/>
			<point x="367" y="686"/>
			<point x="350" y="662"/>
			<point x="300" y="662" type="curve" smooth="yes"/>
			<point x="249" y="662"/>
			<point x="233" y="687"/>
			<point x="233" y="750" type="curve"/>
			<point x="141" y="750" type="line"/>
			<point x="141" y="636"/>
			<point x="186" y="592"/>
		</contour>
	</outline>
	<anchor name="_top" x="300" y="523"/>
</glyph>
<glyph name="hungarumlaut" format="2">
	<unicode hex="02DD"/>
	<advance width="600"/>
	<outline>
		<contour>
			<point x="310" y="602" type="line"/>
			<point x="397" y="602" type="line"/>
			<point x="486" y="750" type="line"/>
			<point x="367" y="750" type="line"/>
		</contour>
		<contour>
			<point x="123" y="602" type="line"/>
			<point x="210" y="602" type="line"/>
			<point x="298" y="750" type="line"/>
			<point x="180" y="750" type="line"/>
		</contour>
	</outline>
	<anchor name="_top" x="260" y="523"/>
</glyph>
<glyph name="quoteleft" format="2">
	<unicode hex="2018"/>
	<advance width="600"/>
	<outline>
		<contour>
			<point x="347" y="453" type="line"/>
			<point x="395" y="750" type="line"/>
			<point x="312" y="750" type="line"/>
			<point x="198" y="453" type="line"/>
		</contour>
	</outline>
</glyph>
<glyph name="quotedblleft" format="2">
	<unicode hex="201C"/>
	<advance width="600"/>
	<outline>
		<contour>
			<point x="438" y="453" type="line"/>
			<point x="485" y="750" type="line"/>
			<point x="404" y="750" type="line"/>
			<point x="293" y="453" type="line"/>
		</contour>
		<contour>
			<point x="234" y="453" type="line"/>
			<point x="281" y="750" type="line"/>
			<point x="199" y="750" type="line"/>
			<point x="87" y="453" type="line"/>
		</contour>
	</outline>
</glyph>
<glyph name="quotedblright" format="2">
	<unicode hex="201D"/>
	<advance width="600"/>
	<outline>
		<contour>
			<point x="162" y="750" type="line"/>
			<point x="115" y="453" type="line"/>
			<point x="195" y="453" type="line"/>
			<point x="307" y="750" type="line"/>
		</contour>
		<contour>
			<point x="367" y="750" type="line"/>
			<point x="319" y="453" type="line"/>
			<point x="401" y="453" type="line"/>
			<point x="512" y="750" type="line"/>
		</contour>
	</outline>
</glyph>
<glyph name="daggerdbl" format="2">
	<unicode hex="2021"/>
	<advance width="600"/>
	<outline>
		<contour>
			<point x="65" y="216" type="line"/>
			<point x="65" y="108" type="line"/>
			<point x="239" y="108" type="line"/>
			<point x="239" y="-143" type="line"/>
			<point x="362" y="-143" type="line"/>
			<point x="362" y="108" type="line"/>
			<point x="535" y="108" type="line"/>
			<point x="535" y="216" type="line"/>
			<point x="362" y="216" type="line"/>
			<point x="362" y="476" type="line"/>
			<point x="535" y="476" type="line"/>
			<point x="535" y="583" type="line"/>
			<point x="362" y="583" type="line"/>
			<point x="362" y="765" type="line"/>
			<point x="239" y="765" type="line"/>
			<point x="239" y="583" type="line"/>
			<point x="65" y="583" type="line"/>
			<point x="65" y="476" type="line"/>
			<point x="239" y="476" type="line"/>
			<point x="239" y="216" type="line"/>
		</contour>
	</outline>
</glyph>
<glyph name="bullet" format="2">
	<unicode hex="2022"/>
	<advance width="600"/>
	<outline>
		<contour>
			<point x="300" y="142" type="curve" smooth="yes"/>
			<point x="390" y="142"/>
			<point x="439" y="183"/>
			<point x="439" y="288" type="curve" smooth="yes"/>
			<point x="439" y="393"/>
			<point x="390" y="433"/>
			<point x="300" y="433" type="curve" smooth="yes"/>
			<point x="209" y="433"/>
			<point x="161" y="393"/>
			<point x="161" y="288" type="curve" smooth="yes"/>
			<point x="161" y="183"/>
			<point x="209" y="142"/>
		</contour>
	</outline>
</glyph>
<glyph name="perthousand" format="2">
	<unicode hex="2030"/>
	<advance width="600"/>
	<outline>
		<contour>
			<point x="150" y="393" type="curve" smooth="yes"/>
			<point x="232" y="393"/>
			<point x="286" y="442"/>
			<point x="286" y="542" type="curve" smooth="yes"/>
			<point x="286" y="642"/>
			<point x="233" y="691"/>
			<point x="151" y="691" type="curve" smooth="yes"/>
			<point x="70" y="691"/>
			<point x="14" y="642"/>
			<point x="14" y="542" type="curve" smooth="yes"/>
			<point x="14" y="442"/>
			<point x="68" y="393"/>
		</contour>
		<contour>
			<point x="150" y="456" type="curve" smooth="yes"/>
			<point x="110" y="456"/>
			<point x="93" y="484"/>
			<point x="93" y="542" type="curve" smooth="yes"/>
			<point x="93" y="599"/>
			<point x="111" y="629"/>
			<point x="151" y="629" type="curve" smooth="yes"/>
			<point x="190" y="629"/>
			<point x="208" y="599"/>
			<point x="208" y="542" type="curve" smooth="yes"/>
			<point x="208" y="484"/>
			<point x="190" y="456"/>
		</contour>
		<contour>
			<point x="19" y="262" type="line"/>
			<point x="572" y="404" type="line"/>
			<point x="572" y="470" type="line"/>
			<point x="19" y="327" type="line"/>
		</contour>
		<contour>
			<point x="254" y="-7" type="curve" smooth="yes"/>
			<point x="296" y="-7"/>
			<point x="330" y="7"/>
			<point x="353" y="30" type="curve"/>
			<point x="376" y="6"/>
			<point x="410" y="-7"/>
			<point x="451" y="-7" type="curve" smooth="yes"/>
			<point x="532" y="-7"/>
			<point x="586" y="42"/>
			<point x="586" y="142" type="curve" smooth="yes"/>
			<point x="586" y="242"/>
			<point x="533" y="291"/>
			<point x="453" y="291" type="curve" smooth="yes"/>
			<point x="411" y="291"/>
			<point x="377" y="276"/>
			<point x="354" y="253" type="curve"/>
			<point x="330" y="276"/>
			<point x="298" y="291"/>
			<point x="254" y="291" type="curve" smooth="yes"/>
			<point x="175" y="291"/>
			<point x="120" y="242"/>
			<point x="120" y="142" type="curve" smooth="yes"/>
			<point x="120" y="42"/>
			<point x="173" y="-7"/>
		</contour>
		<contour>
			<point x="256" y="56" type="curve" smooth="yes"/>
			<point x="216" y="56"/>
			<point x="199" y="84"/>
			<point x="199" y="142" type="curve" smooth="yes"/>
			<point x="199" y="199"/>
			<point x="217" y="229"/>
			<point x="257" y="229" type="curve" smooth="yes"/>
			<point x="296" y="229"/>
			<point x="314" y="199"/>
			<point x="314" y="142" type="curve" smooth="yes"/>
			<point x="314" y="84"/>
			<point x="296" y="56"/>
		</contour>
		<contour>
			<point x="450" y="56" type="curve" smooth="yes"/>
			<point x="410" y="56"/>
			<point x="393" y="84"/>
			<point x="393" y="142" type="curve" smooth="yes"/>
			<point x="393" y="199"/>
			<point x="411" y="229"/>
			<point x="450" y="229" type="curve" smooth="yes"/>
			<point x="490" y="229"/>
			<point x="508" y="199"/>
			<point x="508" y="142" type="curve" smooth="yes"/>
			<point x="508" y="84"/>
			<point x="490" y="56"/>
		</contour>
	</outline>
</glyph>
<glyph name="guilsinglleft" format="2">
	<unicode hex="2039"/>
	<advance width="600"/>
	<outline>
		<contour>
			<point x="321" y="77" type="line"/>
			<point x="476" y="77" type="line"/>
			<point x="268" y="289" type="line"/>
			<point x="476" y="497" type="line"/>
			<point x="322" y="497" type="line"/>
			<point x="112" y="287" type="line"/>
		</contour>
	</outline>
</glyph>
<glyph name="trademark" format="2">
	<unicode hex="2122"/>
	<advance width="600"/>
	<outline>
		<contour>
			<point x="292" y="342" type="line"/>
			<point x="351" y="342" type="line"/>
			<point x="351" y="479" type="line" smooth="yes"/>
			<point x="351" y="528"/>
			<point x="348" y="573"/>
			<point x="343" y="617" type="curve"/>
			<point x="348" y="617" type="line"/>
			<point x="399" y="431" type="line"/>
			<point x="455" y="431" type="line"/>
			<point x="506" y="617" type="line"/>
			<point x="511" y="617" type="line"/>
			<point x="506" y="573"/>
			<point x="504" y="530"/>
			<point x="504" y="479" type="curve" smooth="yes"/>
			<point x="504" y="342" type="line"/>
			<point x="563" y="342" type="line"/>
			<point x="563" y="684" type="line"/>
			<point x="474" y="684" type="line"/>
			<point x="428" y="499" type="line"/>
			<point x="426" y="499" type="line"/>
			<point x="380" y="684" type="line"/>
			<point x="292" y="684" type="line"/>
		</contour>
		<contour>
			<point x="104" y="342" type="line"/>
			<point x="172" y="342" type="line"/>
			<point x="172" y="627" type="line"/>
			<point x="261" y="627" type="line"/>
			<point x="261" y="684" type="line"/>
			<point x="14" y="684" type="line"/>
			<point x="14" y="627" type="line"/>
			<point x="104" y="627" type="line"/>
		</contour>
	</outline>
</glyph>
<glyph name="ohm" format="2">
	<unicode hex="2126"/>
	<advance width="600"/>
	<outline>
		<contour>
			<point x="44" y="0" type="line"/>
			<point x="277" y="0" type="line"/>
			<point x="277" y="106" type="line"/>
			<point x="209" y="183"/>
			<point x="175" y="261"/>
			<point x="175" y="389" type="curve" smooth="yes"/>
			<point x="175" y="396" type="line" smooth="yes"/>
			<point x="175" y="541"/>
			<point x="222" y="594"/>
			<point x="301" y="594" type="curve" smooth="yes"/>
			<point x="379" y="594"/>
			<point x="424" y="541"/>
			<point x="424" y="396" type="curve" smooth="yes"/>
			<point x="424" y="389" type="line" smooth="yes"/>
			<point x="424" y="263"/>
			<point x="389" y="182"/>
			<point x="322" y="106" type="curve"/>
			<point x="322" y="0" type="line"/>
			<point x="555" y="0" type="line"/>
			<point x="555" y="105" type="line"/>
			<point x="446" y="105" type="line"/>
			<point x="504" y="168"/>
			<point x="554" y="264"/>
			<point x="554" y="388" type="curve" smooth="yes"/>
			<point x="554" y="402" type="line" smooth="yes"/>
			<point x="554" y="594"/>
			<point x="462" y="698"/>
			<point x="301" y="698" type="curve" smooth="yes"/>
			<point x="142" y="698"/>
			<point x="46" y="596"/>
			<point x="46" y="402" type="curve" smooth="yes"/>
			<point x="46" y="388" type="line" smooth="yes"/>
			<point x="46" y="263"/>
			<point x="87" y="173"/>
			<point x="150" y="105" type="curve"/>
			<point x="44" y="105" type="line"/>
		</contour>
	</outline>
</glyph>
<glyph name="arrowup" format="2">
	<unicode hex="2191"/>
	<advance width="600"/>
	<outline>
		<contour>
			<point x="249" y="0" type="line"/>
			<point x="351" y="0" type="line"/>
			<point x="351" y="525" type="line"/>
			<point x="525" y="350" type="line"/>
			<point x="525" y="479" type="line"/>
			<point x="300" y="703" type="line"/>
			<point x="75" y="477" type="line"/>
			<point x="75" y="350" type="line"/>
			<point x="249" y="527" type="line"/>
		</contour>
	</outline>
</glyph>
<glyph name="arrowright" format="2">
	<unicode hex="2192"/>
	<advance width="600"/>
	<outline>
		<contour>
			<point x="230" y="577" type="line"/>
			<point x="409" y="402" type="line"/>
			<point x="34" y="402" type="line"/>
			<point x="34" y="300" type="line"/>
			<point x="409" y="300" type="line"/>
			<point x="233" y="126" type="line"/>
			<point x="361" y="126" type="line"/>
			<point x="586" y="351" type="line"/>
			<point x="359" y="577" type="line"/>
		</contour>
	</outline>
</glyph>
<glyph name="arrowdown" format="2">
	<unicode hex="2193"/>
	<advance width="600"/>
	<outline>
		<contour>
			<point x="525" y="334" type="line"/>
			<point x="351" y="157" type="line"/>
			<point x="351" y="684" type="line"/>
			<point x="249" y="684" type="line"/>
			<point x="249" y="159" type="line"/>
			<point x="75" y="334" type="line"/>
			<point x="75" y="205" type="line"/>
			<point x="300" y="-19" type="line"/>
			<point x="525" y="207" type="line"/>
		</contour>
	</outline>
</glyph>
<glyph name="uni2196" format="2">
	<unicode hex="2196"/>
	<advance width="600"/>
	<outline>
		<contour>
			<point x="514" y="68" type="line"/>
			<point x="586" y="140" type="line"/>
			<point x="205" y="520" type="line"/>
			<point x="466" y="519" type="line"/>
			<point x="375" y="610" type="line"/>
			<point x="44" y="610" type="line"/>
			<point x="44" y="277" type="line"/>
			<point x="133" y="187" type="line"/>
			<point x="132" y="449" type="line"/>
		</contour>
	</outline>
</glyph>
<glyph name="uni2197" format="2">
	<unicode hex="2197"/>
	<advance width="600"/>
	<outline>
		<contour>
			<point x="86" y="68" type="line"/>
			<point x="467" y="451" type="line"/>
			<point x="465" y="188" type="line"/>
			<point x="556" y="279" type="line"/>
			<point x="556" y="610" type="line"/>
			<point x="223" y="610" type="line"/>
			<point x="134" y="520" type="line"/>
			<point x="397" y="523" type="line"/>
			<point x="14" y="140" type="line"/>
		</contour>
	</outline>
</glyph>
<glyph name="summation" format="2">
	<unicode hex="2211"/>
	<advance width="600"/>
	<outline>
		<contour>
			<point x="60" y="0" type="line"/>
			<point x="542" y="0" type="line"/>
			<point x="542" y="105" type="line"/>
			<point x="217" y="105" type="line"/>
			<point x="437" y="300" type="line"/>
			<point x="437" y="387" type="line"/>
			<point x="226" y="580" type="line"/>
			<point x="536" y="580" type="line"/>
			<point x="536" y="684" type="line"/>
			<point x="61" y="684" type="line"/>
			<point x="61" y="580" type="line"/>
			<point x="327" y="342" type="line"/>
			<point x="60" y="108" type="line"/>
		</contour>
	</outline>
</glyph>
<glyph name="infinity" format="2">
	<unicode hex="221E"/>
	<advance width="600"/>
	<outline>
		<contour>
			<point x="169" y="592" type="curve" smooth="yes"/>
			<point x="69" y="592"/>
			<point x="23" y="503"/>
			<point x="23" y="334" type="curve" smooth="yes"/>
			<point x="23" y="166"/>
			<point x="69" y="75"/>
			<point x="168" y="75" type="curve" smooth="yes"/>
			<point x="244" y="75"/>
			<point x="285" y="136"/>
			<point x="301" y="204" type="curve"/>
			<point x="316" y="136"/>
			<point x="353" y="74"/>
			<point x="432" y="74" type="curve" smooth="yes"/>
			<point x="533" y="74"/>
			<point x="577" y="164"/>
			<point x="577" y="332" type="curve" smooth="yes"/>
			<point x="577" y="499"/>
			<point x="533" y="591"/>
			<point x="432" y="591" type="curve" smooth="yes"/>
			<point x="360" y="591"/>
			<point x="318" y="539"/>
			<point x="301" y="465" type="curve"/>
			<point x="286" y="531"/>
			<point x="245" y="592"/>
		</contour>
		<contour>
			<point x="185" y="171" type="curve" smooth="yes"/>
			<point x="139" y="171"/>
			<point x="120" y="221"/>
			<point x="120" y="333" type="curve" smooth="yes"/>
			<point x="120" y="448"/>
			<point x="140" y="496"/>
			<point x="185" y="496" type="curve" smooth="yes"/>
			<point x="228" y="496"/>
			<point x="248" y="449"/>
			<point x="248" y="333" type="curve" smooth="yes"/>
			<point x="248" y="220"/>
			<point x="229" y="171"/>
		</contour>
		<contour>
			<point x="415" y="170" type="curve" smooth="yes"/>
			<point x="371" y="170"/>
			<point x="353" y="218"/>
			<point x="353" y="333" type="curve" smooth="yes"/>
			<point x="353" y="450"/>
			<point x="372" y="496"/>
			<point x="415" y="496" type="curve" smooth="yes"/>
			<point x="461" y="496"/>
			<point x="481" y="449"/>
			<point x="481" y="333" type="curve" smooth="yes"/>
			<point x="481" y="216"/>
			<point x="461" y="170"/>
		</contour>
	</outline>
</glyph>
<glyph name="integral" format="2">
	<unicode hex="222B"/>
	<advance width="600"/>
	<outline>
		<contour>
			<point x="160" y="-204" type="curve" smooth="yes"/>
			<point x="265" y="-204"/>
			<point x="352" y="-158"/>
			<point x="352" y="-15" type="curve" smooth="yes"/>
			<point x="352" y="502" type="line" smooth="yes"/>
			<point x="352" y="574"/>
			<point x="390" y="599"/>
			<point x="445" y="599" type="curve" smooth="yes"/>
			<point x="473" y="599"/>
			<point x="500" y="594"/>
			<point x="518" y="590" type="curve"/>
			<point x="518" y="680" type="line"/>
			<point x="494" y="691"/>
			<point x="460" y="697"/>
			<point x="418" y="697" type="curve" smooth="yes"/>
			<point x="307" y="697"/>
			<point x="228" y="644"/>
			<point x="228" y="509" type="curve" smooth="yes"/>
			<point x="228" y="-10" type="line" smooth="yes"/>
			<point x="228" y="-81"/>
			<point x="200" y="-111"/>
			<point x="134" y="-111" type="curve" smooth="yes"/>
			<point x="109" y="-111"/>
			<point x="84" y="-106"/>
			<point x="59" y="-99" type="curve"/>
			<point x="59" y="-187" type="line"/>
			<point x="81" y="-197"/>
			<point x="120" y="-204"/>
		</contour>
	</outline>
</glyph>
<glyph name="lessequal" format="2">
	<unicode hex="2264"/>
	<advance width="600"/>
	<outline>
		<contour>
			<point x="531" y="151" type="line"/>
			<point x="531" y="266" type="line"/>
			<point x="168" y="399" type="line"/>
			<point x="531" y="530" type="line"/>
			<point x="531" y="647" type="line"/>
			<point x="69" y="467" type="line"/>
			<point x="69" y="329" type="line"/>
		</contour>
		<contour>
			<point x="69" y="0" type="line"/>
			<point x="531" y="0" type="line"/>
			<point x="531" y="106" type="line"/>
			<point x="69" y="106" type="line"/>
		</contour>
	</outline>
</glyph>
<glyph name="commaaccent" format="2">
	<unicode hex="F6C3"/>
	<advance width="600"/>
	<outline>
		<contour>
			<point x="239" y="-279" type="curve"/>
			<point x="316" y="-279" type="line"/>
			<point x="340" y="-255"/>
			<point x="375" y="-195"/>
			<point x="375" y="-131" type="curve" smooth="yes"/>
			<point x="375" y="-82"/>
			<point x="356" y="-56"/>
			<point x="300" y="-56" type="curve" smooth="yes"/>
			<point x="253" y="-56"/>
			<point x="226" y="-73"/>
			<point x="226" y="-121" type="curve" smooth="yes"/>
			<point x="226" y="-159"/>
			<point x="242" y="-177"/>
			<point x="282" y="-180" type="curve"/>
			<point x="274" y="-213"/>
			<point x="259" y="-248"/>
		</contour>
	</outline>
	<anchor name="_bottom" x="300" y="0"/>
	<anchor name="anchor" x="296" y="0"/>
</glyph>
<glyph name="Anocross" format="2">
	<advance width="600"/>
	<outline>
		<contour>
			<point x="15" y="0" type="line"/>
			<point x="145" y="0" type="line"/>
			<point x="298" y="595" type="line"/>
			<point x="454" y="0" type="line"/>
			<point x="585" y="0" type="line"/>
			<point x="388" y="686" type="line"/>
			<point x="211" y="686" type="line"/>
		</contour>
	</outline>
	<anchor name="ogonek" x="585" y="0"/>
	<anchor name="bottom" x="331" y="0"/>
	<anchor name="top" x="300" y="684"/>
</glyph>
<glyph name=".notdef" format="2">
	<advance width="600"/>
	<outline>
		<contour>
			<point x="75" y="-100" type="line"/>
			<point x="525" y="-100" type="line"/>
			<point x="525" y="784" type="line"/>
			<point x="75" y="784" type="line"/>
		</contour>
		<contour>
			<point x="171" y="-13.6" type="line"/>
			<point x="171" y="697.6" type="line"/>
			<point x="429" y="697.6" type="line"/>
			<point x="429" y="-13.6" type="line"/>
		</contour>
	</outline>
</glyph>
<glyph name="ampersand_ampersand_ampersand.rem" format="2">
	<advance width="600"/>
	<outline>
		<contour>
			<point x="-835" y="-14" type="curve" smooth="yes"/>
			<point x="-744" y="-14"/>
			<point x="-664" y="15"/>
			<point x="-602" y="77" type="curve"/>
			<point x="-566" y="18"/>
			<point x="-496" y="-14"/>
			<point x="-406" y="-14" type="curve" smooth="yes"/>
			<point x="-314" y="-14"/>
			<point x="-232" y="16"/>
			<point x="-170" y="80" type="curve"/>
			<point x="-135" y="20"/>
			<point x="-67" y="-14"/>
			<point x="22" y="-14" type="curve" smooth="yes"/>
			<point x="114" y="-14"/>
			<point x="189" y="19"/>
			<point x="248" y="73" type="curve"/>
			<point x="319" y="0" type="line"/>
			<point x="463" y="0" type="line"/>
			<point x="314" y="155" type="line"/>
			<point x="356" y="223"/>
			<point x="383" y="308"/>
			<point x="397" y="398" type="curve"/>
			<point x="292" y="398" type="line"/>
			<point x="282" y="336"/>
			<point x="266" y="278"/>
			<point x="243" y="229" type="curve"/>
			<point x="88" y="389" type="line" smooth="yes"/>
			<point x="51" y="429"/>
			<point x="27" y="462"/>
			<point x="27" y="509" type="curve" smooth="yes"/>
			<point x="27" y="563"/>
			<point x="66" y="596"/>
			<point x="133" y="596" type="curve" smooth="yes"/>
			<point x="186" y="596"/>
			<point x="236" y="575"/>
			<point x="271" y="553" type="curve"/>
			<point x="271" y="661" type="line"/>
			<point x="239" y="680"/>
			<point x="184" y="698"/>
			<point x="124" y="698" type="curve" smooth="yes"/>
			<point x="-18" y="698"/>
			<point x="-89" y="615"/>
			<point x="-89" y="512" type="curve" smooth="yes"/>
			<point x="-89" y="470"/>
			<point x="-79" y="436"/>
			<point x="-62" y="404" type="curve"/>
			<point x="-123" y="369"/>
			<point x="-172" y="313"/>
			<point x="-189" y="237" type="curve"/>
			<point x="-344" y="389" type="line" smooth="yes"/>
			<point x="-383" y="428"/>
			<point x="-406" y="462"/>
			<point x="-406" y="509" type="curve" smooth="yes"/>
			<point x="-406" y="563"/>
			<point x="-366" y="596"/>
			<point x="-298" y="596" type="curve" smooth="yes"/>
			<point x="-248" y="596"/>
			<point x="-200" y="576"/>
			<point x="-167" y="556" type="curve"/>
			<point x="-167" y="664" type="line"/>
			<point x="-197" y="681"/>
			<point x="-249" y="698"/>
			<point x="-307" y="698" type="curve" smooth="yes"/>
			<point x="-450" y="698"/>
			<point x="-522" y="615"/>
			<point x="-522" y="512" type="curve" smooth="yes"/>
			<point x="-522" y="469"/>
			<point x="-513" y="434"/>
			<point x="-496" y="403" type="curve"/>
			<point x="-557" y="368"/>
			<point x="-606" y="316"/>
			<point x="-623" y="242" type="curve"/>
			<point x="-774" y="389" type="line" smooth="yes"/>
			<point x="-813" y="428"/>
			<point x="-836" y="462"/>
			<point x="-836" y="509" type="curve" smooth="yes"/>
			<point x="-836" y="563"/>
			<point x="-797" y="596"/>
			<point x="-729" y="596" type="curve" smooth="yes"/>
			<point x="-678" y="596"/>
			<point x="-631" y="576"/>
			<point x="-597" y="556" type="curve"/>
			<point x="-597" y="664" type="line"/>
			<point x="-628" y="681"/>
			<point x="-679" y="698"/>
			<point x="-738" y="698" type="curve" smooth="yes"/>
			<point x="-881" y="698"/>
			<point x="-953" y="615"/>
			<point x="-953" y="512" type="curve" smooth="yes"/>
			<point x="-953" y="469"/>
			<point x="-943" y="434"/>
			<point x="-925" y="402" type="curve"/>
			<point x="-998" y="359"/>
			<point x="-1053" y="287"/>
			<point x="-1053" y="182" type="curve" smooth="yes"/>
			<point x="-1053" y="57"/>
			<point x="-965" y="-14"/>
		</contour>
		<contour>
			<point x="-85" y="196" type="curve" smooth="yes"/>
			<point x="-85" y="258"/>
			<point x="-49" y="304"/>
			<point x="-5" y="331" type="curve"/>
			<point x="-3" y="329"/>
			<point x="-1" y="326"/>
			<point x="1" y="324" type="curve" smooth="yes"/>
			<point x="181" y="141" type="line"/>
			<point x="144" y="104"/>
			<point x="98" y="83"/>
			<point x="42" y="83" type="curve" smooth="yes"/>
			<point x="-35" y="83"/>
			<point x="-85" y="129"/>
		</contour>
		<contour>
			<point x="-514" y="198" type="curve" smooth="yes"/>
			<point x="-514" y="262"/>
			<point x="-480" y="304"/>
			<point x="-437" y="329" type="curve"/>
			<point x="-435" y="328"/>
			<point x="-433" y="326"/>
			<point x="-432" y="324" type="curve" smooth="yes"/>
			<point x="-241" y="147" type="line"/>
			<point x="-278" y="106"/>
			<point x="-329" y="83"/>
			<point x="-386" y="83" type="curve" smooth="yes"/>
			<point x="-464" y="83"/>
			<point x="-514" y="125"/>
		</contour>
		<contour>
			<point x="-942" y="198" type="curve" smooth="yes"/>
			<point x="-942" y="262"/>
			<point x="-908" y="304"/>
			<point x="-866" y="329" type="curve"/>
			<point x="-865" y="328"/>
			<point x="-863" y="326"/>
			<point x="-861" y="324" type="curve" smooth="yes"/>
			<point x="-671" y="147" type="line"/>
			<point x="-707" y="106"/>
			<point x="-758" y="83"/>
			<point x="-815" y="83" type="curve" smooth="yes"/>
			<point x="-892" y="83"/>
			<point x="-942" y="125"/>
		</contour>
	</outline>
</glyph>
<glyph name="asciitilde_asciitilde.cLig" format="2">
	<advance width="600"/>
	<outline>
		<contour>
			<point x="-103" y="197" type="curve"/>
			<point x="18" y="197"/>
			<point x="21" y="321"/>
			<point x="100" y="321" type="curve"/>
			<point x="174" y="321"/>
			<point x="190" y="197"/>
			<point x="314" y="197" type="curve"/>
			<point x="414" y="197"/>
			<point x="475" y="280"/>
			<point x="491" y="428" type="curve"/>
			<point x="391" y="428" type="line"/>
			<point x="380" y="355"/>
			<point x="357" y="311"/>
			<point x="309" y="311" type="curve"/>
			<point x="231" y="311"/>
			<point x="227" y="433"/>
			<point x="101" y="433" type="curve"/>
			<point x="-28" y="433"/>
			<point x="-25" y="311"/>
			<point x="-102" y="311" type="curve"/>
			<point x="-171" y="311"/>
			<point x="-185" y="433"/>
			<point x="-305" y="433" type="curve"/>
			<point x="-412" y="433"/>
			<point x="-475" y="352"/>
			<point x="-491" y="203" type="curve"/>
			<point x="-391" y="203" type="line"/>
			<point x="-381" y="277"/>
			<point x="-356" y="320"/>
			<point x="-304" y="320" type="curve"/>
			<point x="-230" y="320"/>
			<point x="-218" y="197"/>
		</contour>
	</outline>
</glyph>
<glyph name="asciitilde_hyphen.cLig" format="2">
	<advance width="600"/>
	<outline>
		<contour>
			<point x="415" y="365" type="line"/>
			<point x="-1" y="365" type="line"/>
			<point x="-7" y="322"/>
			<point x="-27" y="296"/>
			<point x="-59" y="296" type="curve" smooth="yes"/>
			<point x="-124" y="296"/>
			<point x="-151" y="421"/>
			<point x="-264" y="421" type="curve" smooth="yes"/>
			<point x="-349" y="421"/>
			<point x="-402" y="364"/>
			<point x="-402" y="200" type="curve"/>
			<point x="-304" y="200" type="line"/>
			<point x="-304" y="274"/>
			<point x="-289" y="306"/>
			<point x="-250" y="306" type="curve"/>
			<point x="-186" y="306"/>
			<point x="-151" y="183"/>
			<point x="-47" y="183" type="curve" smooth="yes"/>
			<point x="5" y="183"/>
			<point x="42" y="206"/>
			<point x="64" y="252" type="curve"/>
			<point x="415" y="252" type="line"/>
		</contour>
	</outline>
</glyph>
<glyph name="aster_comp_extended" format="2">
	<advance width="600"/>
	<outline>
		<contour>
			<point x="248" y="532" type="curve" smooth="yes"/>
			<point x="235" y="274" type="line"/>
			<point x="299" y="274" type="line"/>
			<point x="285" y="532" type="line" smooth="yes"/>
			<point x="284" y="540"/>
			<point x="282" y="547"/>
			<point x="278" y="550" type="curve"/>
			<point x="282" y="554"/>
			<point x="284" y="560"/>
			<point x="285" y="568" type="curve" smooth="yes"/>
			<point x="298" y="825" type="line"/>
			<point x="234" y="825" type="line"/>
			<point x="248" y="568" type="line" smooth="yes"/>
			<point x="249" y="560"/>
			<point x="251" y="553"/>
			<point x="255" y="550" type="curve"/>
			<point x="251" y="546"/>
			<point x="249" y="540"/>
		</contour>
	</outline>
</glyph>
<glyph name="asterisk_asterisk_slash.rem" format="2">
	<advance width="600"/>
	<outline>
		<contour>
			<point x="363" y="792" type="line"/>
			<point x="5" y="-163" type="line"/>
			<point x="126" y="-163" type="line"/>
			<point x="485" y="792" type="line"/>
		</contour>
		<contour>
			<point x="-650" y="147" type="line"/>
			<point x="-590" y="252" type="line"/>
			<point x="-772" y="321" type="line"/>
			<point x="-588" y="389" type="line"/>
			<point x="-648" y="494" type="line"/>
			<point x="-801" y="370" type="line"/>
			<point x="-768" y="564" type="line"/>
			<point x="-889" y="564" type="line"/>
			<point x="-858" y="370" type="line"/>
			<point x="-1012" y="496" type="line"/>
			<point x="-1072" y="391" type="line"/>
			<point x="-886" y="321" type="line"/>
			<point x="-1071" y="251" type="line"/>
			<point x="-1011" y="146" type="line"/>
			<point x="-858" y="272" type="line"/>
			<point x="-889" y="76" type="line"/>
			<point x="-768" y="76" type="line"/>
			<point x="-801" y="271" type="line"/>
		</contour>
		<contour>
			<point x="-70" y="147" type="line"/>
			<point x="-10" y="252" type="line"/>
			<point x="-192" y="321" type="line"/>
			<point x="-8" y="389" type="line"/>
			<point x="-68" y="494" type="line"/>
			<point x="-221" y="370" type="line"/>
			<point x="-188" y="564" type="line"/>
			<point x="-309" y="564" type="line"/>
			<point x="-278" y="370" type="line"/>
			<point x="-432" y="496" type="line"/>
			<point x="-492" y="391" type="line"/>
			<point x="-306" y="321" type="line"/>
			<point x="-491" y="251" type="line"/>
			<point x="-431" y="146" type="line"/>
			<point x="-278" y="272" type="line"/>
			<point x="-309" y="76" type="line"/>
			<point x="-188" y="76" type="line"/>
			<point x="-221" y="271" type="line"/>
		</contour>
	</outline>
</glyph>
<glyph name="asterisk_greater.cLig" format="2">
	<advance width="600"/>
	<outline>
		<contour>
			<point x="53" y="-10" type="line"/>
			<point x="500" y="245" type="line"/>
			<point x="500" y="383" type="line"/>
			<point x="53" y="638" type="line"/>
			<point x="53" y="514" type="line"/>
			<point x="411" y="313" type="line"/>
			<point x="53" y="114" type="line"/>
		</contour>
		<contour>
			<point x="-68" y="144" type="line"/>
			<point x="-8" y="249" type="line"/>
			<point x="-194" y="319" type="line"/>
			<point x="-9" y="388" type="line"/>
			<point x="-69" y="493" type="line"/>
			<point x="-222" y="368" type="line"/>
			<point x="-191" y="563" type="line"/>
			<point x="-312" y="563" type="line"/>
			<point x="-279" y="368" type="line"/>
			<point x="-430" y="493" type="line"/>
			<point x="-490" y="388" type="line"/>
			<point x="-308" y="319" type="line"/>
			<point x="-492" y="250" type="line"/>
			<point x="-432" y="145" type="line"/>
			<point x="-279" y="270" type="line"/>
			<point x="-312" y="76" type="line"/>
			<point x="-191" y="76" type="line"/>
			<point x="-222" y="269" type="line"/>
		</contour>
	</outline>
</glyph>
<glyph name="backslash_backslash.rem" format="2">
	<advance width="600"/>
	<outline>
		<contour>
			<point x="-121" y="-163" type="line"/>
			<point x="3" y="-163" type="line"/>
			<point x="-355" y="792" type="line"/>
			<point x="-479" y="792" type="line"/>
		</contour>
		<contour>
			<point x="355" y="-163" type="line"/>
			<point x="479" y="-163" type="line"/>
			<point x="121" y="792" type="line"/>
			<point x="-3" y="792" type="line"/>
		</contour>
	</outline>
</glyph>
<glyph name="bar_bar_greater.cLig" format="2">
	<advance width="600"/>
	<outline>
		<contour>
			<point x="-870" y="708" type="line"/>
			<point x="-870" y="-79" type="line"/>
			<point x="-753" y="-79" type="line"/>
			<point x="-753" y="708" type="line"/>
		</contour>
		<contour>
			<point x="-310" y="-79" type="line"/>
			<point x="-192" y="-79" type="line"/>
			<point x="338" y="246" type="line"/>
			<point x="337" y="384" type="line"/>
			<point x="-193" y="708" type="line"/>
			<point x="-310" y="708" type="line"/>
		</contour>
		<contour>
			<point x="-196" y="574" type="line"/>
			<point x="236" y="316" type="line"/>
			<point x="-196" y="53" type="line"/>
		</contour>
	</outline>
</glyph>
<glyph name="bar_braceright.cLig" format="2">
	<advance width="600"/>
	<outline>
		<contour>
			<point x="198" y="-163" type="curve" smooth="yes"/>
			<point x="-60" y="-163" type="line"/>
			<point x="-60" y="-71" type="line"/>
			<point x="156" y="-71" type="line" smooth="yes"/>
			<point x="212" y="-71"/>
			<point x="242" y="-48"/>
			<point x="242" y="-5" type="curve" smooth="yes"/>
			<point x="242" y="61"/>
			<point x="156" y="121"/>
			<point x="156" y="205" type="curve" smooth="yes"/>
			<point x="156" y="258"/>
			<point x="208" y="302"/>
			<point x="281" y="314" type="curve"/>
			<point x="208" y="325"/>
			<point x="156" y="371"/>
			<point x="156" y="426" type="curve" smooth="yes"/>
			<point x="156" y="508"/>
			<point x="242" y="568"/>
			<point x="242" y="635" type="curve" smooth="yes"/>
			<point x="242" y="680"/>
			<point x="210" y="700"/>
			<point x="159" y="700" type="curve" smooth="yes"/>
			<point x="-60" y="700" type="line"/>
			<point x="-60" y="792" type="line"/>
			<point x="198" y="792" type="line" smooth="yes"/>
			<point x="309" y="792"/>
			<point x="370" y="727"/>
			<point x="370" y="651" type="curve" smooth="yes"/>
			<point x="370" y="556"/>
			<point x="284" y="498"/>
			<point x="284" y="431" type="curve" smooth="yes"/>
			<point x="284" y="402"/>
			<point x="305" y="367"/>
			<point x="364" y="367" type="curve" smooth="yes"/>
			<point x="438" y="367" type="line"/>
			<point x="438" y="260" type="line"/>
			<point x="364" y="260" type="line" smooth="yes"/>
			<point x="305" y="260"/>
			<point x="284" y="224"/>
			<point x="284" y="195" type="curve" smooth="yes"/>
			<point x="284" y="130"/>
			<point x="370" y="71"/>
			<point x="370" y="-23" type="curve" smooth="yes"/>
			<point x="370" y="-100"/>
			<point x="312" y="-163"/>
		</contour>
		<contour>
			<point x="-249" y="792" type="line"/>
			<point x="-249" y="-163" type="line"/>
			<point x="-365" y="-163" type="line"/>
			<point x="-365" y="792" type="line"/>
		</contour>
	</outline>
</glyph>
<glyph name="bar_equal.init" format="2">
	<advance width="600"/>
	<outline>
		<contour>
			<point x="131" y="684" type="line"/>
			<point x="131" y="-55" type="line"/>
			<point x="249" y="-55" type="line"/>
			<point x="249" y="151" type="line"/>
			<point x="600" y="151" type="line"/>
			<point x="600" y="258" type="line"/>
			<point x="249" y="258" type="line"/>
			<point x="249" y="371" type="line"/>
			<point x="600" y="371" type="line"/>
			<point x="600" y="478" type="line"/>
			<point x="249" y="478" type="line"/>
			<point x="249" y="684" type="line"/>
		</contour>
	</outline>
</glyph>
<glyph name="bar_equal_greater.rem" format="2">
	<advance width="600"/>
	<outline>
		<contour>
			<point x="-1035" y="629" type="line"/>
			<point x="-1035" y="0" type="line"/>
			<point x="-918" y="0" type="line"/>
			<point x="-918" y="151" type="line"/>
			<point x="194" y="151" type="line"/>
			<point x="65" y="0" type="line"/>
			<point x="209" y="0" type="line"/>
			<point x="478" y="314" type="line"/>
			<point x="206" y="629" type="line"/>
			<point x="62" y="629" type="line"/>
			<point x="194" y="478" type="line"/>
			<point x="-918" y="478" type="line"/>
			<point x="-918" y="629" type="line"/>
		</contour>
		<contour>
			<point x="334" y="315" type="line"/>
			<point x="285" y="258" type="line"/>
			<point x="-918" y="258" type="line"/>
			<point x="-918" y="371" type="line"/>
			<point x="286" y="371" type="line"/>
		</contour>
	</outline>
</glyph>
<glyph name="bar_greater.cLig" format="2">
	<advance width="600"/>
	<outline>
		<contour>
			<point x="-286" y="-79" type="line"/>
			<point x="-167" y="-79" type="line"/>
			<point x="363" y="246" type="line"/>
			<point x="362" y="384" type="line"/>
			<point x="-168" y="708" type="line"/>
			<point x="-286" y="708" type="line"/>
		</contour>
		<contour>
			<point x="-171" y="574" type="line"/>
			<point x="261" y="316" type="line"/>
			<point x="-171" y="53" type="line"/>
		</contour>
	</outline>
</glyph>
<glyph name="bar_hyphen.fina" format="2">
	<advance width="600"/>
	<outline>
		<contour>
			<point x="0" y="257" type="line"/>
			<point x="351" y="257" type="line"/>
			<point x="351" y="-55" type="line"/>
			<point x="469" y="-55" type="line"/>
			<point x="469" y="684" type="line"/>
			<point x="351" y="684" type="line"/>
			<point x="351" y="370" type="line"/>
			<point x="0" y="370" type="line"/>
		</contour>
	</outline>
</glyph>
<glyph name="bar_hyphen.med" format="2">
	<advance width="600"/>
	<outline>
		<contour>
			<point x="241" y="-55" type="line"/>
			<point x="359" y="-55" type="line"/>
			<point x="359" y="257" type="line"/>
			<point x="600" y="257" type="line"/>
			<point x="600" y="370" type="line"/>
			<point x="359" y="370" type="line"/>
			<point x="359" y="684" type="line"/>
			<point x="241" y="684" type="line"/>
			<point x="241" y="370" type="line"/>
			<point x="0" y="370" type="line"/>
			<point x="0" y="257" type="line"/>
			<point x="241" y="257" type="line"/>
		</contour>
	</outline>
</glyph>
<glyph name="braceleft_braceleft.cLig" format="2">
	<advance width="600"/>
	<outline>
		<contour>
			<point x="-12" y="-163" type="line"/>
			<point x="-12" y="-71" type="line"/>
			<point x="-152" y="-71" type="line" smooth="yes"/>
			<point x="-209" y="-71"/>
			<point x="-239" y="-45"/>
			<point x="-239" y="-2" type="curve"/>
			<point x="-239" y="73"/>
			<point x="-148" y="119"/>
			<point x="-148" y="209" type="curve" smooth="yes"/>
			<point x="-148" y="264"/>
			<point x="-199" y="304"/>
			<point x="-272" y="315" type="curve"/>
			<point x="-196" y="327"/>
			<point x="-147" y="369"/>
			<point x="-147" y="424" type="curve" smooth="yes"/>
			<point x="-147" y="512"/>
			<point x="-239" y="562"/>
			<point x="-239" y="628" type="curve" smooth="yes"/>
			<point x="-239" y="674"/>
			<point x="-207" y="699"/>
			<point x="-148" y="699" type="curve" smooth="yes"/>
			<point x="176" y="699" type="line"/>
			<point x="119" y="683"/>
			<point x="98" y="643"/>
			<point x="98" y="607" type="curve" smooth="yes"/>
			<point x="98" y="528"/>
			<point x="184" y="484"/>
			<point x="184" y="425" type="curve" smooth="yes"/>
			<point x="184" y="397"/>
			<point x="165" y="367"/>
			<point x="105" y="367" type="curve" smooth="yes"/>
			<point x="26" y="367" type="line"/>
			<point x="26" y="261" type="line"/>
			<point x="105" y="261" type="line" smooth="yes"/>
			<point x="173" y="261"/>
			<point x="191" y="226"/>
			<point x="191" y="198" type="curve" smooth="yes"/>
			<point x="191" y="124"/>
			<point x="99" y="73"/>
			<point x="99" y="-19" type="curve"/>
			<point x="99" y="-100"/>
			<point x="152" y="-163"/>
			<point x="271" y="-163" type="curve" smooth="yes"/>
			<point x="460" y="-163" type="line"/>
			<point x="460" y="-71" type="line"/>
			<point x="313" y="-71" type="line" smooth="yes"/>
			<point x="257" y="-71"/>
			<point x="227" y="-48"/>
			<point x="227" y="-3" type="curve"/>
			<point x="227" y="65"/>
			<point x="316" y="116"/>
			<point x="316" y="204" type="curve" smooth="yes"/>
			<point x="316" y="262"/>
			<point x="266" y="303"/>
			<point x="196" y="315" type="curve"/>
			<point x="264" y="329"/>
			<point x="318" y="367"/>
			<point x="318" y="425" type="curve" smooth="yes"/>
			<point x="318" y="511"/>
			<point x="227" y="562"/>
			<point x="227" y="628" type="curve" smooth="yes"/>
			<point x="227" y="674"/>
			<point x="260" y="699"/>
			<point x="320" y="699" type="curve" smooth="yes"/>
			<point x="476" y="699" type="line"/>
			<point x="476" y="791" type="line"/>
			<point x="-195" y="791" type="line" smooth="yes"/>
			<point x="-306" y="791"/>
			<point x="-367" y="722"/>
			<point x="-367" y="646" type="curve" smooth="yes"/>
			<point x="-367" y="551"/>
			<point x="-275" y="497"/>
			<point x="-275" y="430" type="curve" smooth="yes"/>
			<point x="-275" y="401"/>
			<point x="-296" y="366"/>
			<point x="-356" y="366" type="curve" smooth="yes"/>
			<point x="-437" y="366" type="line"/>
			<point x="-437" y="261" type="line"/>
			<point x="-356" y="261" type="line" smooth="yes"/>
			<point x="-296" y="261"/>
			<point x="-275" y="227"/>
			<point x="-275" y="198" type="curve" smooth="yes"/>
			<point x="-275" y="128"/>
			<point x="-367" y="79"/>
			<point x="-367" y="-19" type="curve"/>
			<point x="-367" y="-100"/>
			<point x="-309" y="-163"/>
			<point x="-195" y="-163" type="curve" smooth="yes"/>
		</contour>
	</outline>
</glyph>
<glyph name="braceleft_braceleft_numbersign.cLig" format="2">
	<advance width="600"/>
	<outline>
		<contour>
			<point x="-609" y="-163" type="line"/>
			<point x="-609" y="-71" type="line"/>
			<point x="-749" y="-71" type="line" smooth="yes"/>
			<point x="-806" y="-71"/>
			<point x="-836" y="-45"/>
			<point x="-836" y="-2" type="curve"/>
			<point x="-836" y="73"/>
			<point x="-745" y="119"/>
			<point x="-745" y="209" type="curve" smooth="yes"/>
			<point x="-745" y="264"/>
			<point x="-796" y="304"/>
			<point x="-869" y="315" type="curve"/>
			<point x="-793" y="327"/>
			<point x="-744" y="369"/>
			<point x="-744" y="424" type="curve" smooth="yes"/>
			<point x="-744" y="512"/>
			<point x="-836" y="562"/>
			<point x="-836" y="628" type="curve" smooth="yes"/>
			<point x="-836" y="674"/>
			<point x="-804" y="699"/>
			<point x="-745" y="699" type="curve" smooth="yes"/>
			<point x="-421" y="699" type="line"/>
			<point x="-478" y="683"/>
			<point x="-499" y="643"/>
			<point x="-499" y="607" type="curve" smooth="yes"/>
			<point x="-499" y="528"/>
			<point x="-413" y="484"/>
			<point x="-413" y="425" type="curve" smooth="yes"/>
			<point x="-413" y="397"/>
			<point x="-432" y="367"/>
			<point x="-492" y="367" type="curve" smooth="yes"/>
			<point x="-571" y="367" type="line"/>
			<point x="-571" y="261" type="line"/>
			<point x="-492" y="261" type="line" smooth="yes"/>
			<point x="-424" y="261"/>
			<point x="-406" y="226"/>
			<point x="-406" y="198" type="curve" smooth="yes"/>
			<point x="-406" y="124"/>
			<point x="-498" y="73"/>
			<point x="-498" y="-19" type="curve"/>
			<point x="-498" y="-100"/>
			<point x="-445" y="-163"/>
			<point x="-326" y="-163" type="curve" smooth="yes"/>
			<point x="-137" y="-163" type="line"/>
			<point x="-137" y="-71" type="line"/>
			<point x="-284" y="-71" type="line" smooth="yes"/>
			<point x="-340" y="-71"/>
			<point x="-370" y="-48"/>
			<point x="-370" y="-3" type="curve"/>
			<point x="-370" y="65"/>
			<point x="-281" y="116"/>
			<point x="-281" y="204" type="curve" smooth="yes"/>
			<point x="-281" y="262"/>
			<point x="-331" y="303"/>
			<point x="-401" y="315" type="curve"/>
			<point x="-333" y="329"/>
			<point x="-279" y="367"/>
			<point x="-279" y="425" type="curve" smooth="yes"/>
			<point x="-279" y="511"/>
			<point x="-370" y="562"/>
			<point x="-370" y="628" type="curve" smooth="yes"/>
			<point x="-370" y="674"/>
			<point x="-337" y="699"/>
			<point x="-277" y="699" type="curve" smooth="yes"/>
			<point x="-121" y="699" type="line"/>
			<point x="-121" y="791" type="line"/>
			<point x="-792" y="791" type="line" smooth="yes"/>
			<point x="-903" y="791"/>
			<point x="-964" y="722"/>
			<point x="-964" y="646" type="curve" smooth="yes"/>
			<point x="-964" y="551"/>
			<point x="-872" y="497"/>
			<point x="-872" y="430" type="curve" smooth="yes"/>
			<point x="-872" y="401"/>
			<point x="-893" y="366"/>
			<point x="-953" y="366" type="curve" smooth="yes"/>
			<point x="-1034" y="366" type="line"/>
			<point x="-1034" y="261" type="line"/>
			<point x="-953" y="261" type="line" smooth="yes"/>
			<point x="-893" y="261"/>
			<point x="-872" y="227"/>
			<point x="-872" y="198" type="curve" smooth="yes"/>
			<point x="-872" y="128"/>
			<point x="-964" y="79"/>
			<point x="-964" y="-19" type="curve"/>
			<point x="-964" y="-100"/>
			<point x="-906" y="-163"/>
			<point x="-792" y="-163" type="curve" smooth="yes"/>
		</contour>
		<contour>
			<point x="-127" y="256" type="line"/>
			<point x="-127" y="161" type="line"/>
			<point x="-8" y="161" type="line"/>
			<point x="-23" y="0" type="line"/>
			<point x="75" y="0" type="line"/>
			<point x="91" y="161" type="line"/>
			<point x="212" y="161" type="line"/>
			<point x="197" y="0" type="line"/>
			<point x="294" y="0" type="line"/>
			<point x="310" y="161" type="line"/>
			<point x="417" y="161" type="line"/>
			<point x="417" y="256" type="line"/>
			<point x="319" y="256" type="line"/>
			<point x="336" y="437" type="line"/>
			<point x="441" y="437" type="line"/>
			<point x="441" y="533" type="line"/>
			<point x="345" y="533" type="line"/>
			<point x="360" y="684" type="line"/>
			<point x="262" y="684" type="line"/>
			<point x="248" y="533" type="line"/>
			<point x="125" y="533" type="line"/>
			<point x="139" y="684" type="line"/>
			<point x="42" y="684" type="line"/>
			<point x="28" y="533" type="line"/>
			<point x="-127" y="533" type="line"/>
			<point x="-127" y="437" type="line"/>
			<point x="18" y="437" type="line"/>
			<point x="1" y="256" type="line"/>
		</contour>
		<contour>
			<point x="99" y="256" type="line"/>
			<point x="116" y="437" type="line"/>
			<point x="238" y="437" type="line"/>
			<point x="221" y="256" type="line"/>
		</contour>
	</outline>
</glyph>
<glyph name="braceleft_numbersign.cLig" format="2">
	<advance width="600"/>
	<outline>
		<contour>
			<point x="-492" y="260" type="line"/>
			<point x="-420" y="260" type="line" smooth="yes"/>
			<point x="-360" y="260"/>
			<point x="-339" y="224"/>
			<point x="-339" y="196" type="curve" smooth="yes"/>
			<point x="-339" y="130"/>
			<point x="-440" y="72"/>
			<point x="-440" y="-22" type="curve" smooth="yes"/>
			<point x="-440" y="-100"/>
			<point x="-383" y="-163"/>
			<point x="-269" y="-163" type="curve" smooth="yes"/>
			<point x="-100" y="-163" type="line"/>
			<point x="-100" y="-72" type="line"/>
			<point x="-226" y="-72" type="line" smooth="yes"/>
			<point x="-284" y="-72"/>
			<point x="-313" y="-49"/>
			<point x="-313" y="-5" type="curve" smooth="yes"/>
			<point x="-313" y="59"/>
			<point x="-213" y="113"/>
			<point x="-213" y="200" type="curve" smooth="yes"/>
			<point x="-213" y="256"/>
			<point x="-265" y="301"/>
			<point x="-337" y="313" type="curve"/>
			<point x="-265" y="325"/>
			<point x="-213" y="371"/>
			<point x="-213" y="426" type="curve" smooth="yes"/>
			<point x="-213" y="514"/>
			<point x="-313" y="568"/>
			<point x="-313" y="635" type="curve" smooth="yes"/>
			<point x="-313" y="681"/>
			<point x="-281" y="701"/>
			<point x="-230" y="701" type="curve" smooth="yes"/>
			<point x="-100" y="701" type="line"/>
			<point x="-100" y="792" type="line"/>
			<point x="-269" y="792" type="line" smooth="yes"/>
			<point x="-380" y="792"/>
			<point x="-440" y="727"/>
			<point x="-440" y="652" type="curve" smooth="yes"/>
			<point x="-440" y="557"/>
			<point x="-339" y="498"/>
			<point x="-339" y="431" type="curve" smooth="yes"/>
			<point x="-339" y="402"/>
			<point x="-360" y="367"/>
			<point x="-420" y="367" type="curve" smooth="yes"/>
			<point x="-492" y="367" type="line"/>
		</contour>
		<contour>
			<point x="-92" y="256" type="line"/>
			<point x="-92" y="161" type="line"/>
			<point x="27" y="161" type="line"/>
			<point x="12" y="0" type="line"/>
			<point x="110" y="0" type="line"/>
			<point x="126" y="161" type="line"/>
			<point x="247" y="161" type="line"/>
			<point x="232" y="0" type="line"/>
			<point x="329" y="0" type="line"/>
			<point x="345" y="161" type="line"/>
			<point x="452" y="161" type="line"/>
			<point x="452" y="256" type="line"/>
			<point x="354" y="256" type="line"/>
			<point x="371" y="437" type="line"/>
			<point x="476" y="437" type="line"/>
			<point x="476" y="533" type="line"/>
			<point x="380" y="533" type="line"/>
			<point x="395" y="684" type="line"/>
			<point x="297" y="684" type="line"/>
			<point x="283" y="533" type="line"/>
			<point x="160" y="533" type="line"/>
			<point x="174" y="684" type="line"/>
			<point x="77" y="684" type="line"/>
			<point x="63" y="533" type="line"/>
			<point x="-92" y="533" type="line"/>
			<point x="-92" y="437" type="line"/>
			<point x="53" y="437" type="line"/>
			<point x="36" y="256" type="line"/>
		</contour>
		<contour>
			<point x="134" y="256" type="line"/>
			<point x="151" y="437" type="line"/>
			<point x="273" y="437" type="line"/>
			<point x="256" y="256" type="line"/>
		</contour>
	</outline>
</glyph>
<glyph name="braceright_numbersign.cLig" format="2">
	<advance width="600"/>
	<outline>
		<contour>
			<point x="-505" y="-163" type="line"/>
			<point x="-341" y="-163" type="line" smooth="yes"/>
			<point x="-230" y="-163"/>
			<point x="-170" y="-98"/>
			<point x="-169" y="-22" type="curve" smooth="yes"/>
			<point x="-169" y="72"/>
			<point x="-272" y="132"/>
			<point x="-271" y="197" type="curve" smooth="yes"/>
			<point x="-271" y="227"/>
			<point x="-250" y="262"/>
			<point x="-191" y="262" type="curve" smooth="yes"/>
			<point x="-148" y="262" type="line"/>
			<point x="-148" y="369" type="line"/>
			<point x="-190" y="369" type="line" smooth="yes"/>
			<point x="-249" y="369"/>
			<point x="-270" y="405"/>
			<point x="-270" y="433" type="curve" smooth="yes"/>
			<point x="-272" y="498"/>
			<point x="-169" y="558"/>
			<point x="-169" y="652" type="curve" smooth="yes"/>
			<point x="-170" y="728"/>
			<point x="-227" y="791"/>
			<point x="-341" y="791" type="curve" smooth="yes"/>
			<point x="-506" y="791" type="line"/>
			<point x="-506" y="700" type="line"/>
			<point x="-384" y="700" type="line" smooth="yes"/>
			<point x="-328" y="700"/>
			<point x="-298" y="677"/>
			<point x="-298" y="634" type="curve" smooth="yes"/>
			<point x="-297" y="569"/>
			<point x="-399" y="516"/>
			<point x="-399" y="429" type="curve" smooth="yes"/>
			<point x="-399" y="373"/>
			<point x="-347" y="327"/>
			<point x="-274" y="315" type="curve"/>
			<point x="-347" y="304"/>
			<point x="-398" y="258"/>
			<point x="-398" y="202" type="curve" smooth="yes"/>
			<point x="-398" y="115"/>
			<point x="-297" y="60"/>
			<point x="-298" y="-6" type="curve" smooth="yes"/>
			<point x="-298" y="-52"/>
			<point x="-329" y="-72"/>
			<point x="-380" y="-72" type="curve" smooth="yes"/>
			<point x="-505" y="-72" type="line"/>
		</contour>
		<contour>
			<point x="-58" y="256" type="line"/>
			<point x="-58" y="161" type="line"/>
			<point x="61" y="161" type="line"/>
			<point x="46" y="0" type="line"/>
			<point x="145" y="0" type="line"/>
			<point x="160" y="161" type="line"/>
			<point x="282" y="161" type="line"/>
			<point x="267" y="0" type="line"/>
			<point x="364" y="0" type="line"/>
			<point x="379" y="161" type="line"/>
			<point x="487" y="161" type="line"/>
			<point x="487" y="256" type="line"/>
			<point x="388" y="256" type="line"/>
			<point x="405" y="437" type="line"/>
			<point x="510" y="437" type="line"/>
			<point x="510" y="533" type="line"/>
			<point x="415" y="533" type="line"/>
			<point x="429" y="684" type="line"/>
			<point x="331" y="684" type="line"/>
			<point x="317" y="533" type="line"/>
			<point x="195" y="533" type="line"/>
			<point x="209" y="684" type="line"/>
			<point x="111" y="684" type="line"/>
			<point x="97" y="533" type="line"/>
			<point x="-58" y="533" type="line"/>
			<point x="-58" y="437" type="line"/>
			<point x="88" y="437" type="line"/>
			<point x="70" y="256" type="line"/>
		</contour>
		<contour>
			<point x="169" y="256" type="line"/>
			<point x="186" y="437" type="line"/>
			<point x="308" y="437" type="line"/>
			<point x="291" y="256" type="line"/>
		</contour>
	</outline>
</glyph>
<glyph name="bracketleft_bar.cLig" format="2">
	<advance width="600"/>
	<outline>
		<contour>
			<point x="66" y="-71" type="line"/>
			<point x="-271" y="-71" type="line"/>
			<point x="-271" y="700" type="line"/>
			<point x="66" y="700" type="line"/>
			<point x="66" y="792" type="line"/>
			<point x="-389" y="792" type="line"/>
			<point x="-389" y="-163" type="line"/>
			<point x="66" y="-163" type="line"/>
		</contour>
		<contour>
			<point x="245" y="792" type="line"/>
			<point x="245" y="-163" type="line"/>
			<point x="361" y="-163" type="line"/>
			<point x="361" y="792" type="line"/>
		</contour>
	</outline>
</glyph>
<glyph name="circumflex.cap" format="2">
	<advance width="600"/>
	<outline>
		<contour>
			<point x="115" y="745" type="line"/>
			<point x="226" y="745" type="line"/>
			<point x="300" y="834" type="line"/>
			<point x="373" y="745" type="line"/>
			<point x="484" y="745" type="line"/>
			<point x="364" y="884" type="line"/>
			<point x="235" y="884" type="line"/>
		</contour>
	</outline>
	<anchor name="_top" x="300" y="684"/>
</glyph>
<glyph name="colon_colon.cLig" format="2">
	<advance width="600"/>
	<outline>
		<contour>
			<point x="-219" y="-12" type="curve" smooth="yes"/>
			<point x="-158" y="-12"/>
			<point x="-126" y="11"/>
			<point x="-126" y="73" type="curve" smooth="yes"/>
			<point x="-126" y="133"/>
			<point x="-158" y="155"/>
			<point x="-219" y="155" type="curve" smooth="yes"/>
			<point x="-280" y="155"/>
			<point x="-312" y="133"/>
			<point x="-312" y="73" type="curve" smooth="yes"/>
			<point x="-312" y="11"/>
			<point x="-280" y="-12"/>
		</contour>
		<contour>
			<point x="-219" y="359" type="curve" smooth="yes"/>
			<point x="-158" y="359"/>
			<point x="-126" y="382"/>
			<point x="-126" y="444" type="curve" smooth="yes"/>
			<point x="-126" y="504"/>
			<point x="-158" y="526"/>
			<point x="-219" y="526" type="curve" smooth="yes"/>
			<point x="-280" y="526"/>
			<point x="-312" y="504"/>
			<point x="-312" y="444" type="curve" smooth="yes"/>
			<point x="-312" y="382"/>
			<point x="-280" y="359"/>
		</contour>
		<contour>
			<point x="219" y="-12" type="curve" smooth="yes"/>
			<point x="280" y="-12"/>
			<point x="312" y="11"/>
			<point x="312" y="73" type="curve" smooth="yes"/>
			<point x="312" y="133"/>
			<point x="280" y="155"/>
			<point x="219" y="155" type="curve" smooth="yes"/>
			<point x="158" y="155"/>
			<point x="126" y="133"/>
			<point x="126" y="73" type="curve" smooth="yes"/>
			<point x="126" y="11"/>
			<point x="158" y="-12"/>
		</contour>
		<contour>
			<point x="219" y="359" type="curve" smooth="yes"/>
			<point x="280" y="359"/>
			<point x="312" y="382"/>
			<point x="312" y="444" type="curve" smooth="yes"/>
			<point x="312" y="504"/>
			<point x="280" y="526"/>
			<point x="219" y="526" type="curve" smooth="yes"/>
			<point x="158" y="526"/>
			<point x="126" y="504"/>
			<point x="126" y="444" type="curve" smooth="yes"/>
			<point x="126" y="382"/>
			<point x="158" y="359"/>
		</contour>
	</outline>
</glyph>
<glyph name="colon_colon_equal.cLig" format="2">
	<advance width="600"/>
	<outline>
		<contour>
			<point x="-858" y="59" type="curve" smooth="yes"/>
			<point x="-797" y="59"/>
			<point x="-765" y="82"/>
			<point x="-765" y="144" type="curve" smooth="yes"/>
			<point x="-765" y="204"/>
			<point x="-797" y="226"/>
			<point x="-858" y="226" type="curve" smooth="yes"/>
			<point x="-919" y="226"/>
			<point x="-951" y="204"/>
			<point x="-951" y="144" type="curve" smooth="yes"/>
			<point x="-951" y="82"/>
			<point x="-919" y="59"/>
		</contour>
		<contour>
			<point x="-858" y="350" type="curve" smooth="yes"/>
			<point x="-797" y="350"/>
			<point x="-765" y="373"/>
			<point x="-765" y="435" type="curve" smooth="yes"/>
			<point x="-765" y="495"/>
			<point x="-797" y="517"/>
			<point x="-858" y="517" type="curve" smooth="yes"/>
			<point x="-919" y="517"/>
			<point x="-951" y="495"/>
			<point x="-951" y="435" type="curve" smooth="yes"/>
			<point x="-951" y="373"/>
			<point x="-919" y="350"/>
		</contour>
		<contour>
			<point x="-474" y="59" type="curve" smooth="yes"/>
			<point x="-413" y="59"/>
			<point x="-381" y="82"/>
			<point x="-381" y="144" type="curve" smooth="yes"/>
			<point x="-381" y="204"/>
			<point x="-413" y="226"/>
			<point x="-474" y="226" type="curve" smooth="yes"/>
			<point x="-535" y="226"/>
			<point x="-567" y="204"/>
			<point x="-567" y="144" type="curve" smooth="yes"/>
			<point x="-567" y="82"/>
			<point x="-535" y="59"/>
		</contour>
		<contour>
			<point x="-474" y="350" type="curve" smooth="yes"/>
			<point x="-413" y="350"/>
			<point x="-381" y="373"/>
			<point x="-381" y="435" type="curve" smooth="yes"/>
			<point x="-381" y="495"/>
			<point x="-413" y="517"/>
			<point x="-474" y="517" type="curve" smooth="yes"/>
			<point x="-535" y="517"/>
			<point x="-567" y="495"/>
			<point x="-567" y="435" type="curve" smooth="yes"/>
			<point x="-567" y="373"/>
			<point x="-535" y="350"/>
		</contour>
		<contour>
			<point x="-153.5611510773" y="350" type="line"/>
			<point x="364.9424460573" y="350" type="line"/>
			<point x="364.9424460573" y="456" type="line"/>
			<point x="-153.5611510773" y="456" type="line"/>
		</contour>
		<contour>
			<point x="-153.5611510773" y="131" type="line"/>
			<point x="364.9424460573" y="131" type="line"/>
			<point x="364.9424460573" y="237" type="line"/>
			<point x="-153.5611510773" y="237" type="line"/>
		</contour>
	</outline>
</glyph>
<glyph name="colon_equal.cLig" format="2">
	<advance width="600"/>
	<outline>
		<contour>
			<point x="-334" y="59" type="curve" smooth="yes"/>
			<point x="-273" y="59"/>
			<point x="-241" y="82"/>
			<point x="-241" y="144" type="curve" smooth="yes"/>
			<point x="-241" y="204"/>
			<point x="-273" y="226"/>
			<point x="-334" y="226" type="curve" smooth="yes"/>
			<point x="-395" y="226"/>
			<point x="-427" y="204"/>
			<point x="-427" y="144" type="curve" smooth="yes"/>
			<point x="-427" y="82"/>
			<point x="-395" y="59"/>
		</contour>
		<contour>
			<point x="-334" y="350" type="curve" smooth="yes"/>
			<point x="-273" y="350"/>
			<point x="-241" y="373"/>
			<point x="-241" y="435" type="curve" smooth="yes"/>
			<point x="-241" y="495"/>
			<point x="-273" y="517"/>
			<point x="-334" y="517" type="curve" smooth="yes"/>
			<point x="-395" y="517"/>
			<point x="-427" y="495"/>
			<point x="-427" y="435" type="curve" smooth="yes"/>
			<point x="-427" y="373"/>
			<point x="-395" y="350"/>
		</contour>
		<contour>
			<point x="-66.9366906519" y="350" type="line"/>
			<point x="428.9654675919" y="350" type="line"/>
			<point x="428.9654675919" y="456" type="line"/>
			<point x="-66.9366906519" y="456" type="line"/>
		</contour>
		<contour>
			<point x="-66.9366906519" y="131" type="line"/>
			<point x="428.9654675919" y="131" type="line"/>
			<point x="428.9654675919" y="237" type="line"/>
			<point x="-66.9366906519" y="237" type="line"/>
		</contour>
	</outline>
</glyph>
<glyph name="colon_equal.med" format="2">
	<advance width="600"/>
	<outline>
		<contour>
			<point x="301" y="350" type="curve" smooth="yes"/>
			<point x="362" y="350"/>
			<point x="394" y="373"/>
			<point x="394" y="435" type="curve" smooth="yes"/>
			<point x="394" y="495"/>
			<point x="362" y="517"/>
			<point x="301" y="517" type="curve" smooth="yes"/>
			<point x="240" y="517"/>
			<point x="208" y="495"/>
			<point x="208" y="435" type="curve" smooth="yes"/>
			<point x="208" y="373"/>
			<point x="240" y="350"/>
		</contour>
		<contour>
			<point x="500" y="371" type="line"/>
			<point x="600" y="371" type="line"/>
			<point x="600" y="478" type="line"/>
			<point x="500" y="478" type="line"/>
		</contour>
		<contour>
			<point x="0" y="371" type="line"/>
			<point x="100" y="371" type="line"/>
			<point x="100" y="478" type="line"/>
			<point x="0" y="478" type="line"/>
		</contour>
		<contour>
			<point x="500" y="152" type="line"/>
			<point x="600" y="152" type="line"/>
			<point x="600" y="258" type="line"/>
			<point x="500" y="258" type="line"/>
		</contour>
		<contour>
			<point x="0" y="152" type="line"/>
			<point x="100" y="152" type="line"/>
			<point x="100" y="258" type="line"/>
			<point x="0" y="258" type="line"/>
		</contour>
		<contour>
			<point x="301" y="59" type="curve" smooth="yes"/>
			<point x="362" y="59"/>
			<point x="394" y="82"/>
			<point x="394" y="144" type="curve" smooth="yes"/>
			<point x="394" y="204"/>
			<point x="362" y="226"/>
			<point x="301" y="226" type="curve" smooth="yes"/>
			<point x="240" y="226"/>
			<point x="208" y="204"/>
			<point x="208" y="144" type="curve" smooth="yes"/>
			<point x="208" y="82"/>
			<point x="240" y="59"/>
		</contour>
	</outline>
</glyph>
<glyph name="colon_greater.cLig.x" format="2">
	<advance width="600"/>
	<outline>
		<contour>
			<point x="-7" y="-9" type="line"/>
			<point x="440" y="245" type="line"/>
			<point x="440" y="383" type="line"/>
			<point x="-7" y="639" type="line"/>
			<point x="-7" y="513" type="line"/>
			<point x="350" y="314" type="line"/>
			<point x="-7" y="113" type="line"/>
		</contour>
		<contour>
			<point x="-300" y="411" type="curve" smooth="yes"/>
			<point x="-239" y="411"/>
			<point x="-207" y="434"/>
			<point x="-207" y="496" type="curve" smooth="yes"/>
			<point x="-207" y="556"/>
			<point x="-239" y="578"/>
			<point x="-300" y="578" type="curve" smooth="yes"/>
			<point x="-361" y="578"/>
			<point x="-393" y="556"/>
			<point x="-393" y="496" type="curve" smooth="yes"/>
			<point x="-393" y="434"/>
			<point x="-361" y="411"/>
		</contour>
		<contour>
			<point x="-300" y="40" type="curve" smooth="yes"/>
			<point x="-239" y="40"/>
			<point x="-207" y="63"/>
			<point x="-207" y="125" type="curve" smooth="yes"/>
			<point x="-207" y="185"/>
			<point x="-239" y="207"/>
			<point x="-300" y="207" type="curve" smooth="yes"/>
			<point x="-361" y="207"/>
			<point x="-393" y="185"/>
			<point x="-393" y="125" type="curve" smooth="yes"/>
			<point x="-393" y="63"/>
			<point x="-361" y="40"/>
		</contour>
	</outline>
</glyph>
<glyph name="cordinal" format="2">
	<advance width="600"/>
	<outline>
		<contour>
			<point x="364" y="225" type="curve" smooth="yes"/>
			<point x="411" y="225"/>
			<point x="453" y="235"/>
			<point x="482" y="248" type="curve"/>
			<point x="482" y="328" type="line"/>
			<point x="454" y="316"/>
			<point x="417" y="307"/>
			<point x="376" y="307" type="curve" smooth="yes"/>
			<point x="281" y="307"/>
			<point x="221" y="361"/>
			<point x="221" y="463" type="curve" smooth="yes"/>
			<point x="221" y="563"/>
			<point x="281" y="614"/>
			<point x="374" y="614" type="curve" smooth="yes"/>
			<point x="414" y="614"/>
			<point x="452" y="604"/>
			<point x="482" y="590" type="curve"/>
			<point x="482" y="673" type="line"/>
			<point x="451" y="688"/>
			<point x="410" y="695"/>
			<point x="361" y="695" type="curve" smooth="yes"/>
			<point x="214" y="695"/>
			<point x="114" y="609"/>
			<point x="114" y="461" type="curve" smooth="yes"/>
			<point x="114" y="311"/>
			<point x="211" y="225"/>
		</contour>
	</outline>
</glyph>
<glyph name="dieresis.cap" format="2">
	<advance width="600"/>
	<outline>
		<contour>
			<point x="401" y="870" type="curve" smooth="yes"/>
			<point x="351" y="870"/>
			<point x="334" y="850"/>
			<point x="334" y="810" type="curve" smooth="yes"/>
			<point x="334" y="771"/>
			<point x="350" y="751"/>
			<point x="401" y="751" type="curve" smooth="yes"/>
			<point x="452" y="751"/>
			<point x="470" y="772"/>
			<point x="470" y="810" type="curve" smooth="yes"/>
			<point x="470" y="850"/>
			<point x="452" y="870"/>
		</contour>
		<contour>
			<point x="199" y="751" type="curve" smooth="yes"/>
			<point x="250" y="751"/>
			<point x="266" y="772"/>
			<point x="266" y="810" type="curve" smooth="yes"/>
			<point x="266" y="850"/>
			<point x="250" y="870"/>
			<point x="199" y="870" type="curve" smooth="yes"/>
			<point x="149" y="870"/>
			<point x="130" y="850"/>
			<point x="130" y="810" type="curve" smooth="yes"/>
			<point x="130" y="771"/>
			<point x="148" y="751"/>
		</contour>
	</outline>
	<anchor name="_top" x="300" y="684"/>
</glyph>
<glyph name="eight.numr" format="2">
	<advance width="600"/>
	<outline>
		<contour>
			<point x="299" y="366" type="curve" smooth="yes"/>
			<point x="384" y="366"/>
			<point x="439" y="398"/>
			<point x="439" y="464" type="curve" smooth="yes"/>
			<point x="439" y="510"/>
			<point x="409" y="538"/>
			<point x="365" y="548" type="curve"/>
			<point x="404" y="558"/>
			<point x="432" y="588"/>
			<point x="432" y="629" type="curve" smooth="yes"/>
			<point x="432" y="694"/>
			<point x="380" y="724"/>
			<point x="301" y="724" type="curve" smooth="yes"/>
			<point x="220" y="724"/>
			<point x="167" y="694"/>
			<point x="167" y="629" type="curve" smooth="yes"/>
			<point x="167" y="585"/>
			<point x="197" y="556"/>
			<point x="236" y="549" type="curve"/>
			<point x="194" y="539"/>
			<point x="161" y="513"/>
			<point x="161" y="463" type="curve" smooth="yes"/>
			<point x="161" y="397"/>
			<point x="213" y="366"/>
		</contour>
		<contour>
			<point x="300" y="576" type="curve" smooth="yes"/>
			<point x="265" y="576"/>
			<point x="241" y="590"/>
			<point x="241" y="623" type="curve" smooth="yes"/>
			<point x="241" y="658"/>
			<point x="266" y="670"/>
			<point x="300" y="670" type="curve" smooth="yes"/>
			<point x="333" y="670"/>
			<point x="358" y="658"/>
			<point x="358" y="623" type="curve" smooth="yes"/>
			<point x="358" y="591"/>
			<point x="334" y="576"/>
		</contour>
		<contour>
			<point x="300" y="422" type="curve" smooth="yes"/>
			<point x="260" y="422"/>
			<point x="238" y="435"/>
			<point x="238" y="472" type="curve" smooth="yes"/>
			<point x="238" y="507"/>
			<point x="263" y="520"/>
			<point x="300" y="520" type="curve" smooth="yes"/>
			<point x="336" y="520"/>
			<point x="362" y="507"/>
			<point x="362" y="472" type="curve" smooth="yes"/>
			<point x="362" y="437"/>
			<point x="339" y="422"/>
		</contour>
	</outline>
</glyph>
<glyph name="equal.den" format="2">
	<advance width="600"/>
	<outline>
		<contour>
			<point x="144" y="293" type="line"/>
			<point x="144" y="223" type="line"/>
			<point x="456" y="223" type="line"/>
			<point x="456" y="293" type="line"/>
		</contour>
		<contour>
			<point x="144" y="155" type="line"/>
			<point x="144" y="86" type="line"/>
			<point x="456" y="86" type="line"/>
			<point x="456" y="155" type="line"/>
		</contour>
	</outline>
</glyph>
<glyph name="equal.init" format="2">
	<advance width="600"/>
	<outline>
		<contour>
			<point x="165" y="371" type="line"/>
			<point x="600" y="371" type="line"/>
			<point x="600" y="478" type="line"/>
			<point x="165" y="478" type="line"/>
		</contour>
		<contour>
			<point x="165" y="151" type="line"/>
			<point x="600" y="151" type="line"/>
			<point x="600" y="258" type="line"/>
			<point x="165" y="258" type="line"/>
		</contour>
	</outline>
	<guideline x="382.7769784173" y="591.3309352518" angle="270" identifier="c2Y1Sn7BVk"/>
</glyph>
<glyph name="equal_colon_equal.rem" format="2">
	<advance width="600"/>
	<outline>
		<contour>
			<point x="-300" y="59" type="curve" smooth="yes"/>
			<point x="-239" y="59"/>
			<point x="-207" y="82"/>
			<point x="-207" y="144" type="curve" smooth="yes"/>
			<point x="-207" y="204"/>
			<point x="-239" y="226"/>
			<point x="-300" y="226" type="curve" smooth="yes"/>
			<point x="-361" y="226"/>
			<point x="-393" y="204"/>
			<point x="-393" y="144" type="curve" smooth="yes"/>
			<point x="-393" y="82"/>
			<point x="-361" y="59"/>
		</contour>
		<contour>
			<point x="-300" y="350" type="curve" smooth="yes"/>
			<point x="-239" y="350"/>
			<point x="-207" y="373"/>
			<point x="-207" y="435" type="curve" smooth="yes"/>
			<point x="-207" y="495"/>
			<point x="-239" y="517"/>
			<point x="-300" y="517" type="curve" smooth="yes"/>
			<point x="-361" y="517"/>
			<point x="-393" y="495"/>
			<point x="-393" y="435" type="curve" smooth="yes"/>
			<point x="-393" y="373"/>
			<point x="-361" y="350"/>
		</contour>
		<contour>
			<point x="-1035.6244604323" y="350" type="line"/>
			<point x="-551.0230215877" y="350" type="line"/>
			<point x="-551.0230215877" y="456" type="line"/>
			<point x="-1035.6244604323" y="456" type="line"/>
		</contour>
		<contour>
			<point x="-1035.6244604323" y="131" type="line"/>
			<point x="-551.0230215877" y="131" type="line"/>
			<point x="-551.0230215877" y="237" type="line"/>
			<point x="-1035.6244604323" y="237" type="line"/>
		</contour>
		<contour>
			<point x="-48.6244604323" y="350" type="line"/>
			<point x="435.9769784123" y="350" type="line"/>
			<point x="435.9769784123" y="456" type="line"/>
			<point x="-48.6244604323" y="456" type="line"/>
		</contour>
		<contour>
			<point x="-48.6244604323" y="131" type="line"/>
			<point x="435.9769784123" y="131" type="line"/>
			<point x="435.9769784123" y="237" type="line"/>
			<point x="-48.6244604323" y="237" type="line"/>
		</contour>
	</outline>
</glyph>
<glyph name="equal_equal_greater.rem" format="2">
	<advance width="600"/>
	<outline>
		<contour>
			<point x="-1035" y="151" type="line"/>
			<point x="194" y="151" type="line"/>
			<point x="65" y="0" type="line"/>
			<point x="209" y="0" type="line"/>
			<point x="478" y="314" type="line"/>
			<point x="206" y="629" type="line"/>
			<point x="62" y="629" type="line"/>
			<point x="194" y="478" type="line"/>
			<point x="-1035" y="478" type="line"/>
			<point x="-1035" y="371" type="line"/>
			<point x="286" y="371" type="line"/>
			<point x="334" y="315" type="line"/>
			<point x="285" y="258" type="line"/>
			<point x="-1035" y="258" type="line"/>
		</contour>
	</outline>
</glyph>
<glyph name="equal_less_less.rem" format="2">
	<advance width="600"/>
	<outline>
		<contour>
			<point x="507" y="629" type="line"/>
			<point x="361" y="629" type="line"/>
			<point x="90" y="315" type="line"/>
			<point x="364" y="0" type="line"/>
			<point x="510" y="0" type="line"/>
			<point x="236" y="315" type="line"/>
		</contour>
		<contour>
			<point x="117" y="629" type="line"/>
			<point x="-28" y="629" type="line"/>
			<point x="-153" y="478" type="line"/>
			<point x="-1035" y="478" type="line"/>
			<point x="-1035" y="371" type="line"/>
			<point x="-97" y="371" type="line"/>
		</contour>
		<contour>
			<point x="-97" y="258" type="line"/>
			<point x="-1035" y="258" type="line"/>
			<point x="-1035" y="151" type="line"/>
			<point x="-152" y="151" type="line"/>
			<point x="-25" y="0" type="line"/>
			<point x="120" y="0" type="line"/>
		</contour>
	</outline>
</glyph>
<glyph name="equal_slash_equal.rem" format="2">
	<advance width="600"/>
	<outline>
		<contour>
			<point x="-1035" y="135" type="line"/>
			<point x="-454" y="135" type="line"/>
			<point x="-588" y="-77" type="line"/>
			<point x="-473" y="-77" type="line"/>
			<point x="-340" y="135" type="line"/>
			<point x="435" y="135" type="line"/>
			<point x="435" y="241" type="line"/>
			<point x="-273" y="241" type="line"/>
			<point x="-202" y="354" type="line"/>
			<point x="435" y="354" type="line"/>
			<point x="435" y="460" type="line"/>
			<point x="-135" y="460" type="line"/>
			<point x="-17" y="647" type="line"/>
			<point x="-132" y="647" type="line"/>
			<point x="-249" y="460" type="line"/>
			<point x="-1035" y="460" type="line"/>
			<point x="-1035" y="354" type="line"/>
			<point x="-316" y="354" type="line"/>
			<point x="-387" y="241" type="line"/>
			<point x="-1035" y="241" type="line"/>
		</contour>
	</outline>
</glyph>
<glyph name="exclam_equal.cLig" format="2">
	<advance width="600"/>
	<outline>
		<contour>
			<point x="-435" y="131" type="line"/>
			<point x="-154" y="131" type="line"/>
			<point x="-285" y="-77" type="line"/>
			<point x="-171" y="-77" type="line"/>
			<point x="-40" y="131" type="line"/>
			<point x="435" y="131" type="line"/>
			<point x="435" y="237" type="line"/>
			<point x="27" y="237" type="line"/>
			<point x="98" y="350" type="line"/>
			<point x="435" y="350" type="line"/>
			<point x="435" y="456" type="line"/>
			<point x="165" y="456" type="line"/>
			<point x="285" y="647" type="line"/>
			<point x="171" y="647" type="line"/>
			<point x="51" y="456" type="line"/>
			<point x="-435" y="456" type="line"/>
			<point x="-435" y="350" type="line"/>
			<point x="-16" y="350" type="line"/>
			<point x="-87" y="237" type="line"/>
			<point x="-435" y="237" type="line"/>
		</contour>
	</outline>
</glyph>
<glyph name="exclam_equal_equal.cLig" format="2">
	<advance width="600"/>
	<outline>
		<contour>
			<point x="-1050" y="57" type="line"/>
			<point x="-508" y="57" type="line"/>
			<point x="-590" y="-80" type="line"/>
			<point x="-469" y="-80" type="line"/>
			<point x="-387" y="57" type="line"/>
			<point x="450" y="57" type="line"/>
			<point x="450" y="157" type="line"/>
			<point x="-328" y="157" type="line"/>
			<point x="-264" y="263" type="line"/>
			<point x="450" y="263" type="line"/>
			<point x="450" y="363" type="line"/>
			<point x="-205" y="363" type="line"/>
			<point x="-141" y="470" type="line"/>
			<point x="450" y="470" type="line"/>
			<point x="450" y="569" type="line"/>
			<point x="-82" y="569" type="line"/>
			<point x="-10" y="690" type="line"/>
			<point x="-131" y="690" type="line"/>
			<point x="-203" y="569" type="line"/>
			<point x="-1050" y="569" type="line"/>
			<point x="-1050" y="470" type="line"/>
			<point x="-262" y="470" type="line"/>
			<point x="-326" y="363" type="line"/>
			<point x="-1050" y="363" type="line"/>
			<point x="-1050" y="263" type="line"/>
			<point x="-385" y="263" type="line"/>
			<point x="-449" y="157" type="line"/>
			<point x="-1050" y="157" type="line"/>
		</contour>
	</outline>
</glyph>
<glyph name="exclam_exclam_exclam.rem" format="2">
	<advance width="600"/>
	<outline>
		<contour>
			<point x="-828" y="219" type="line"/>
			<point x="-738" y="219" type="line"/>
			<point x="-714" y="552" type="line"/>
			<point x="-714" y="684" type="line"/>
			<point x="-851" y="684" type="line"/>
			<point x="-851" y="552" type="line"/>
		</contour>
		<contour>
			<point x="-781" y="-12" type="curve" smooth="yes"/>
			<point x="-726" y="-12"/>
			<point x="-698" y="9"/>
			<point x="-698" y="64" type="curve" smooth="yes"/>
			<point x="-698" y="118"/>
			<point x="-726" y="140"/>
			<point x="-781" y="140" type="curve" smooth="yes"/>
			<point x="-838" y="140"/>
			<point x="-866" y="118"/>
			<point x="-866" y="64" type="curve" smooth="yes"/>
			<point x="-866" y="9"/>
			<point x="-838" y="-12"/>
		</contour>
		<contour>
			<point x="-345" y="219" type="line"/>
			<point x="-255" y="219" type="line"/>
			<point x="-231" y="552" type="line"/>
			<point x="-231" y="684" type="line"/>
			<point x="-368" y="684" type="line"/>
			<point x="-368" y="552" type="line"/>
		</contour>
		<contour>
			<point x="-298" y="-12" type="curve" smooth="yes"/>
			<point x="-243" y="-12"/>
			<point x="-215" y="9"/>
			<point x="-215" y="64" type="curve" smooth="yes"/>
			<point x="-215" y="118"/>
			<point x="-243" y="140"/>
			<point x="-298" y="140" type="curve" smooth="yes"/>
			<point x="-355" y="140"/>
			<point x="-383" y="118"/>
			<point x="-383" y="64" type="curve" smooth="yes"/>
			<point x="-383" y="9"/>
			<point x="-355" y="-12"/>
		</contour>
		<contour>
			<point x="137" y="219" type="line"/>
			<point x="227" y="219" type="line"/>
			<point x="251" y="552" type="line"/>
			<point x="251" y="684" type="line"/>
			<point x="114" y="684" type="line"/>
			<point x="114" y="552" type="line"/>
		</contour>
		<contour>
			<point x="184" y="-12" type="curve" smooth="yes"/>
			<point x="239" y="-12"/>
			<point x="267" y="9"/>
			<point x="267" y="64" type="curve" smooth="yes"/>
			<point x="267" y="118"/>
			<point x="239" y="140"/>
			<point x="184" y="140" type="curve" smooth="yes"/>
			<point x="127" y="140"/>
			<point x="99" y="118"/>
			<point x="99" y="64" type="curve" smooth="yes"/>
			<point x="99" y="9"/>
			<point x="127" y="-12"/>
		</contour>
	</outline>
</glyph>
<glyph name="exclam_exclam_period.cLig" format="2">
	<advance width="600"/>
	<outline>
		<contour>
			<point x="-828" y="219" type="line"/>
			<point x="-738" y="219" type="line"/>
			<point x="-714" y="552" type="line"/>
			<point x="-714" y="684" type="line"/>
			<point x="-851" y="684" type="line"/>
			<point x="-851" y="552" type="line"/>
		</contour>
		<contour>
			<point x="-781" y="-12" type="curve" smooth="yes"/>
			<point x="-726" y="-12"/>
			<point x="-698" y="9"/>
			<point x="-698" y="64" type="curve" smooth="yes"/>
			<point x="-698" y="118"/>
			<point x="-726" y="140"/>
			<point x="-781" y="140" type="curve" smooth="yes"/>
			<point x="-838" y="140"/>
			<point x="-866" y="118"/>
			<point x="-866" y="64" type="curve" smooth="yes"/>
			<point x="-866" y="9"/>
			<point x="-838" y="-12"/>
		</contour>
		<contour>
			<point x="-345" y="219" type="line"/>
			<point x="-255" y="219" type="line"/>
			<point x="-231" y="552" type="line"/>
			<point x="-231" y="684" type="line"/>
			<point x="-368" y="684" type="line"/>
			<point x="-368" y="552" type="line"/>
		</contour>
		<contour>
			<point x="-298" y="-12" type="curve" smooth="yes"/>
			<point x="-243" y="-12"/>
			<point x="-215" y="9"/>
			<point x="-215" y="64" type="curve" smooth="yes"/>
			<point x="-215" y="118"/>
			<point x="-243" y="140"/>
			<point x="-298" y="140" type="curve" smooth="yes"/>
			<point x="-355" y="140"/>
			<point x="-383" y="118"/>
			<point x="-383" y="64" type="curve" smooth="yes"/>
			<point x="-383" y="9"/>
			<point x="-355" y="-12"/>
		</contour>
		<contour>
			<point x="185" y="-12" type="curve" smooth="yes"/>
			<point x="246" y="-12"/>
			<point x="278" y="11"/>
			<point x="278" y="73" type="curve" smooth="yes"/>
			<point x="278" y="133"/>
			<point x="246" y="155"/>
			<point x="185" y="155" type="curve" smooth="yes"/>
			<point x="124" y="155"/>
			<point x="92" y="133"/>
			<point x="92" y="73" type="curve" smooth="yes"/>
			<point x="92" y="11"/>
			<point x="124" y="-12"/>
		</contour>
	</outline>
</glyph>
<glyph name="five.numr" format="2">
	<advance width="600"/>
	<outline>
		<contour>
			<point x="294" y="366" type="curve" smooth="yes"/>
			<point x="375" y="366"/>
			<point x="427" y="413"/>
			<point x="427" y="486" type="curve" smooth="yes"/>
			<point x="427" y="555"/>
			<point x="388" y="586"/>
			<point x="311" y="586" type="curve" smooth="yes"/>
			<point x="291" y="586"/>
			<point x="274" y="585"/>
			<point x="258" y="582" type="curve"/>
			<point x="258" y="657" type="line"/>
			<point x="419" y="657" type="line"/>
			<point x="419" y="718" type="line"/>
			<point x="189" y="718" type="line"/>
			<point x="189" y="518" type="line"/>
			<point x="222" y="526"/>
			<point x="250" y="531"/>
			<point x="278" y="531" type="curve" smooth="yes"/>
			<point x="331" y="531"/>
			<point x="350" y="513"/>
			<point x="350" y="483" type="curve" smooth="yes"/>
			<point x="350" y="450"/>
			<point x="329" y="427"/>
			<point x="286" y="427" type="curve" smooth="yes"/>
			<point x="251" y="427"/>
			<point x="214" y="438"/>
			<point x="176" y="463" type="curve"/>
			<point x="176" y="397" type="line"/>
			<point x="207" y="377"/>
			<point x="245" y="366"/>
		</contour>
	</outline>
</glyph>
<glyph name="four.den" format="2">
	<advance width="600"/>
	<outline>
		<contour>
			<point x="331" y="0" type="line"/>
			<point x="415" y="0" type="line"/>
			<point x="415" y="75" type="line"/>
			<point x="458" y="75" type="line"/>
			<point x="458" y="144" type="line"/>
			<point x="415" y="144" type="line"/>
			<point x="415" y="410" type="line"/>
			<point x="288" y="410" type="line"/>
			<point x="130" y="144" type="line"/>
			<point x="130" y="76" type="line"/>
			<point x="331" y="76" type="line"/>
		</contour>
		<contour>
			<point x="211" y="144" type="line"/>
			<point x="331" y="354" type="line"/>
			<point x="331" y="144" type="line"/>
		</contour>
	</outline>
</glyph>
<glyph name="greater_colon.cLig.x" format="2">
	<advance width="600"/>
	<outline>
		<contour>
			<point x="-430" y="-9" type="line"/>
			<point x="17" y="245" type="line"/>
			<point x="17" y="383" type="line"/>
			<point x="-430" y="639" type="line"/>
			<point x="-430" y="513" type="line"/>
			<point x="-74" y="314" type="line"/>
			<point x="-430" y="113" type="line"/>
		</contour>
		<contour>
			<point x="305" y="411" type="curve" smooth="yes"/>
			<point x="366" y="411"/>
			<point x="398" y="434"/>
			<point x="398" y="496" type="curve" smooth="yes"/>
			<point x="398" y="556"/>
			<point x="366" y="578"/>
			<point x="305" y="578" type="curve" smooth="yes"/>
			<point x="244" y="578"/>
			<point x="212" y="556"/>
			<point x="212" y="496" type="curve" smooth="yes"/>
			<point x="212" y="434"/>
			<point x="244" y="411"/>
		</contour>
		<contour>
			<point x="305" y="40" type="curve" smooth="yes"/>
			<point x="366" y="40"/>
			<point x="398" y="63"/>
			<point x="398" y="125" type="curve" smooth="yes"/>
			<point x="398" y="185"/>
			<point x="366" y="207"/>
			<point x="305" y="207" type="curve" smooth="yes"/>
			<point x="244" y="207"/>
			<point x="212" y="185"/>
			<point x="212" y="125" type="curve" smooth="yes"/>
			<point x="212" y="63"/>
			<point x="244" y="40"/>
		</contour>
	</outline>
</glyph>
<glyph name="greater_equal.cLig" format="2">
	<advance width="600"/>
	<outline>
		<contour>
			<point x="-291" y="171" type="line"/>
			<point x="301" y="388" type="line"/>
			<point x="301" y="526" type="line"/>
			<point x="-291" y="745" type="line"/>
			<point x="-291" y="629" type="line"/>
			<point x="200" y="459" type="line"/>
			<point x="-291" y="287" type="line"/>
		</contour>
		<contour>
			<point x="-291" y="-68" type="line"/>
			<point x="301" y="148" type="line"/>
			<point x="301" y="256" type="line"/>
			<point x="-291" y="40" type="line"/>
		</contour>
	</outline>
</glyph>
<glyph name="greater_equal.init" format="2">
	<advance width="600"/>
	<outline>
		<contour>
			<point x="267" y="371" type="line"/>
			<point x="600" y="371" type="line"/>
			<point x="600" y="478" type="line"/>
			<point x="322" y="478" type="line"/>
			<point x="195" y="629" type="line"/>
			<point x="50" y="629" type="line"/>
		</contour>
		<contour>
			<point x="53" y="0" type="line"/>
			<point x="198" y="0" type="line"/>
			<point x="323" y="151" type="line"/>
			<point x="600" y="151" type="line"/>
			<point x="600" y="258" type="line"/>
			<point x="267" y="258" type="line"/>
		</contour>
	</outline>
</glyph>
<glyph name="greater_greater_equal.rem" format="2">
	<advance width="600"/>
	<outline>
		<contour>
			<point x="-1107" y="0" type="line"/>
			<point x="-961" y="0" type="line"/>
			<point x="-690" y="314" type="line"/>
			<point x="-964" y="629" type="line"/>
			<point x="-1110" y="629" type="line"/>
			<point x="-836" y="314" type="line"/>
		</contour>
		<contour>
			<point x="-503" y="371" type="line"/>
			<point x="435" y="371" type="line"/>
			<point x="435" y="478" type="line"/>
			<point x="-448" y="478" type="line"/>
			<point x="-575" y="629" type="line"/>
			<point x="-720" y="629" type="line"/>
		</contour>
		<contour>
			<point x="-717" y="0" type="line"/>
			<point x="-572" y="0" type="line"/>
			<point x="-447" y="151" type="line"/>
			<point x="435" y="151" type="line"/>
			<point x="435" y="258" type="line"/>
			<point x="-503" y="258" type="line"/>
		</contour>
	</outline>
</glyph>
<glyph name="greater_greater_hyphen.rem" format="2">
	<advance width="600"/>
	<outline>
		<contour>
			<point x="-1079" y="0" type="line"/>
			<point x="-932" y="0" type="line"/>
			<point x="-661" y="314" type="line"/>
			<point x="-935" y="629" type="line"/>
			<point x="-1082" y="629" type="line"/>
			<point x="-808" y="315" type="line"/>
		</contour>
		<contour>
			<point x="-692" y="0" type="line"/>
			<point x="-546" y="0" type="line"/>
			<point x="-323" y="258" type="line"/>
			<point x="469" y="258" type="line"/>
			<point x="469" y="371" type="line"/>
			<point x="-325" y="371" type="line"/>
			<point x="-549" y="629" type="line"/>
			<point x="-695" y="629" type="line"/>
			<point x="-424" y="314" type="line"/>
		</contour>
	</outline>
</glyph>
<glyph name="greater_hyphen.fina" format="2">
	<advance width="600"/>
	<outline>
		<contour>
			<point x="103" y="629" type="line"/>
			<point x="339" y="371" type="line"/>
			<point x="0" y="371" type="line"/>
			<point x="0" y="258" type="line"/>
			<point x="340" y="258" type="line"/>
			<point x="106" y="0" type="line"/>
			<point x="252" y="0" type="line"/>
			<point x="525" y="314" type="line"/>
			<point x="249" y="629" type="line"/>
		</contour>
	</outline>
</glyph>
<glyph name="greater_hyphen.med" format="2">
	<advance width="600"/>
	<outline>
		<contour>
			<point x="107" y="0" type="line"/>
			<point x="251" y="0" type="line"/>
			<point x="475" y="257" type="line"/>
			<point x="600" y="257" type="line"/>
			<point x="600" y="370" type="line"/>
			<point x="475" y="370" type="line"/>
			<point x="248" y="629" type="line"/>
			<point x="104" y="629" type="line"/>
			<point x="338" y="370" type="line"/>
			<point x="0" y="370" type="line"/>
			<point x="0" y="257" type="line"/>
			<point x="337" y="257" type="line"/>
		</contour>
	</outline>
</glyph>
<glyph name="hungarumlaut.cap" format="2">
	<advance width="600"/>
	<outline>
		<contour>
			<point x="299" y="745" type="line"/>
			<point x="382" y="745" type="line"/>
			<point x="466" y="884" type="line"/>
			<point x="354" y="884" type="line"/>
		</contour>
		<contour>
			<point x="133" y="745" type="line"/>
			<point x="216" y="745" type="line"/>
			<point x="300" y="884" type="line"/>
			<point x="186" y="884" type="line"/>
		</contour>
	</outline>
	<anchor name="_top" x="258" y="684"/>
</glyph>
<glyph name="hyphen_asciitilde.cLig" format="2">
	<advance width="600"/>
	<outline>
		<contour>
			<point x="-415" y="252" type="line"/>
			<point x="1" y="252" type="line"/>
			<point x="7" y="295"/>
			<point x="27" y="321"/>
			<point x="59" y="321" type="curve" smooth="yes"/>
			<point x="124" y="321"/>
			<point x="151" y="196"/>
			<point x="264" y="196" type="curve" smooth="yes"/>
			<point x="349" y="196"/>
			<point x="402" y="253"/>
			<point x="402" y="417" type="curve"/>
			<point x="304" y="417" type="line"/>
			<point x="304" y="343"/>
			<point x="289" y="311"/>
			<point x="250" y="311" type="curve"/>
			<point x="186" y="311"/>
			<point x="151" y="434"/>
			<point x="47" y="434" type="curve" smooth="yes"/>
			<point x="-5" y="434"/>
			<point x="-42" y="411"/>
			<point x="-64" y="365" type="curve"/>
			<point x="-415" y="365" type="line"/>
		</contour>
	</outline>
</glyph>
<glyph name="hyphen_greater.rem" format="2">
	<advance width="600"/>
	<outline>
		<contour>
			<point x="-435" y="258" type="line"/>
			<point x="268" y="258" type="line"/>
			<point x="34" y="0" type="line"/>
			<point x="180" y="0" type="line"/>
			<point x="453" y="314" type="line"/>
			<point x="177" y="629" type="line"/>
			<point x="31" y="629" type="line"/>
			<point x="267" y="371" type="line"/>
			<point x="-435" y="371" type="line"/>
		</contour>
	</outline>
</glyph>
<glyph name="hyphen_greater_greater.rem" format="2">
	<advance width="600"/>
	<outline>
		<contour>
			<point x="55" y="0" type="line"/>
			<point x="199" y="0" type="line"/>
			<point x="468" y="314" type="line"/>
			<point x="196" y="629" type="line"/>
			<point x="52" y="629" type="line"/>
			<point x="320" y="315" type="line"/>
		</contour>
		<contour>
			<point x="-1045" y="258" type="line"/>
			<point x="-118" y="258" type="line"/>
			<point x="-351" y="0" type="line"/>
			<point x="-206" y="0" type="line"/>
			<point x="68" y="314" type="line"/>
			<point x="-209" y="629" type="line"/>
			<point x="-354" y="629" type="line"/>
			<point x="-118" y="371" type="line"/>
			<point x="-1045" y="371" type="line"/>
		</contour>
	</outline>
</glyph>
<glyph name="hyphen_less_less.rem" format="2">
	<advance width="600"/>
	<outline>
		<contour>
			<point x="479" y="629" type="line"/>
			<point x="332" y="629" type="line"/>
			<point x="61" y="315" type="line"/>
			<point x="335" y="0" type="line"/>
			<point x="482" y="0" type="line"/>
			<point x="208" y="314" type="line"/>
		</contour>
		<contour>
			<point x="92" y="629" type="line"/>
			<point x="-54" y="629" type="line"/>
			<point x="-277" y="371" type="line"/>
			<point x="-1069" y="371" type="line"/>
			<point x="-1069" y="258" type="line"/>
			<point x="-275" y="258" type="line"/>
			<point x="-51" y="0" type="line"/>
			<point x="95" y="0" type="line"/>
			<point x="-176" y="315" type="line"/>
		</contour>
	</outline>
</glyph>
<glyph name="less_asciitilde_asciitilde.cLig" format="2">
	<advance width="600"/>
	<outline>
		<contour>
			<point x="-686" y="0" type="line"/>
			<point x="-922" y="258" type="line"/>
			<point x="-594" y="258" type="line"/>
			<point x="-564" y="213"/>
			<point x="-523" y="192"/>
			<point x="-480" y="192" type="curve" smooth="yes"/>
			<point x="-364" y="192"/>
			<point x="-357" y="322"/>
			<point x="-278" y="322" type="curve" smooth="yes"/>
			<point x="-203" y="322"/>
			<point x="-188" y="195"/>
			<point x="-78" y="195" type="curve" smooth="yes"/>
			<point x="35" y="195"/>
			<point x="48" y="323"/>
			<point x="121" y="323" type="curve"/>
			<point x="196" y="323"/>
			<point x="211" y="194"/>
			<point x="330" y="194" type="curve" smooth="yes"/>
			<point x="425" y="194"/>
			<point x="496" y="272"/>
			<point x="515" y="419" type="curve"/>
			<point x="414" y="419" type="line"/>
			<point x="404" y="351"/>
			<point x="373" y="310"/>
			<point x="325" y="310" type="curve" smooth="yes"/>
			<point x="250" y="310"/>
			<point x="235" y="436"/>
			<point x="121" y="436" type="curve"/>
			<point x="7" y="436"/>
			<point x="2" y="310"/>
			<point x="-76" y="310" type="curve" smooth="yes"/>
			<point x="-152" y="310"/>
			<point x="-160" y="436"/>
			<point x="-276" y="436" type="curve" smooth="yes"/>
			<point x="-391" y="436"/>
			<point x="-394" y="306"/>
			<point x="-471" y="306" type="curve" smooth="yes"/>
			<point x="-508" y="306"/>
			<point x="-530" y="329"/>
			<point x="-549" y="371" type="curve"/>
			<point x="-923" y="371" type="line"/>
			<point x="-690" y="629" type="line"/>
			<point x="-835" y="629" type="line"/>
			<point x="-1109" y="315" type="line"/>
			<point x="-832" y="0" type="line"/>
		</contour>
	</outline>
</glyph>
<glyph name="less_asterisk.cLig" format="2">
	<advance width="600"/>
	<outline>
		<contour>
			<point x="-53" y="-9" type="line"/>
			<point x="-53" y="115" type="line"/>
			<point x="-411" y="315" type="line"/>
			<point x="-53" y="514" type="line"/>
			<point x="-53" y="639" type="line"/>
			<point x="-500" y="383" type="line"/>
			<point x="-500" y="245" type="line"/>
		</contour>
		<contour>
			<point x="430" y="143" type="line"/>
			<point x="490" y="248" type="line"/>
			<point x="308" y="317" type="line"/>
			<point x="492" y="386" type="line"/>
			<point x="432" y="491" type="line"/>
			<point x="279" y="367" type="line"/>
			<point x="312" y="560" type="line"/>
			<point x="191" y="560" type="line"/>
			<point x="222" y="367" type="line"/>
			<point x="68" y="492" type="line"/>
			<point x="8" y="388" type="line"/>
			<point x="194" y="318" type="line"/>
			<point x="9" y="248" type="line"/>
			<point x="69" y="143" type="line"/>
			<point x="222" y="268" type="line"/>
			<point x="191" y="73" type="line"/>
			<point x="312" y="73" type="line"/>
			<point x="279" y="268" type="line"/>
		</contour>
	</outline>
</glyph>
<glyph name="less_asterisk_greater.cLig" format="2">
	<advance width="600"/>
	<outline>
		<contour>
			<point x="38" y="-9" type="line"/>
			<point x="485" y="245" type="line"/>
			<point x="485" y="383" type="line"/>
			<point x="38" y="639" type="line"/>
			<point x="38" y="514" type="line"/>
			<point x="397" y="315" type="line"/>
			<point x="38" y="115" type="line"/>
		</contour>
		<contour>
			<point x="-638" y="-9" type="line"/>
			<point x="-638" y="115" type="line"/>
			<point x="-997" y="315" type="line"/>
			<point x="-638" y="514" type="line"/>
			<point x="-638" y="639" type="line"/>
			<point x="-1085" y="383" type="line"/>
			<point x="-1085" y="245" type="line"/>
		</contour>
		<contour>
			<point x="-120" y="143" type="line"/>
			<point x="-59" y="248" type="line"/>
			<point x="-241" y="317" type="line"/>
			<point x="-57" y="386" type="line"/>
			<point x="-118" y="491" type="line"/>
			<point x="-270" y="367" type="line"/>
			<point x="-238" y="560" type="line"/>
			<point x="-359" y="560" type="line"/>
			<point x="-327" y="367" type="line"/>
			<point x="-481" y="492" type="line"/>
			<point x="-542" y="388" type="line"/>
			<point x="-356" y="318" type="line"/>
			<point x="-540" y="248" type="line"/>
			<point x="-480" y="143" type="line"/>
			<point x="-327" y="268" type="line"/>
			<point x="-359" y="73" type="line"/>
			<point x="-238" y="73" type="line"/>
			<point x="-270" y="268" type="line"/>
		</contour>
	</outline>
</glyph>
<glyph name="less_bar.cLig" format="2">
	<advance width="600"/>
	<outline>
		<contour>
			<point x="286" y="708" type="line"/>
			<point x="167" y="708" type="line"/>
			<point x="-363" y="383" type="line"/>
			<point x="-362" y="245" type="line"/>
			<point x="168" y="-79" type="line"/>
			<point x="286" y="-79" type="line"/>
		</contour>
		<contour>
			<point x="171" y="55" type="line"/>
			<point x="-261" y="313" type="line"/>
			<point x="171" y="576" type="line"/>
		</contour>
	</outline>
</glyph>
<glyph name="less_bar_bar_bar.cLig" format="2">
	<advance width="600"/>
	<outline>
		<contour>
			<point x="-310" y="708" type="line"/>
			<point x="-427" y="708" type="line"/>
			<point x="-427" y="-79" type="line"/>
			<point x="-310" y="-79" type="line"/>
		</contour>
		<contour>
			<point x="260" y="708" type="line"/>
			<point x="143" y="708" type="line"/>
			<point x="143" y="-79" type="line"/>
			<point x="260" y="-79" type="line"/>
		</contour>
		<contour>
			<point x="-879" y="708" type="line"/>
			<point x="-998" y="708" type="line"/>
			<point x="-1528" y="383" type="line"/>
			<point x="-1527" y="245" type="line"/>
			<point x="-997" y="-79" type="line"/>
			<point x="-879" y="-79" type="line"/>
		</contour>
		<contour>
			<point x="-994" y="55" type="line"/>
			<point x="-1426" y="313" type="line"/>
			<point x="-994" y="576" type="line"/>
		</contour>
	</outline>
</glyph>
<glyph name="less_dollar.cLig" format="2">
	<advance width="600"/>
	<outline>
		<contour>
			<point x="153" y="-92" type="line"/>
			<point x="239" y="-92" type="line"/>
			<point x="252" y="-11" type="line"/>
			<point x="257" y="-12"/>
			<point x="262" y="-12"/>
			<point x="267" y="-11" type="curve" smooth="yes"/>
			<point x="419" y="-10"/>
			<point x="523" y="66"/>
			<point x="523" y="211" type="curve" smooth="yes"/>
			<point x="523" y="342"/>
			<point x="426" y="376"/>
			<point x="310" y="397" type="curve"/>
			<point x="342" y="588" type="line"/>
			<point x="400" y="578"/>
			<point x="459" y="556"/>
			<point x="505" y="523" type="curve"/>
			<point x="505" y="634" type="line"/>
			<point x="473" y="656"/>
			<point x="425" y="675"/>
			<point x="367" y="686" type="curve"/>
			<point x="381" y="775" type="line"/>
			<point x="296" y="775" type="line"/>
			<point x="283" y="695" type="line"/>
			<point x="269" y="695" type="line" smooth="yes"/>
			<point x="120" y="695"/>
			<point x="18" y="621"/>
			<point x="18" y="481" type="curve" smooth="yes"/>
			<point x="18" y="346"/>
			<point x="107" y="312"/>
			<point x="225" y="290" type="curve"/>
			<point x="193" y="97" type="line"/>
			<point x="119" y="107"/>
			<point x="35" y="134"/>
			<point x="-71" y="177" type="curve" smooth="yes"/>
			<point x="-416" y="318" type="line"/>
			<point x="-93" y="475" type="line"/>
			<point x="-93" y="596" type="line"/>
			<point x="-520" y="383" type="line"/>
			<point x="-520" y="245" type="line"/>
			<point x="-116" y="75" type="line" smooth="yes"/>
			<point x="-11" y="33"/>
			<point x="81" y="6"/>
			<point x="167" y="-5" type="curve"/>
		</contour>
		<contour>
			<point x="142" y="495" type="curve" smooth="yes"/>
			<point x="142" y="564"/>
			<point x="194" y="595"/>
			<point x="266" y="595" type="curve" smooth="yes"/>
			<point x="276" y="595" type="line"/>
			<point x="245" y="408" type="line"/>
			<point x="182" y="420"/>
			<point x="142" y="438"/>
		</contour>
		<contour>
			<point x="399" y="192" type="curve" smooth="yes"/>
			<point x="399" y="123"/>
			<point x="346" y="92"/>
			<point x="264" y="92" type="curve" smooth="yes"/>
			<point x="260" y="92" type="line"/>
			<point x="291" y="279" type="line"/>
			<point x="356" y="267"/>
			<point x="399" y="249"/>
		</contour>
	</outline>
</glyph>
<glyph name="less_equal.rem" format="2">
	<advance width="600"/>
	<outline>
		<contour>
			<point x="512" y="629" type="line"/>
			<point x="367" y="629" type="line"/>
			<point x="242" y="478" type="line"/>
			<point x="-435" y="478" type="line"/>
			<point x="-435" y="371" type="line"/>
			<point x="298" y="371" type="line"/>
		</contour>
		<contour>
			<point x="298" y="258" type="line"/>
			<point x="-435" y="258" type="line"/>
			<point x="-435" y="151" type="line"/>
			<point x="243" y="151" type="line"/>
			<point x="370" y="0" type="line"/>
			<point x="515" y="0" type="line"/>
		</contour>
	</outline>
</glyph>
<glyph name="less_equal_greater.rem" format="2">
	<advance width="600"/>
	<outline>
		<contour>
			<point x="-671" y="629" type="line"/>
			<point x="-814" y="629" type="line"/>
			<point x="-1083" y="316" type="line"/>
			<point x="-811" y="0" type="line"/>
			<point x="-668" y="0" type="line"/>
			<point x="-799" y="151" type="line"/>
			<point x="199" y="151" type="line"/>
			<point x="68" y="0" type="line"/>
			<point x="211" y="0" type="line"/>
			<point x="483" y="315" type="line"/>
			<point x="214" y="629" type="line"/>
			<point x="71" y="629" type="line"/>
			<point x="200" y="478" type="line"/>
			<point x="-800" y="478" type="line"/>
		</contour>
		<contour>
			<point x="-891" y="258" type="line"/>
			<point x="-940" y="314" type="line"/>
			<point x="-891" y="371" type="line"/>
			<point x="291" y="371" type="line"/>
			<point x="340" y="314" type="line"/>
			<point x="291" y="258" type="line"/>
		</contour>
	</outline>
</glyph>
<glyph name="less_exclam_hyphen_hyphen.cLig" format="2">
	<advance width="600"/>
	<outline>
		<contour>
			<point x="-1019" y="219" type="line"/>
			<point x="-929" y="219" type="line"/>
			<point x="-905" y="552" type="line"/>
			<point x="-905" y="684" type="line"/>
			<point x="-1042" y="684" type="line"/>
			<point x="-1042" y="552" type="line"/>
		</contour>
		<contour>
			<point x="-1248" y="0" type="line"/>
			<point x="-1484" y="258" type="line"/>
			<point x="-1145" y="258" type="line"/>
			<point x="-1145" y="371" type="line"/>
			<point x="-1485" y="371" type="line"/>
			<point x="-1251" y="629" type="line"/>
			<point x="-1397" y="629" type="line"/>
			<point x="-1670" y="315" type="line"/>
			<point x="-1394" y="0" type="line"/>
		</contour>
		<contour>
			<point x="435" y="370" type="line"/>
			<point x="-778" y="370" type="line"/>
			<point x="-778" y="257" type="line"/>
			<point x="435" y="257" type="line"/>
		</contour>
		<contour>
			<point x="-972" y="-12" type="curve" smooth="yes"/>
			<point x="-917" y="-12"/>
			<point x="-889" y="9"/>
			<point x="-889" y="64" type="curve" smooth="yes"/>
			<point x="-889" y="118"/>
			<point x="-917" y="140"/>
			<point x="-972" y="140" type="curve" smooth="yes"/>
			<point x="-1029" y="140"/>
			<point x="-1057" y="118"/>
			<point x="-1057" y="64" type="curve" smooth="yes"/>
			<point x="-1057" y="9"/>
			<point x="-1029" y="-12"/>
		</contour>
	</outline>
</glyph>
<glyph name="less_hyphen_bar.rem" format="2">
	<advance width="600"/>
	<outline>
		<contour>
			<point x="435" y="629" type="line"/>
			<point x="318" y="629" type="line"/>
			<point x="318" y="371" type="line"/>
			<point x="-867" y="371" type="line"/>
			<point x="-634" y="629" type="line"/>
			<point x="-779" y="629" type="line"/>
			<point x="-1053" y="315" type="line"/>
			<point x="-776" y="0" type="line"/>
			<point x="-631" y="0" type="line"/>
			<point x="-867" y="258" type="line"/>
			<point x="318" y="258" type="line"/>
			<point x="318" y="0" type="line"/>
			<point x="435" y="0" type="line"/>
		</contour>
	</outline>
</glyph>
<glyph name="less_less_equal.fina" format="2">
	<advance width="600"/>
	<outline>
		<contour>
			<point x="527" y="629" type="line"/>
			<point x="381" y="629" type="line"/>
			<point x="110" y="315" type="line"/>
			<point x="384" y="0" type="line"/>
			<point x="530" y="0" type="line"/>
			<point x="256" y="315" type="line"/>
		</contour>
		<contour>
			<point x="-77" y="258" type="line"/>
			<point x="-600" y="258" type="line"/>
			<point x="-600" y="151" type="line"/>
			<point x="-132" y="151" type="line"/>
			<point x="-5" y="0" type="line"/>
			<point x="140" y="0" type="line"/>
		</contour>
		<contour>
			<point x="137" y="629" type="line"/>
			<point x="-8" y="629" type="line"/>
			<point x="-133" y="478" type="line"/>
			<point x="-600" y="478" type="line"/>
			<point x="-600" y="371" type="line"/>
			<point x="-77" y="371" type="line"/>
		</contour>
	</outline>
</glyph>
<glyph name="less_less_equal.rem" format="2">
	<advance width="600"/>
	<outline>
		<contour>
			<point x="-656" y="629" type="line"/>
			<point x="-800" y="629" type="line"/>
			<point x="-1070" y="315" type="line"/>
			<point x="-797" y="0" type="line"/>
			<point x="-653" y="0" type="line"/>
			<point x="-923" y="313" type="line"/>
		</contour>
		<contour>
			<point x="435" y="478" type="line"/>
			<point x="-403" y="478" type="line"/>
			<point x="-274" y="629" type="line"/>
			<point x="-417" y="629" type="line"/>
			<point x="-686" y="315" type="line"/>
			<point x="-414" y="0" type="line"/>
			<point x="-271" y="0" type="line"/>
			<point x="-402" y="151" type="line"/>
			<point x="435" y="151" type="line"/>
			<point x="435" y="258" type="line"/>
			<point x="-495" y="258" type="line"/>
			<point x="-543" y="314" type="line"/>
			<point x="-494" y="371" type="line"/>
			<point x="435" y="371" type="line"/>
		</contour>
	</outline>
</glyph>
<glyph name="less_less_hyphen.med" format="2">
	<advance width="600"/>
	<outline>
		<contour>
			<point x="62" y="629" type="line"/>
			<point x="-82" y="629" type="line"/>
			<point x="-294" y="382" type="line"/>
			<point x="-599" y="382" type="line"/>
			<point x="-599" y="270" type="line"/>
			<point x="-314" y="270" type="line"/>
			<point x="-79" y="0" type="line"/>
			<point x="65" y="0" type="line"/>
			<point x="-205" y="313" type="line"/>
		</contour>
		<contour>
			<point x="600" y="371" type="line"/>
			<point x="214" y="371" type="line"/>
			<point x="448" y="629" type="line"/>
			<point x="302" y="629" type="line"/>
			<point x="29" y="315" type="line"/>
			<point x="305" y="0" type="line"/>
			<point x="451" y="0" type="line"/>
			<point x="215" y="258" type="line"/>
			<point x="600" y="258" type="line"/>
		</contour>
	</outline>
</glyph>
<glyph name="less_plus.cLig" format="2">
	<advance width="600"/>
	<outline>
		<contour>
			<point x="-43" y="-9" type="line"/>
			<point x="-43" y="115" type="line"/>
			<point x="-400" y="313" type="line"/>
			<point x="-43" y="515" type="line"/>
			<point x="-43" y="639" type="line"/>
			<point x="-490" y="383" type="line"/>
			<point x="-490" y="245" type="line"/>
		</contour>
		<contour>
			<point x="209" y="529" type="line"/>
			<point x="209" y="350" type="line"/>
			<point x="33" y="350" type="line"/>
			<point x="33" y="244" type="line"/>
			<point x="209" y="244" type="line"/>
			<point x="209" y="65" type="line"/>
			<point x="319" y="65" type="line"/>
			<point x="319" y="244" type="line"/>
			<point x="495" y="244" type="line"/>
			<point x="495" y="350" type="line"/>
			<point x="319" y="350" type="line"/>
			<point x="319" y="529" type="line"/>
		</contour>
	</outline>
</glyph>
<glyph name="less_question.cLig" format="2">
	<advance width="600"/>
	<outline>
		<contour>
			<point x="-72" y="479" type="line" smooth="yes"/>
			<point x="90" y="560"/>
			<point x="180" y="588"/>
			<point x="251" y="588" type="curve"/>
			<point x="322" y="588"/>
			<point x="355" y="559"/>
			<point x="355" y="513" type="curve" smooth="yes"/>
			<point x="355" y="411"/>
			<point x="174" y="405"/>
			<point x="174" y="259" type="curve" smooth="yes"/>
			<point x="174" y="245"/>
			<point x="176" y="233"/>
			<point x="179" y="219" type="curve"/>
			<point x="291" y="219" type="line"/>
			<point x="291" y="253" type="line" smooth="yes"/>
			<point x="293" y="353"/>
			<point x="482" y="374"/>
			<point x="482" y="531" type="curve" smooth="yes"/>
			<point x="482" y="630"/>
			<point x="409" y="698"/>
			<point x="267" y="698" type="curve"/>
			<point x="157" y="698"/>
			<point x="49" y="659"/>
			<point x="-98" y="586" type="curve" smooth="yes"/>
			<point x="-504" y="383" type="line"/>
			<point x="-504" y="245" type="line"/>
			<point x="-51" y="18" type="line"/>
			<point x="-51" y="140" type="line"/>
			<point x="-409" y="315" type="line"/>
		</contour>
		<contour>
			<point x="235" y="-12" type="curve" smooth="yes"/>
			<point x="291" y="-12"/>
			<point x="320" y="9"/>
			<point x="320" y="65" type="curve" smooth="yes"/>
			<point x="320" y="119"/>
			<point x="291" y="141"/>
			<point x="235" y="141" type="curve" smooth="yes"/>
			<point x="177" y="141"/>
			<point x="149" y="119"/>
			<point x="149" y="65" type="curve" smooth="yes"/>
			<point x="149" y="9"/>
			<point x="178" y="-12"/>
		</contour>
	</outline>
</glyph>
<glyph name="less_slash.cLig" format="2">
	<advance width="600"/>
	<outline>
		<contour>
			<point x="-43" y="593" type="line"/>
			<point x="-490" y="384" type="line"/>
			<point x="-490" y="246" type="line"/>
			<point x="75" y="-26" type="line"/>
			<point x="23" y="-164" type="line"/>
			<point x="144" y="-164" type="line"/>
			<point x="503" y="791" type="line"/>
			<point x="381" y="791" type="line"/>
			<point x="113" y="76" type="line"/>
			<point x="-387" y="316" type="line"/>
			<point x="-43" y="471" type="line"/>
		</contour>
	</outline>
</glyph>
<glyph name="less_slash_greater.cLig" format="2">
	<advance width="600"/>
	<outline>
		<contour>
			<point x="5" y="37" type="line"/>
			<point x="452" y="246" type="line"/>
			<point x="452" y="384" type="line"/>
			<point x="-112" y="655" type="line"/>
			<point x="-60" y="792" type="line"/>
			<point x="-182" y="792" type="line"/>
			<point x="-450" y="76" type="line"/>
			<point x="-950" y="315" type="line"/>
			<point x="-605" y="471" type="line"/>
			<point x="-605" y="593" type="line"/>
			<point x="-1052" y="383" type="line"/>
			<point x="-1052" y="245" type="line"/>
			<point x="-488" y="-26" type="line"/>
			<point x="-540" y="-163" type="line"/>
			<point x="-419" y="-163" type="line"/>
			<point x="-150" y="554" type="line"/>
			<point x="350" y="314" type="line"/>
			<point x="5" y="158" type="line"/>
		</contour>
	</outline>
</glyph>
<glyph name="lslashcomb" format="2">
	<advance width="600"/>
	<outline>
		<contour>
			<point x="25" y="353" type="line"/>
			<point x="458" y="517" type="line"/>
			<point x="458" y="606" type="line"/>
			<point x="25" y="441" type="line"/>
		</contour>
	</outline>
	<anchor name="_center" x="240" y="476"/>
</glyph>
<glyph name="nine.den" format="2">
	<advance width="600"/>
	<outline>
		<contour>
			<point x="274" y="-8" type="curve" smooth="yes"/>
			<point x="421" y="-8"/>
			<point x="461" y="94"/>
			<point x="461" y="223" type="curve" smooth="yes"/>
			<point x="461" y="343"/>
			<point x="425" y="418"/>
			<point x="299" y="418" type="curve" smooth="yes"/>
			<point x="196" y="418"/>
			<point x="140" y="352"/>
			<point x="140" y="267" type="curve" smooth="yes"/>
			<point x="140" y="193"/>
			<point x="178" y="140"/>
			<point x="260" y="140" type="curve" smooth="yes"/>
			<point x="313" y="140"/>
			<point x="350" y="163"/>
			<point x="371" y="212" type="curve"/>
			<point x="370" y="110"/>
			<point x="346" y="61"/>
			<point x="262" y="61" type="curve" smooth="yes"/>
			<point x="226" y="61"/>
			<point x="180" y="77"/>
			<point x="150" y="99" type="curve"/>
			<point x="150" y="23" type="line"/>
			<point x="177" y="7"/>
			<point x="228" y="-8"/>
		</contour>
		<contour>
			<point x="297" y="200" type="curve" smooth="yes"/>
			<point x="251" y="200"/>
			<point x="227" y="223"/>
			<point x="227" y="272" type="curve" smooth="yes"/>
			<point x="227" y="326"/>
			<point x="255" y="353"/>
			<point x="299" y="353" type="curve" smooth="yes"/>
			<point x="346" y="353"/>
			<point x="372" y="323"/>
			<point x="372" y="273" type="curve" smooth="yes"/>
			<point x="372" y="223"/>
			<point x="340" y="200"/>
		</contour>
	</outline>
</glyph>
<glyph name="numbersign.fina" format="2">
	<advance width="600"/>
	<outline>
		<contour>
			<point x="0" y="256" type="line"/>
			<point x="0" y="161" type="line"/>
			<point x="119" y="161" type="line"/>
			<point x="104" y="0" type="line"/>
			<point x="202" y="0" type="line"/>
			<point x="218" y="161" type="line"/>
			<point x="339" y="161" type="line"/>
			<point x="324" y="0" type="line"/>
			<point x="421" y="0" type="line"/>
			<point x="437" y="161" type="line"/>
			<point x="544" y="161" type="line"/>
			<point x="544" y="256" type="line"/>
			<point x="446" y="256" type="line"/>
			<point x="463" y="437" type="line"/>
			<point x="568" y="437" type="line"/>
			<point x="568" y="533" type="line"/>
			<point x="472" y="533" type="line"/>
			<point x="487" y="684" type="line"/>
			<point x="389" y="684" type="line"/>
			<point x="375" y="533" type="line"/>
			<point x="252" y="533" type="line"/>
			<point x="266" y="684" type="line"/>
			<point x="169" y="684" type="line"/>
			<point x="155" y="533" type="line"/>
			<point x="0" y="533" type="line"/>
			<point x="0" y="437" type="line"/>
			<point x="145" y="437" type="line"/>
			<point x="128" y="256" type="line"/>
		</contour>
		<contour>
			<point x="226" y="256" type="line"/>
			<point x="243" y="437" type="line"/>
			<point x="365" y="437" type="line"/>
			<point x="348" y="256" type="line"/>
		</contour>
	</outline>
</glyph>
<glyph name="numbersign.med" format="2">
	<advance width="600"/>
	<outline>
		<contour>
			<point x="0" y="256" type="line"/>
			<point x="0" y="161" type="line"/>
			<point x="124" y="161" type="line"/>
			<point x="108" y="0" type="line"/>
			<point x="207" y="0" type="line"/>
			<point x="222" y="161" type="line"/>
			<point x="344" y="161" type="line"/>
			<point x="329" y="0" type="line"/>
			<point x="426" y="0" type="line"/>
			<point x="442" y="161" type="line"/>
			<point x="600" y="161" type="line"/>
			<point x="600" y="256" type="line"/>
			<point x="451" y="256" type="line"/>
			<point x="468" y="437" type="line"/>
			<point x="600" y="437" type="line"/>
			<point x="600" y="533" type="line"/>
			<point x="477" y="533" type="line"/>
			<point x="492" y="684" type="line"/>
			<point x="394" y="684" type="line"/>
			<point x="379" y="533" type="line"/>
			<point x="257" y="533" type="line"/>
			<point x="271" y="684" type="line"/>
			<point x="174" y="684" type="line"/>
			<point x="159" y="533" type="line"/>
			<point x="0" y="533" type="line"/>
			<point x="0" y="437" type="line"/>
			<point x="150" y="437" type="line"/>
			<point x="133" y="256" type="line"/>
		</contour>
		<contour>
			<point x="231" y="256" type="line"/>
			<point x="248" y="437" type="line"/>
			<point x="370" y="437" type="line"/>
			<point x="353" y="256" type="line"/>
		</contour>
	</outline>
</glyph>
<glyph name="numbersign_braceleft.cLig" format="2">
	<advance width="600"/>
	<outline>
		<contour>
			<point x="342" y="-163" type="curve" smooth="yes"/>
			<point x="506" y="-163" type="line"/>
			<point x="506" y="-71" type="line"/>
			<point x="385" y="-71" type="line" smooth="yes"/>
			<point x="328" y="-71"/>
			<point x="298" y="-48"/>
			<point x="298" y="-5" type="curve" smooth="yes"/>
			<point x="298" y="60"/>
			<point x="399" y="113"/>
			<point x="399" y="200" type="curve" smooth="yes"/>
			<point x="399" y="256"/>
			<point x="347" y="302"/>
			<point x="275" y="314" type="curve"/>
			<point x="347" y="325"/>
			<point x="399" y="371"/>
			<point x="399" y="426" type="curve" smooth="yes"/>
			<point x="399" y="514"/>
			<point x="298" y="568"/>
			<point x="298" y="635" type="curve" smooth="yes"/>
			<point x="298" y="680"/>
			<point x="330" y="700"/>
			<point x="381" y="700" type="curve" smooth="yes"/>
			<point x="506" y="700" type="line"/>
			<point x="506" y="792" type="line"/>
			<point x="342" y="792" type="line" smooth="yes"/>
			<point x="231" y="792"/>
			<point x="170" y="727"/>
			<point x="170" y="651" type="curve" smooth="yes"/>
			<point x="170" y="556"/>
			<point x="271" y="498"/>
			<point x="271" y="431" type="curve" smooth="yes"/>
			<point x="271" y="402"/>
			<point x="251" y="367"/>
			<point x="191" y="367" type="curve" smooth="yes"/>
			<point x="138" y="367" type="line"/>
			<point x="138" y="260" type="line"/>
			<point x="191" y="260" type="line" smooth="yes"/>
			<point x="250" y="260"/>
			<point x="271" y="224"/>
			<point x="271" y="195" type="curve" smooth="yes"/>
			<point x="271" y="130"/>
			<point x="170" y="71"/>
			<point x="170" y="-23" type="curve" smooth="yes"/>
			<point x="170" y="-100"/>
			<point x="228" y="-163"/>
		</contour>
		<contour>
			<point x="-510" y="256" type="line"/>
			<point x="-510" y="161" type="line"/>
			<point x="-413" y="161" type="line"/>
			<point x="-428" y="0" type="line"/>
			<point x="-329" y="0" type="line"/>
			<point x="-314" y="161" type="line"/>
			<point x="-193" y="161" type="line"/>
			<point x="-208" y="0" type="line"/>
			<point x="-111" y="0" type="line"/>
			<point x="-95" y="161" type="line"/>
			<point x="58" y="161" type="line"/>
			<point x="58" y="256" type="line"/>
			<point x="-86" y="256" type="line"/>
			<point x="-69" y="437" type="line"/>
			<point x="58" y="437" type="line"/>
			<point x="58" y="533" type="line"/>
			<point x="-60" y="533" type="line"/>
			<point x="-45" y="684" type="line"/>
			<point x="-143" y="684" type="line"/>
			<point x="-157" y="533" type="line"/>
			<point x="-280" y="533" type="line"/>
			<point x="-265" y="684" type="line"/>
			<point x="-363" y="684" type="line"/>
			<point x="-377" y="533" type="line"/>
			<point x="-485" y="533" type="line"/>
			<point x="-485" y="437" type="line"/>
			<point x="-387" y="437" type="line"/>
			<point x="-404" y="256" type="line"/>
		</contour>
		<contour>
			<point x="-306" y="256" type="line"/>
			<point x="-289" y="437" type="line"/>
			<point x="-166" y="437" type="line"/>
			<point x="-184" y="256" type="line"/>
		</contour>
	</outline>
</glyph>
<glyph name="numbersign_braceright.cLig" format="2">
	<advance width="600"/>
	<outline>
		<contour>
			<point x="492" y="369" type="line"/>
			<point x="420" y="369" type="line" smooth="yes"/>
			<point x="360" y="369"/>
			<point x="339" y="405"/>
			<point x="339" y="433" type="curve" smooth="yes"/>
			<point x="339" y="499"/>
			<point x="440" y="557"/>
			<point x="440" y="651" type="curve" smooth="yes"/>
			<point x="440" y="729"/>
			<point x="383" y="792"/>
			<point x="269" y="792" type="curve" smooth="yes"/>
			<point x="100" y="792" type="line"/>
			<point x="100" y="701" type="line"/>
			<point x="226" y="701" type="line" smooth="yes"/>
			<point x="284" y="701"/>
			<point x="313" y="678"/>
			<point x="313" y="634" type="curve" smooth="yes"/>
			<point x="313" y="570"/>
			<point x="213" y="516"/>
			<point x="213" y="429" type="curve" smooth="yes"/>
			<point x="213" y="373"/>
			<point x="265" y="328"/>
			<point x="337" y="316" type="curve"/>
			<point x="265" y="304"/>
			<point x="213" y="258"/>
			<point x="213" y="203" type="curve" smooth="yes"/>
			<point x="213" y="115"/>
			<point x="313" y="61"/>
			<point x="313" y="-6" type="curve" smooth="yes"/>
			<point x="313" y="-52"/>
			<point x="281" y="-72"/>
			<point x="230" y="-72" type="curve" smooth="yes"/>
			<point x="100" y="-72" type="line"/>
			<point x="100" y="-163" type="line"/>
			<point x="269" y="-163" type="line" smooth="yes"/>
			<point x="380" y="-163"/>
			<point x="440" y="-98"/>
			<point x="440" y="-23" type="curve" smooth="yes"/>
			<point x="440" y="72"/>
			<point x="339" y="131"/>
			<point x="339" y="198" type="curve" smooth="yes"/>
			<point x="339" y="227"/>
			<point x="360" y="262"/>
			<point x="420" y="262" type="curve" smooth="yes"/>
			<point x="492" y="262" type="line"/>
		</contour>
		<contour>
			<point x="-476" y="256" type="line"/>
			<point x="-476" y="161" type="line"/>
			<point x="-379" y="161" type="line"/>
			<point x="-395" y="0" type="line"/>
			<point x="-296" y="0" type="line"/>
			<point x="-281" y="161" type="line"/>
			<point x="-159" y="161" type="line"/>
			<point x="-174" y="0" type="line"/>
			<point x="-77" y="0" type="line"/>
			<point x="-62" y="161" type="line"/>
			<point x="92" y="161" type="line"/>
			<point x="92" y="256" type="line"/>
			<point x="-52" y="256" type="line"/>
			<point x="-35" y="437" type="line"/>
			<point x="92" y="437" type="line"/>
			<point x="92" y="533" type="line"/>
			<point x="-26" y="533" type="line"/>
			<point x="-11" y="684" type="line"/>
			<point x="-109" y="684" type="line"/>
			<point x="-124" y="533" type="line"/>
			<point x="-246" y="533" type="line"/>
			<point x="-232" y="684" type="line"/>
			<point x="-329" y="684" type="line"/>
			<point x="-344" y="533" type="line"/>
			<point x="-451" y="533" type="line"/>
			<point x="-451" y="437" type="line"/>
			<point x="-353" y="437" type="line"/>
			<point x="-370" y="256" type="line"/>
		</contour>
		<contour>
			<point x="-272" y="256" type="line"/>
			<point x="-255" y="437" type="line"/>
			<point x="-133" y="437" type="line"/>
			<point x="-150" y="256" type="line"/>
		</contour>
	</outline>
</glyph>
<glyph name="numbersign_bracketright_bracketright.cLig" format="2">
	<advance width="600"/>
	<outline>
		<contour>
			<point x="418" y="792" type="line"/>
			<point x="20" y="792" type="line"/>
			<point x="20" y="700" type="line"/>
			<point x="300" y="700" type="line"/>
			<point x="300" y="-71" type="line"/>
			<point x="20" y="-71" type="line"/>
			<point x="20" y="-163" type="line"/>
			<point x="418" y="-163" type="line"/>
		</contour>
		<contour>
			<point x="-62" y="792" type="line"/>
			<point x="-403" y="792" type="line"/>
			<point x="-403" y="700" type="line"/>
			<point x="-180" y="700" type="line"/>
			<point x="-180" y="-71" type="line"/>
			<point x="-403" y="-71" type="line"/>
			<point x="-403" y="-163" type="line"/>
			<point x="-62" y="-163" type="line"/>
		</contour>
		<contour>
			<point x="-1020" y="256" type="line"/>
			<point x="-1020" y="161" type="line"/>
			<point x="-923" y="161" type="line"/>
			<point x="-939" y="0" type="line"/>
			<point x="-840" y="0" type="line"/>
			<point x="-825" y="161" type="line"/>
			<point x="-703" y="161" type="line"/>
			<point x="-718" y="0" type="line"/>
			<point x="-621" y="0" type="line"/>
			<point x="-606" y="161" type="line"/>
			<point x="-452" y="161" type="line"/>
			<point x="-452" y="256" type="line"/>
			<point x="-596" y="256" type="line"/>
			<point x="-579" y="437" type="line"/>
			<point x="-452" y="437" type="line"/>
			<point x="-452" y="533" type="line"/>
			<point x="-570" y="533" type="line"/>
			<point x="-555" y="684" type="line"/>
			<point x="-653" y="684" type="line"/>
			<point x="-668" y="533" type="line"/>
			<point x="-790" y="533" type="line"/>
			<point x="-776" y="684" type="line"/>
			<point x="-873" y="684" type="line"/>
			<point x="-888" y="533" type="line"/>
			<point x="-995" y="533" type="line"/>
			<point x="-995" y="437" type="line"/>
			<point x="-897" y="437" type="line"/>
			<point x="-914" y="256" type="line"/>
		</contour>
		<contour>
			<point x="-816" y="256" type="line"/>
			<point x="-799" y="437" type="line"/>
			<point x="-677" y="437" type="line"/>
			<point x="-694" y="256" type="line"/>
		</contour>
	</outline>
</glyph>
<glyph name="numbersign_equal.cLig" format="2">
	<advance width="600"/>
	<outline>
		<contour>
			<point x="-515" y="276" type="line"/>
			<point x="-515" y="180" type="line"/>
			<point x="-416" y="180" type="line"/>
			<point x="-433" y="0" type="line"/>
			<point x="-334" y="0" type="line"/>
			<point x="-318" y="180" type="line"/>
			<point x="-196" y="180" type="line"/>
			<point x="-213" y="0" type="line"/>
			<point x="-116" y="0" type="line"/>
			<point x="-98" y="180" type="line"/>
			<point x="12" y="180" type="line"/>
			<point x="12" y="276" type="line"/>
			<point x="-89" y="276" type="line"/>
			<point x="-76" y="417" type="line"/>
			<point x="12" y="417" type="line"/>
			<point x="12" y="513" type="line"/>
			<point x="-66" y="513" type="line"/>
			<point x="-50" y="684" type="line"/>
			<point x="-148" y="684" type="line"/>
			<point x="-164" y="513" type="line"/>
			<point x="-286" y="513" type="line"/>
			<point x="-270" y="684" type="line"/>
			<point x="-368" y="684" type="line"/>
			<point x="-384" y="513" type="line"/>
			<point x="-490" y="513" type="line"/>
			<point x="-490" y="417" type="line"/>
			<point x="-393" y="417" type="line"/>
			<point x="-407" y="276" type="line"/>
		</contour>
		<contour>
			<point x="126" y="406" type="line"/>
			<point x="511" y="406" type="line"/>
			<point x="511" y="513" type="line"/>
			<point x="126" y="513" type="line"/>
		</contour>
		<contour>
			<point x="-309" y="276" type="line"/>
			<point x="-295" y="417" type="line"/>
			<point x="-173" y="417" type="line"/>
			<point x="-187" y="276" type="line"/>
		</contour>
		<contour>
			<point x="126" y="180" type="line"/>
			<point x="511" y="180" type="line"/>
			<point x="511" y="287" type="line"/>
			<point x="126" y="287" type="line"/>
		</contour>
	</outline>
</glyph>
<glyph name="numbersign_exclam.cLig" format="2">
	<advance width="600"/>
	<outline>
		<contour>
			<point x="302" y="219" type="line"/>
			<point x="392" y="219" type="line"/>
			<point x="416" y="552" type="line"/>
			<point x="416" y="684" type="line"/>
			<point x="279" y="684" type="line"/>
			<point x="279" y="552" type="line"/>
		</contour>
		<contour>
			<point x="349" y="-12" type="curve" smooth="yes"/>
			<point x="404" y="-12"/>
			<point x="432" y="9"/>
			<point x="432" y="64" type="curve" smooth="yes"/>
			<point x="432" y="118"/>
			<point x="404" y="140"/>
			<point x="349" y="140" type="curve" smooth="yes"/>
			<point x="292" y="140"/>
			<point x="264" y="118"/>
			<point x="264" y="64" type="curve" smooth="yes"/>
			<point x="264" y="9"/>
			<point x="292" y="-12"/>
		</contour>
		<contour>
			<point x="-465" y="256" type="line"/>
			<point x="-465" y="161" type="line"/>
			<point x="-368" y="161" type="line"/>
			<point x="-384" y="0" type="line"/>
			<point x="-285" y="0" type="line"/>
			<point x="-270" y="161" type="line"/>
			<point x="-148" y="161" type="line"/>
			<point x="-163" y="0" type="line"/>
			<point x="-66" y="0" type="line"/>
			<point x="-51" y="161" type="line"/>
			<point x="103" y="161" type="line"/>
			<point x="103" y="256" type="line"/>
			<point x="-41" y="256" type="line"/>
			<point x="-24" y="437" type="line"/>
			<point x="103" y="437" type="line"/>
			<point x="103" y="533" type="line"/>
			<point x="-15" y="533" type="line"/>
			<point x="0" y="684" type="line"/>
			<point x="-98" y="684" type="line"/>
			<point x="-113" y="533" type="line"/>
			<point x="-235" y="533" type="line"/>
			<point x="-221" y="684" type="line"/>
			<point x="-318" y="684" type="line"/>
			<point x="-333" y="533" type="line"/>
			<point x="-440" y="533" type="line"/>
			<point x="-440" y="437" type="line"/>
			<point x="-342" y="437" type="line"/>
			<point x="-359" y="256" type="line"/>
		</contour>
		<contour>
			<point x="-261" y="256" type="line"/>
			<point x="-244" y="437" type="line"/>
			<point x="-122" y="437" type="line"/>
			<point x="-139" y="256" type="line"/>
		</contour>
	</outline>
</glyph>
<glyph name="numbersign_numbersign.cLig.x" format="2">
	<advance width="600"/>
	<outline>
		<contour>
			<point x="-505" y="161" type="line"/>
			<point x="-374" y="161" type="line"/>
			<point x="-389" y="0" type="line"/>
			<point x="-290" y="0" type="line"/>
			<point x="-275" y="161" type="line"/>
			<point x="-65" y="161" type="line"/>
			<point x="-80" y="0" type="line"/>
			<point x="18" y="0" type="line"/>
			<point x="33" y="161" type="line"/>
			<point x="243" y="161" type="line"/>
			<point x="228" y="0" type="line"/>
			<point x="325" y="0" type="line"/>
			<point x="340" y="161" type="line"/>
			<point x="482" y="161" type="line"/>
			<point x="482" y="256" type="line"/>
			<point x="350" y="256" type="line"/>
			<point x="367" y="437" type="line"/>
			<point x="506" y="437" type="line"/>
			<point x="506" y="533" type="line"/>
			<point x="376" y="533" type="line"/>
			<point x="390" y="684" type="line"/>
			<point x="293" y="684" type="line"/>
			<point x="278" y="533" type="line"/>
			<point x="68" y="533" type="line"/>
			<point x="82" y="684" type="line"/>
			<point x="-15" y="684" type="line"/>
			<point x="-30" y="533" type="line"/>
			<point x="-240" y="533" type="line"/>
			<point x="-226" y="684" type="line"/>
			<point x="-323" y="684" type="line"/>
			<point x="-338" y="533" type="line"/>
			<point x="-481" y="533" type="line"/>
			<point x="-481" y="437" type="line"/>
			<point x="-347" y="437" type="line"/>
			<point x="-364" y="256" type="line"/>
			<point x="-505" y="256" type="line"/>
		</contour>
		<contour>
			<point x="-266" y="256" type="line"/>
			<point x="-249" y="437" type="line"/>
			<point x="-39" y="437" type="line"/>
			<point x="-56" y="256" type="line"/>
		</contour>
		<contour>
			<point x="42" y="256" type="line"/>
			<point x="59" y="437" type="line"/>
			<point x="269" y="437" type="line"/>
			<point x="252" y="256" type="line"/>
		</contour>
	</outline>
</glyph>
